{"glyphs":{"0":{"ha":921,"x_min":99,"x_max":822,"o":"m 460 -17 q 285 28 355 -17 q 174 145 215 72 q 116 308 133 219 q 99 486 99 397 q 109 632 99 560 q 145 769 120 705 q 212 883 170 833 q 315 960 253 932 q 460 989 376 989 q 636 945 566 989 q 747 829 706 902 q 805 667 788 756 q 822 486 822 578 q 811 341 822 413 q 775 205 800 269 q 708 90 750 140 q 606 12 667 40 q 460 -17 544 -17 m 460 172 q 538 198 507 172 q 588 269 569 224 q 615 370 606 314 q 623 486 623 426 q 615 601 623 545 q 589 702 607 657 q 539 774 570 747 q 460 801 508 801 q 382 774 414 801 q 332 703 351 748 q 304 603 313 659 q 296 486 296 547 q 304 371 296 427 q 331 270 313 315 q 381 198 349 225 q 460 172 413 172 z "},"1":{"ha":568,"x_min":46,"x_max":390,"o":"m 190 0 l 190 710 l 46 710 l 46 870 q 128 880 92 870 q 191 911 165 889 q 229 972 216 933 l 390 972 l 390 0 l 190 0 z "},"2":{"ha":849,"x_min":88,"x_max":758,"o":"m 88 0 q 113 194 88 110 q 182 342 138 278 q 287 454 227 406 q 416 540 347 502 q 482 583 451 560 q 533 633 513 605 q 553 697 553 660 q 521 773 553 746 q 437 801 489 801 q 343 773 382 801 q 280 697 304 746 l 103 778 q 235 932 145 876 q 433 989 326 989 q 605 950 533 989 q 713 847 676 912 q 750 703 750 782 q 722 562 750 619 q 645 465 694 506 q 536 389 597 425 q 429 321 472 351 q 361 261 387 291 q 319 192 335 231 l 758 192 l 758 0 l 88 0 z "},"3":{"ha":832,"x_min":65,"x_max":744,"o":"m 413 -17 q 199 43 290 -17 q 65 213 108 103 l 242 285 q 413 172 303 172 q 511 203 475 172 q 547 287 547 233 q 509 365 547 335 q 409 394 471 394 l 307 394 l 307 585 l 408 585 q 486 615 458 585 q 515 696 515 644 q 485 771 515 742 q 406 801 454 801 q 331 779 365 801 q 273 715 297 758 l 94 785 q 223 936 141 883 q 408 989 306 989 q 567 954 499 989 q 674 857 635 919 q 713 713 713 795 q 683 590 713 646 q 597 499 653 535 q 705 407 665 472 q 744 261 744 343 q 702 117 744 180 q 585 19 660 55 q 413 -17 510 -17 z "},"4":{"ha":903,"x_min":19,"x_max":827,"o":"m 515 0 l 515 188 l 19 188 l 19 314 l 518 972 l 710 972 l 710 374 l 827 374 l 827 188 l 710 188 l 710 0 l 515 0 m 278 374 l 515 374 l 515 697 l 278 374 z "},"5":{"ha":844,"x_min":81,"x_max":759,"o":"m 386 -17 q 257 -2 315 -17 q 155 35 199 13 q 81 81 110 58 l 185 238 q 241 206 210 221 q 307 181 271 190 q 386 171 343 171 q 477 189 438 171 q 539 242 517 207 q 560 326 560 276 q 546 396 560 365 q 505 444 532 426 q 436 461 477 461 q 347 442 383 461 q 283 390 312 423 l 110 478 l 135 972 l 697 972 l 697 781 l 319 781 l 308 624 q 371 643 340 635 q 438 650 402 650 q 614 607 542 650 q 722 490 685 564 q 759 325 759 417 q 711 144 759 221 q 578 25 663 67 q 386 -17 494 -17 z "},"6":{"ha":861,"x_min":86,"x_max":794,"o":"m 445 -17 q 291 11 358 -17 q 178 91 224 40 q 109 210 133 142 q 86 358 86 278 q 146 642 86 510 q 335 865 206 773 q 667 989 463 956 l 667 802 q 530 763 598 790 q 407 689 461 735 q 324 576 352 642 q 387 606 350 594 q 471 618 424 618 q 637 577 564 618 q 752 465 710 537 q 794 301 794 394 q 749 136 794 208 q 625 24 704 64 q 445 -17 547 -17 m 444 172 q 523 187 488 172 q 577 231 558 203 q 597 300 597 260 q 554 394 597 359 q 444 430 511 430 q 365 413 400 430 q 310 367 331 397 q 290 300 290 338 q 310 231 290 260 q 365 187 331 203 q 444 172 400 172 z "},"7":{"ha":751,"x_min":33,"x_max":700,"o":"m 223 0 q 250 291 224 156 q 329 548 276 426 q 465 782 383 669 l 33 782 l 33 972 l 700 972 l 700 814 q 570 620 624 728 q 484 399 517 513 q 436 181 451 285 q 421 0 422 77 l 223 0 z "},"8":{"ha":882,"x_min":88,"x_max":796,"o":"m 440 -17 q 252 22 331 -17 q 130 131 173 61 q 88 296 88 201 q 130 439 88 378 q 249 533 173 499 q 191 574 219 547 q 143 641 162 601 q 125 732 125 680 q 163 866 125 808 q 270 956 200 924 q 440 989 341 989 q 611 956 540 989 q 719 866 682 924 q 757 732 757 808 q 738 643 757 682 q 690 576 719 603 q 632 535 661 549 q 750 440 705 503 q 796 296 796 377 q 753 131 796 201 q 631 22 710 61 q 440 -17 551 -17 m 440 160 q 522 178 486 160 q 577 227 557 196 q 597 299 597 258 q 577 372 597 340 q 522 419 557 403 q 440 436 486 436 q 358 419 393 436 q 304 372 323 403 q 285 299 285 340 q 304 227 285 258 q 358 178 323 196 q 440 160 394 160 m 440 615 q 527 643 494 615 q 560 717 560 672 q 527 788 560 760 q 440 817 494 817 q 353 788 384 817 q 322 717 322 760 q 352 643 322 672 q 440 615 383 615 z "},"9":{"ha":861,"x_min":67,"x_max":783,"o":"m 219 -17 l 219 167 q 356 194 288 170 q 476 270 423 217 q 556 410 529 322 q 487 375 526 388 q 398 363 447 363 q 227 400 302 363 q 110 507 153 437 q 67 676 67 576 q 113 841 67 771 q 238 950 158 912 q 422 989 318 989 q 626 940 547 989 q 745 807 706 892 q 783 613 783 722 q 722 288 783 427 q 535 70 660 149 q 219 -17 410 -10 m 420 546 q 497 561 464 546 q 549 605 531 576 q 567 678 567 634 q 549 746 567 716 q 497 792 530 776 q 421 809 464 809 q 335 792 371 809 q 281 746 300 776 q 262 679 262 717 q 281 606 262 636 q 335 561 300 576 q 420 546 371 546 z "},"A":{"ha":1013,"x_min":32,"x_max":981,"o":"m 32 0 l 411 972 l 601 972 l 981 0 l 764 0 l 690 195 l 322 195 l 249 0 l 32 0 m 389 379 l 622 379 l 534 606 q 524 630 530 617 q 514 658 519 644 q 506 683 509 672 q 497 658 502 672 q 487 630 492 644 q 477 606 481 617 l 389 379 z "},"Á":{"ha":1013,"x_min":32,"x_max":981,"o":"m 32 0 l 411 972 l 601 972 l 981 0 l 764 0 l 690 195 l 322 195 l 249 0 l 32 0 m 389 379 l 622 379 l 534 606 q 524 630 530 617 q 514 658 519 644 q 506 683 509 672 q 497 658 502 672 q 487 630 492 644 q 477 606 481 617 l 389 379 m 353 1063 l 550 1279 l 781 1279 l 534 1063 l 353 1063 z "},"Ă":{"ha":1013,"x_min":32,"x_max":981,"o":"m 32 0 l 411 972 l 601 972 l 981 0 l 764 0 l 690 195 l 322 195 l 249 0 l 32 0 m 389 379 l 622 379 l 534 606 q 524 630 530 617 q 514 658 519 644 q 506 683 509 672 q 497 658 502 672 q 487 630 492 644 q 477 606 481 617 l 389 379 m 506 1056 q 366 1089 422 1056 q 282 1176 310 1122 q 253 1293 253 1230 l 397 1293 q 406 1245 397 1269 q 438 1205 415 1221 q 506 1189 462 1189 q 574 1205 550 1189 q 607 1245 598 1221 q 617 1293 617 1269 l 760 1293 q 731 1176 760 1230 q 647 1089 703 1122 q 506 1056 590 1056 z "},"Ắ":{"ha":1013,"x_min":32,"x_max":981,"o":"m 32 0 l 411 972 l 601 972 l 981 0 l 764 0 l 690 195 l 322 195 l 249 0 l 32 0 m 389 379 l 622 379 l 534 606 q 524 630 530 617 q 514 658 519 644 q 506 683 509 672 q 497 658 502 672 q 487 630 492 644 q 477 606 481 617 l 389 379 m 506 1056 q 366 1089 422 1056 q 282 1176 310 1122 q 253 1293 253 1230 l 397 1293 q 406 1245 397 1269 q 438 1205 415 1221 q 506 1189 462 1189 q 574 1205 550 1189 q 607 1245 598 1221 q 617 1293 617 1269 l 760 1293 q 731 1176 760 1230 q 647 1089 703 1122 q 506 1056 590 1056 m 413 1319 l 610 1536 l 841 1536 l 594 1319 l 413 1319 z "},"Ặ":{"ha":1013,"x_min":32,"x_max":981,"o":"m 32 0 l 411 972 l 601 972 l 981 0 l 764 0 l 690 195 l 322 195 l 249 0 l 32 0 m 389 379 l 622 379 l 534 606 q 524 630 530 617 q 514 658 519 644 q 506 683 509 672 q 497 658 502 672 q 487 630 492 644 q 477 606 481 617 l 389 379 m 507 -304 q 432 -274 462 -304 q 402 -199 402 -243 q 432 -124 402 -153 q 507 -94 462 -94 q 581 -124 551 -94 q 611 -199 611 -153 q 581 -274 611 -243 q 507 -304 551 -304 m 506 1056 q 366 1089 422 1056 q 282 1176 310 1122 q 253 1293 253 1230 l 397 1293 q 406 1245 397 1269 q 438 1205 415 1221 q 506 1189 462 1189 q 574 1205 550 1189 q 607 1245 598 1221 q 617 1293 617 1269 l 760 1293 q 731 1176 760 1230 q 647 1089 703 1122 q 506 1056 590 1056 z "},"Ằ":{"ha":1013,"x_min":32,"x_max":981,"o":"m 32 0 l 411 972 l 601 972 l 981 0 l 764 0 l 690 195 l 322 195 l 249 0 l 32 0 m 389 379 l 622 379 l 534 606 q 524 630 530 617 q 514 658 519 644 q 506 683 509 672 q 497 658 502 672 q 487 630 492 644 q 477 606 481 617 l 389 379 m 506 1056 q 366 1089 422 1056 q 282 1176 310 1122 q 253 1293 253 1230 l 397 1293 q 406 1245 397 1269 q 438 1205 415 1221 q 506 1189 462 1189 q 574 1205 550 1189 q 607 1245 598 1221 q 617 1293 617 1269 l 760 1293 q 731 1176 760 1230 q 647 1089 703 1122 q 506 1056 590 1056 m 420 1319 l 173 1536 l 404 1536 l 601 1319 l 420 1319 z "},"Ẳ":{"ha":1013,"x_min":32,"x_max":981,"o":"m 32 0 l 411 972 l 601 972 l 981 0 l 764 0 l 690 195 l 322 195 l 249 0 l 32 0 m 389 379 l 622 379 l 534 606 q 524 630 530 617 q 514 658 519 644 q 506 683 509 672 q 497 658 502 672 q 487 630 492 644 q 477 606 481 617 l 389 379 m 506 1056 q 366 1089 422 1056 q 282 1176 310 1122 q 253 1293 253 1230 l 397 1293 q 406 1245 397 1269 q 438 1205 415 1221 q 506 1189 462 1189 q 574 1205 550 1189 q 607 1245 598 1221 q 617 1293 617 1269 l 760 1293 q 731 1176 760 1230 q 647 1089 703 1122 q 506 1056 590 1056 m 444 1292 q 456 1353 444 1327 q 496 1403 467 1380 q 517 1420 510 1413 q 523 1435 523 1427 q 504 1451 523 1451 q 456 1414 479 1451 l 373 1466 q 425 1537 387 1510 q 511 1564 463 1564 q 605 1530 567 1564 q 642 1443 642 1496 q 626 1379 642 1401 q 594 1341 610 1357 q 574 1316 580 1328 q 568 1292 568 1305 l 444 1292 z "},"Ẵ":{"ha":1013,"x_min":32,"x_max":981,"o":"m 32 0 l 411 972 l 601 972 l 981 0 l 764 0 l 690 195 l 322 195 l 249 0 l 32 0 m 389 379 l 622 379 l 534 606 q 524 630 530 617 q 514 658 519 644 q 506 683 509 672 q 497 658 502 672 q 487 630 492 644 q 477 606 481 617 l 389 379 m 506 1056 q 366 1089 422 1056 q 282 1176 310 1122 q 253 1293 253 1230 l 397 1293 q 406 1245 397 1269 q 438 1205 415 1221 q 506 1189 462 1189 q 574 1205 550 1189 q 607 1245 598 1221 q 617 1293 617 1269 l 760 1293 q 731 1176 760 1230 q 647 1089 703 1122 q 506 1056 590 1056 m 617 1365 q 545 1377 578 1365 q 484 1401 513 1388 q 436 1420 460 1412 q 388 1429 413 1429 q 343 1416 363 1429 q 323 1371 323 1403 l 233 1371 q 249 1469 233 1426 q 301 1539 265 1513 q 398 1564 337 1564 q 469 1553 437 1564 q 529 1530 501 1543 q 578 1510 553 1519 q 627 1501 602 1501 q 673 1514 653 1501 q 692 1558 692 1526 l 780 1558 q 765 1461 780 1505 q 714 1391 749 1417 q 617 1365 678 1365 z "},"Ǎ":{"ha":1013,"x_min":32,"x_max":981,"o":"m 32 0 l 411 972 l 601 972 l 981 0 l 764 0 l 690 195 l 322 195 l 249 0 l 32 0 m 389 379 l 622 379 l 534 606 q 524 630 530 617 q 514 658 519 644 q 506 683 509 672 q 497 658 502 672 q 487 630 492 644 q 477 606 481 617 l 389 379 m 416 1063 l 219 1279 l 392 1279 l 506 1186 l 620 1279 l 792 1279 l 594 1063 l 416 1063 z "},"Â":{"ha":1013,"x_min":32,"x_max":981,"o":"m 32 0 l 411 972 l 601 972 l 981 0 l 764 0 l 690 195 l 322 195 l 249 0 l 32 0 m 389 379 l 622 379 l 534 606 q 524 630 530 617 q 514 658 519 644 q 506 683 509 672 q 497 658 502 672 q 487 630 492 644 q 477 606 481 617 l 389 379 m 220 1063 l 419 1279 l 597 1279 l 794 1063 l 622 1063 l 508 1156 l 393 1063 l 220 1063 z "},"Ấ":{"ha":1013,"x_min":32,"x_max":1100,"o":"m 32 0 l 411 972 l 601 972 l 981 0 l 764 0 l 690 195 l 322 195 l 249 0 l 32 0 m 389 379 l 622 379 l 534 606 q 524 630 530 617 q 514 658 519 644 q 506 683 509 672 q 497 658 502 672 q 487 630 492 644 q 477 606 481 617 l 389 379 m 220 1063 l 419 1279 l 597 1279 l 794 1063 l 622 1063 l 508 1156 l 393 1063 l 220 1063 m 672 1257 l 869 1474 l 1100 1474 l 853 1257 l 672 1257 z "},"Ậ":{"ha":1013,"x_min":32,"x_max":981,"o":"m 32 0 l 411 972 l 601 972 l 981 0 l 764 0 l 690 195 l 322 195 l 249 0 l 32 0 m 389 379 l 622 379 l 534 606 q 524 630 530 617 q 514 658 519 644 q 506 683 509 672 q 497 658 502 672 q 487 630 492 644 q 477 606 481 617 l 389 379 m 507 -304 q 432 -274 462 -304 q 402 -199 402 -243 q 432 -124 402 -153 q 507 -94 462 -94 q 581 -124 551 -94 q 611 -199 611 -153 q 581 -274 611 -243 q 507 -304 551 -304 m 220 1063 l 419 1279 l 597 1279 l 794 1063 l 622 1063 l 508 1156 l 393 1063 l 220 1063 z "},"Ầ":{"ha":1013,"x_min":32,"x_max":981,"o":"m 32 0 l 411 972 l 601 972 l 981 0 l 764 0 l 690 195 l 322 195 l 249 0 l 32 0 m 389 379 l 622 379 l 534 606 q 524 630 530 617 q 514 658 519 644 q 506 683 509 672 q 497 658 502 672 q 487 630 492 644 q 477 606 481 617 l 389 379 m 220 1063 l 419 1279 l 597 1279 l 794 1063 l 622 1063 l 508 1156 l 393 1063 l 220 1063 m 730 1257 l 483 1474 l 714 1474 l 911 1257 l 730 1257 z "},"Ẩ":{"ha":1013,"x_min":32,"x_max":981,"o":"m 32 0 l 411 972 l 601 972 l 981 0 l 764 0 l 690 195 l 322 195 l 249 0 l 32 0 m 389 379 l 622 379 l 534 606 q 524 630 530 617 q 514 658 519 644 q 506 683 509 672 q 497 658 502 672 q 487 630 492 644 q 477 606 481 617 l 389 379 m 220 1063 l 419 1279 l 597 1279 l 794 1063 l 622 1063 l 508 1156 l 393 1063 l 220 1063 m 444 1333 q 455 1395 444 1369 q 495 1444 466 1422 q 516 1462 510 1455 q 522 1476 522 1469 q 503 1493 522 1493 q 455 1456 478 1493 l 372 1508 q 424 1579 386 1552 q 510 1606 463 1606 q 604 1572 567 1606 q 641 1485 641 1538 q 625 1421 641 1443 q 593 1383 610 1399 q 573 1358 579 1369 q 567 1333 567 1347 l 444 1333 z "},"Ẫ":{"ha":1013,"x_min":32,"x_max":981,"o":"m 32 0 l 411 972 l 601 972 l 981 0 l 764 0 l 690 195 l 322 195 l 249 0 l 32 0 m 389 379 l 622 379 l 534 606 q 524 630 530 617 q 514 658 519 644 q 506 683 509 672 q 497 658 502 672 q 487 630 492 644 q 477 606 481 617 l 389 379 m 220 1063 l 419 1279 l 597 1279 l 794 1063 l 622 1063 l 508 1156 l 393 1063 l 220 1063 m 617 1351 q 545 1363 578 1351 q 484 1387 513 1374 q 436 1407 460 1398 q 388 1415 413 1415 q 343 1402 363 1415 q 323 1357 323 1390 l 233 1357 q 249 1456 233 1412 q 301 1525 265 1499 q 398 1550 337 1550 q 469 1540 437 1550 q 529 1516 501 1529 q 578 1496 553 1505 q 627 1488 602 1488 q 673 1500 653 1488 q 692 1544 692 1512 l 780 1544 q 765 1447 780 1491 q 714 1377 749 1403 q 617 1351 678 1351 z "},"Ȁ":{"ha":1013,"x_min":17,"x_max":981,"o":"m 32 0 l 411 972 l 601 972 l 981 0 l 764 0 l 690 195 l 322 195 l 249 0 l 32 0 m 389 379 l 622 379 l 534 606 q 524 630 530 617 q 514 658 519 644 q 506 683 509 672 q 497 658 502 672 q 487 630 492 644 q 477 606 481 617 l 389 379 m 265 1063 l 17 1279 l 249 1279 l 446 1063 l 265 1063 m 574 1063 l 327 1279 l 558 1279 l 756 1063 l 574 1063 z "},"Ä":{"ha":1013,"x_min":32,"x_max":981,"o":"m 32 0 l 411 972 l 601 972 l 981 0 l 764 0 l 690 195 l 322 195 l 249 0 l 32 0 m 389 379 l 622 379 l 534 606 q 524 630 530 617 q 514 658 519 644 q 506 683 509 672 q 497 658 502 672 q 487 630 492 644 q 477 606 481 617 l 389 379 m 649 1067 q 573 1096 603 1067 q 544 1171 544 1126 q 573 1245 544 1216 q 649 1275 603 1275 q 723 1245 693 1275 q 753 1171 753 1216 q 723 1096 753 1126 q 649 1067 693 1067 m 363 1067 q 288 1096 317 1067 q 258 1171 258 1126 q 288 1245 258 1216 q 363 1275 317 1275 q 438 1245 408 1275 q 468 1171 468 1216 q 438 1096 468 1126 q 363 1067 408 1067 z "},"Ǟ":{"ha":1013,"x_min":32,"x_max":981,"o":"m 32 0 l 411 972 l 601 972 l 981 0 l 764 0 l 690 195 l 322 195 l 249 0 l 32 0 m 389 379 l 622 379 l 534 606 q 524 630 530 617 q 514 658 519 644 q 506 683 509 672 q 497 658 502 672 q 487 630 492 644 q 477 606 481 617 l 389 379 m 649 1067 q 573 1096 603 1067 q 544 1171 544 1126 q 573 1245 544 1216 q 649 1275 603 1275 q 723 1245 693 1275 q 753 1171 753 1216 q 723 1096 753 1126 q 649 1067 693 1067 m 363 1067 q 288 1096 317 1067 q 258 1171 258 1126 q 288 1245 258 1216 q 363 1275 317 1275 q 438 1245 408 1275 q 468 1171 468 1216 q 438 1096 468 1126 q 363 1067 408 1067 m 278 1377 l 278 1532 l 736 1532 l 736 1377 l 278 1377 z "},"Ȧ":{"ha":1013,"x_min":32,"x_max":981,"o":"m 32 0 l 411 972 l 601 972 l 981 0 l 764 0 l 690 195 l 322 195 l 249 0 l 32 0 m 389 379 l 622 379 l 534 606 q 524 630 530 617 q 514 658 519 644 q 506 683 509 672 q 497 658 502 672 q 487 630 492 644 q 477 606 481 617 l 389 379 m 507 1057 q 428 1090 461 1057 q 396 1167 396 1122 q 428 1245 396 1213 q 507 1276 461 1276 q 586 1245 554 1276 q 617 1167 617 1213 q 586 1090 617 1122 q 507 1057 554 1057 z "},"Ạ":{"ha":1013,"x_min":32,"x_max":981,"o":"m 32 0 l 411 972 l 601 972 l 981 0 l 764 0 l 690 195 l 322 195 l 249 0 l 32 0 m 389 379 l 622 379 l 534 606 q 524 630 530 617 q 514 658 519 644 q 506 683 509 672 q 497 658 502 672 q 487 630 492 644 q 477 606 481 617 l 389 379 m 507 -304 q 432 -274 462 -304 q 402 -199 402 -243 q 432 -124 402 -153 q 507 -94 462 -94 q 581 -124 551 -94 q 611 -199 611 -153 q 581 -274 611 -243 q 507 -304 551 -304 z "},"Ǡ":{"ha":1013,"x_min":32,"x_max":981,"o":"m 32 0 l 411 972 l 601 972 l 981 0 l 764 0 l 690 195 l 322 195 l 249 0 l 32 0 m 389 379 l 622 379 l 534 606 q 524 630 530 617 q 514 658 519 644 q 506 683 509 672 q 497 658 502 672 q 487 630 492 644 q 477 606 481 617 l 389 379 m 507 1057 q 428 1090 461 1057 q 396 1167 396 1122 q 428 1245 396 1213 q 507 1276 461 1276 q 586 1245 554 1276 q 617 1167 617 1213 q 586 1090 617 1122 q 507 1057 554 1057 m 278 1378 l 278 1533 l 736 1533 l 736 1378 l 278 1378 z "},"À":{"ha":1013,"x_min":32,"x_max":981,"o":"m 32 0 l 411 972 l 601 972 l 981 0 l 764 0 l 690 195 l 322 195 l 249 0 l 32 0 m 389 379 l 622 379 l 534 606 q 524 630 530 617 q 514 658 519 644 q 506 683 509 672 q 497 658 502 672 q 487 630 492 644 q 477 606 481 617 l 389 379 m 448 1063 l 201 1279 l 432 1279 l 629 1063 l 448 1063 z "},"Ả":{"ha":1013,"x_min":32,"x_max":981,"o":"m 32 0 l 411 972 l 601 972 l 981 0 l 764 0 l 690 195 l 322 195 l 249 0 l 32 0 m 389 379 l 622 379 l 534 606 q 524 630 530 617 q 514 658 519 644 q 506 683 509 672 q 497 658 502 672 q 487 630 492 644 q 477 606 481 617 l 389 379 m 444 1026 q 455 1088 444 1062 q 495 1138 466 1115 q 516 1155 510 1148 q 522 1169 522 1162 q 503 1186 522 1186 q 455 1149 478 1186 l 372 1201 q 424 1272 386 1245 q 510 1299 463 1299 q 604 1265 567 1299 q 641 1178 641 1231 q 625 1114 641 1136 q 593 1076 610 1092 q 573 1051 579 1063 q 567 1026 567 1040 l 444 1026 z "},"Ȃ":{"ha":1013,"x_min":32,"x_max":981,"o":"m 32 0 l 411 972 l 601 972 l 981 0 l 764 0 l 690 195 l 322 195 l 249 0 l 32 0 m 389 379 l 622 379 l 534 606 q 524 630 530 617 q 514 658 519 644 q 506 683 509 672 q 497 658 502 672 q 487 630 492 644 q 477 606 481 617 l 389 379 m 253 1056 q 282 1173 253 1119 q 366 1260 310 1227 q 508 1293 423 1293 q 639 1264 587 1293 q 720 1186 691 1235 q 758 1081 749 1138 q 760 1068 760 1075 q 760 1056 760 1062 l 617 1056 q 616 1068 617 1062 q 614 1081 616 1075 q 582 1136 606 1112 q 508 1160 558 1160 q 442 1144 466 1160 q 407 1104 417 1128 q 397 1056 397 1080 l 253 1056 z "},"Ɑ":{"ha":1010,"x_min":72,"x_max":901,"o":"m 489 -17 q 297 27 376 -17 q 168 145 217 72 q 95 307 118 218 q 72 486 72 396 q 95 665 72 576 q 168 827 118 754 q 297 945 217 901 q 489 989 376 989 q 618 965 563 989 q 701 902 673 942 l 701 972 l 901 972 l 901 0 l 701 0 l 701 70 q 616 7 669 30 q 489 -17 563 -17 m 514 176 q 589 184 554 176 q 651 208 623 192 q 701 244 680 223 l 701 729 q 655 765 683 749 q 594 789 628 780 q 519 797 560 797 q 403 768 450 797 q 330 693 357 740 q 291 592 302 647 q 279 486 279 537 q 291 378 279 433 q 330 278 303 324 q 402 204 357 232 q 514 176 447 176 z "},"Ā":{"ha":1013,"x_min":32,"x_max":981,"o":"m 32 0 l 411 972 l 601 972 l 981 0 l 764 0 l 690 195 l 322 195 l 249 0 l 32 0 m 389 379 l 622 379 l 534 606 q 524 630 530 617 q 514 658 519 644 q 506 683 509 672 q 497 658 502 672 q 487 630 492 644 q 477 606 481 617 l 389 379 m 278 1074 l 278 1229 l 736 1229 l 736 1074 l 278 1074 z "},"Ą":{"ha":1013,"x_min":32,"x_max":981,"o":"m 787 -342 q 661 -299 708 -342 q 614 -189 614 -256 q 654 -79 614 -127 q 764 0 694 -31 l 689 195 l 322 195 l 249 0 l 32 0 l 411 972 l 601 972 l 981 0 q 866 -29 914 -3 q 793 -95 818 -56 q 768 -173 768 -134 q 783 -217 768 -204 q 815 -231 798 -231 q 848 -223 833 -231 q 871 -203 862 -215 l 958 -265 q 923 -298 944 -281 q 868 -329 901 -316 q 787 -342 835 -342 m 389 379 l 622 379 l 534 606 q 524 630 530 617 q 514 658 519 644 q 506 683 509 672 q 497 658 502 672 q 487 630 492 644 q 477 606 481 617 l 389 379 z "},"Å":{"ha":1013,"x_min":32,"x_max":981,"o":"m 32 0 l 386 906 q 341 965 359 929 q 324 1040 324 1001 q 349 1131 324 1090 q 415 1196 374 1172 q 507 1220 457 1220 q 597 1196 556 1220 q 665 1131 639 1172 q 690 1040 690 1090 q 674 965 690 1001 q 626 904 657 928 l 981 0 l 764 0 l 690 195 l 322 195 l 249 0 l 32 0 m 389 379 l 624 379 l 535 606 q 524 633 530 619 q 514 663 519 648 q 506 690 509 678 q 498 663 503 678 q 488 633 493 648 q 477 606 482 619 l 389 379 m 507 986 q 543 1002 528 986 q 558 1040 558 1017 q 543 1078 558 1063 q 507 1094 528 1094 q 468 1078 483 1094 q 454 1040 454 1063 q 468 1002 454 1017 q 507 986 483 986 z "},"Ǻ":{"ha":1013,"x_min":32,"x_max":981,"o":"m 32 0 l 386 906 q 341 965 359 929 q 324 1040 324 1001 q 349 1131 324 1090 q 415 1196 374 1172 q 507 1220 457 1220 q 597 1196 556 1220 q 665 1131 639 1172 q 690 1040 690 1090 q 674 965 690 1001 q 626 904 657 928 l 981 0 l 764 0 l 690 195 l 322 195 l 249 0 l 32 0 m 389 379 l 624 379 l 535 606 q 524 633 530 619 q 514 663 519 648 q 506 690 509 678 q 498 663 503 678 q 488 633 493 648 q 477 606 482 619 l 389 379 m 507 986 q 543 1002 528 986 q 558 1040 558 1017 q 543 1078 558 1063 q 507 1094 528 1094 q 468 1078 483 1094 q 454 1040 454 1063 q 468 1002 454 1017 q 507 986 483 986 m 418 1258 l 615 1475 l 847 1475 l 599 1258 l 418 1258 z "},"Ã":{"ha":1013,"x_min":32,"x_max":981,"o":"m 32 0 l 411 972 l 601 972 l 981 0 l 764 0 l 690 195 l 322 195 l 249 0 l 32 0 m 389 379 l 622 379 l 534 606 q 524 630 530 617 q 514 658 519 644 q 506 683 509 672 q 497 658 502 672 q 487 630 492 644 q 477 606 481 617 l 389 379 m 617 1072 q 544 1084 577 1072 q 483 1108 512 1095 q 435 1127 459 1119 q 388 1136 412 1136 q 342 1123 362 1136 q 322 1078 322 1110 l 233 1078 q 248 1176 233 1133 q 300 1245 264 1220 q 397 1271 336 1271 q 468 1260 436 1271 q 528 1237 500 1250 q 577 1217 553 1226 q 626 1208 601 1208 q 672 1220 653 1208 q 692 1265 691 1233 l 779 1265 q 764 1168 779 1212 q 713 1098 749 1124 q 617 1072 677 1072 z "},"Æ":{"ha":1281,"x_min":-33,"x_max":1223,"o":"m -33 0 l 531 972 l 1194 972 l 1194 783 l 763 783 l 763 597 l 990 597 l 990 407 l 763 407 l 763 191 l 1223 191 l 1223 0 l 563 0 l 563 195 l 293 195 l 183 0 l -33 0 m 401 379 l 563 379 l 563 673 q 551 644 560 663 q 530 605 542 625 q 510 569 518 584 l 401 379 z "},"Ǽ":{"ha":1281,"x_min":-33,"x_max":1223,"o":"m -33 0 l 531 972 l 1194 972 l 1194 783 l 763 783 l 763 597 l 990 597 l 990 407 l 763 407 l 763 191 l 1223 191 l 1223 0 l 563 0 l 563 195 l 293 195 l 183 0 l -33 0 m 401 379 l 563 379 l 563 673 q 551 644 560 663 q 530 605 542 625 q 510 569 518 584 l 401 379 m 590 1063 l 788 1279 l 1019 1279 l 772 1063 l 590 1063 z "},"Ǣ":{"ha":1281,"x_min":-33,"x_max":1223,"o":"m -33 0 l 531 972 l 1194 972 l 1194 783 l 763 783 l 763 597 l 990 597 l 990 407 l 763 407 l 763 191 l 1223 191 l 1223 0 l 563 0 l 563 195 l 293 195 l 183 0 l -33 0 m 401 379 l 563 379 l 563 673 q 551 644 560 663 q 530 605 542 625 q 510 569 518 584 l 401 379 m 515 1074 l 515 1229 l 974 1229 l 974 1074 l 515 1074 z "},"B":{"ha":974,"x_min":108,"x_max":903,"o":"m 108 0 l 108 972 l 553 972 q 742 934 672 972 q 841 836 812 896 q 871 710 871 776 q 845 591 871 644 q 757 508 820 537 q 841 453 809 489 q 889 374 874 418 q 903 289 903 331 q 886 185 903 237 q 830 92 868 134 q 727 25 791 51 q 572 0 664 0 l 108 0 m 308 188 l 582 188 q 655 204 628 188 q 691 245 681 221 q 702 292 702 269 q 690 348 702 321 q 643 392 677 374 q 543 409 609 409 l 308 409 l 308 188 m 308 589 l 531 589 q 635 616 602 589 q 668 688 668 643 q 660 734 668 712 q 628 771 652 756 q 556 786 603 786 l 308 786 l 308 589 z "},"Ḅ":{"ha":974,"x_min":108,"x_max":903,"o":"m 108 0 l 108 972 l 553 972 q 742 934 672 972 q 841 836 812 896 q 871 710 871 776 q 845 591 871 644 q 757 508 820 537 q 841 453 809 489 q 889 374 874 418 q 903 289 903 331 q 886 185 903 237 q 830 92 868 134 q 727 25 791 51 q 572 0 664 0 l 108 0 m 308 188 l 582 188 q 655 204 628 188 q 691 245 681 221 q 702 292 702 269 q 690 348 702 321 q 643 392 677 374 q 543 409 609 409 l 308 409 l 308 188 m 308 589 l 531 589 q 635 616 602 589 q 668 688 668 643 q 660 734 668 712 q 628 771 652 756 q 556 786 603 786 l 308 786 l 308 589 m 491 -304 q 416 -274 446 -304 q 386 -199 386 -243 q 416 -124 386 -153 q 491 -94 446 -94 q 565 -124 535 -94 q 595 -199 595 -153 q 565 -274 595 -243 q 491 -304 535 -304 z "},"Ɓ":{"ha":1227,"x_min":-9,"x_max":1156,"o":"m 179 585 l -9 681 q 39 838 3 773 q 145 938 75 903 q 329 972 215 972 l 547 972 l 547 786 l 337 786 q 222 738 254 786 q 179 585 190 689 m 361 0 l 361 972 l 806 972 q 995 934 926 972 q 1094 836 1065 896 q 1124 710 1124 776 q 1099 591 1124 644 q 1010 508 1073 537 q 1094 453 1062 489 q 1141 374 1126 418 q 1156 289 1156 331 q 1139 185 1156 237 q 1083 92 1122 134 q 980 25 1044 51 q 824 0 917 0 l 361 0 m 561 188 l 835 188 q 907 204 881 188 q 944 245 933 221 q 955 292 955 269 q 942 348 955 321 q 896 392 930 374 q 797 409 862 409 l 561 409 l 561 188 m 561 589 l 784 589 q 888 616 855 589 q 922 688 922 643 q 913 734 922 712 q 881 771 905 756 q 808 786 856 786 l 561 786 l 561 589 z "},"Ƀ":{"ha":985,"x_min":6,"x_max":915,"o":"m 6 248 l 6 349 l 474 349 l 474 248 l 6 248 m 119 0 l 119 972 l 564 972 q 753 934 683 972 q 852 836 823 896 q 882 710 882 776 q 857 591 882 644 q 768 508 831 537 q 852 453 820 489 q 900 374 885 418 q 915 289 915 331 q 897 185 915 237 q 841 92 879 134 q 739 25 802 51 q 583 0 675 0 l 119 0 m 319 188 l 593 188 q 666 204 640 188 q 702 245 692 221 q 713 292 713 269 q 701 348 713 321 q 654 392 688 374 q 554 409 620 409 l 319 409 l 319 188 m 319 589 l 542 589 q 646 616 613 589 q 679 688 679 643 q 671 734 679 712 q 639 771 663 756 q 567 786 615 786 l 319 786 l 319 589 z "},"C":{"ha":883,"x_min":72,"x_max":835,"o":"m 482 -15 q 289 29 367 -15 q 163 145 210 73 q 93 307 115 218 q 72 486 72 395 q 94 659 72 571 q 164 822 116 747 q 290 943 212 897 q 482 989 369 989 q 644 956 574 989 q 761 872 715 924 q 832 763 808 820 l 654 682 q 606 744 630 718 q 551 783 581 769 q 482 797 522 797 q 385 769 424 797 q 323 694 347 740 q 290 593 300 647 q 279 486 279 538 q 291 377 279 432 q 327 277 303 322 q 390 205 351 232 q 482 177 428 177 q 578 212 538 177 q 653 302 619 247 l 835 233 q 753 106 801 162 q 637 17 704 49 q 482 -15 570 -15 z "},"Ć":{"ha":883,"x_min":72,"x_max":835,"o":"m 482 -15 q 289 29 367 -15 q 163 145 210 73 q 93 307 115 218 q 72 486 72 395 q 94 659 72 571 q 164 822 116 747 q 290 943 212 897 q 482 989 369 989 q 644 956 574 989 q 761 872 715 924 q 832 763 808 820 l 654 682 q 606 744 630 718 q 551 783 581 769 q 482 797 522 797 q 385 769 424 797 q 323 694 347 740 q 290 593 300 647 q 279 486 279 538 q 291 377 279 432 q 327 277 303 322 q 390 205 351 232 q 482 177 428 177 q 578 212 538 177 q 653 302 619 247 l 835 233 q 753 106 801 162 q 637 17 704 49 q 482 -15 570 -15 m 330 1063 l 527 1279 l 758 1279 l 511 1063 l 330 1063 z "},"Č":{"ha":883,"x_min":72,"x_max":835,"o":"m 482 -15 q 289 29 367 -15 q 163 145 210 73 q 93 307 115 218 q 72 486 72 395 q 94 659 72 571 q 164 822 116 747 q 290 943 212 897 q 482 989 369 989 q 644 956 574 989 q 761 872 715 924 q 832 763 808 820 l 654 682 q 606 744 630 718 q 551 783 581 769 q 482 797 522 797 q 385 769 424 797 q 323 694 347 740 q 290 593 300 647 q 279 486 279 538 q 291 377 279 432 q 327 277 303 322 q 390 205 351 232 q 482 177 428 177 q 578 212 538 177 q 653 302 619 247 l 835 233 q 753 106 801 162 q 637 17 704 49 q 482 -15 570 -15 m 393 1063 l 196 1279 l 369 1279 l 483 1186 l 597 1279 l 769 1279 l 572 1063 l 393 1063 z "},"Ç":{"ha":883,"x_min":72,"x_max":835,"o":"m 482 -15 q 289 29 367 -15 q 163 145 210 73 q 93 307 115 218 q 72 486 72 395 q 94 659 72 571 q 164 822 116 747 q 290 943 212 897 q 482 989 369 989 q 644 956 574 989 q 761 872 715 924 q 832 763 808 820 l 654 682 q 606 744 630 718 q 551 783 581 769 q 482 797 522 797 q 385 769 424 797 q 323 694 347 740 q 290 593 300 647 q 279 486 279 538 q 291 377 279 432 q 327 277 303 322 q 390 205 351 232 q 482 177 428 177 q 578 212 538 177 q 653 302 619 247 l 835 233 q 753 106 801 162 q 637 17 704 49 q 482 -15 570 -15 m 464 -342 q 366 -322 403 -342 q 307 -272 328 -301 l 387 -212 q 410 -232 395 -224 q 445 -240 426 -240 q 494 -226 477 -240 q 510 -187 510 -212 q 494 -149 510 -162 q 444 -135 477 -135 q 413 -141 428 -135 q 384 -156 398 -147 l 343 -107 l 427 0 l 533 0 l 499 -62 q 618 -98 580 -62 q 656 -189 656 -134 q 607 -298 656 -255 q 464 -342 557 -342 z "},"Ĉ":{"ha":883,"x_min":72,"x_max":835,"o":"m 482 -15 q 289 29 367 -15 q 163 145 210 73 q 93 307 115 218 q 72 486 72 395 q 94 659 72 571 q 164 822 116 747 q 290 943 212 897 q 482 989 369 989 q 644 956 574 989 q 761 872 715 924 q 832 763 808 820 l 654 682 q 606 744 630 718 q 551 783 581 769 q 482 797 522 797 q 385 769 424 797 q 323 694 347 740 q 290 593 300 647 q 279 486 279 538 q 291 377 279 432 q 327 277 303 322 q 390 205 351 232 q 482 177 428 177 q 578 212 538 177 q 653 302 619 247 l 835 233 q 753 106 801 162 q 637 17 704 49 q 482 -15 570 -15 m 197 1063 l 396 1279 l 574 1279 l 772 1063 l 599 1063 l 485 1156 l 370 1063 l 197 1063 z "},"Ċ":{"ha":883,"x_min":72,"x_max":835,"o":"m 482 -15 q 289 29 367 -15 q 163 145 210 73 q 93 307 115 218 q 72 486 72 395 q 94 659 72 571 q 164 822 116 747 q 290 943 212 897 q 482 989 369 989 q 644 956 574 989 q 761 872 715 924 q 832 763 808 820 l 654 682 q 606 744 630 718 q 551 783 581 769 q 482 797 522 797 q 385 769 424 797 q 323 694 347 740 q 290 593 300 647 q 279 486 279 538 q 291 377 279 432 q 327 277 303 322 q 390 205 351 232 q 482 177 428 177 q 578 212 538 177 q 653 302 619 247 l 835 233 q 753 106 801 162 q 637 17 704 49 q 482 -15 570 -15 m 485 1057 q 406 1090 439 1057 q 374 1167 374 1122 q 406 1245 374 1213 q 485 1276 439 1276 q 564 1245 532 1276 q 595 1167 595 1213 q 564 1090 595 1122 q 485 1057 532 1057 z "},"Ƈ":{"ha":1026,"x_min":72,"x_max":1031,"o":"m 633 763 l 633 785 q 710 1012 633 935 q 933 1118 787 1090 l 1031 965 q 914 929 957 949 q 851 878 870 910 q 832 792 832 846 l 832 763 l 633 763 m 482 -15 q 289 29 367 -15 q 163 145 210 73 q 93 307 115 218 q 72 486 72 395 q 94 659 72 571 q 164 822 116 747 q 290 943 212 897 q 482 989 369 989 q 644 956 574 989 q 761 872 715 924 q 832 763 808 820 l 654 682 q 606 744 630 718 q 551 783 581 769 q 482 797 522 797 q 385 769 424 797 q 323 694 347 740 q 290 593 300 647 q 279 486 279 538 q 291 377 279 432 q 327 277 303 322 q 390 205 351 232 q 482 177 428 177 q 578 212 538 177 q 653 302 619 247 l 835 233 q 753 106 801 162 q 637 17 704 49 q 482 -15 570 -15 z "},"D":{"ha":999,"x_min":108,"x_max":927,"o":"m 108 0 l 108 972 l 457 972 q 674 931 584 972 q 819 820 763 890 q 901 664 876 751 q 927 486 927 577 q 902 318 927 403 q 823 160 878 233 q 676 44 767 88 q 451 0 585 0 l 108 0 m 308 190 l 471 190 q 587 217 540 190 q 664 287 635 243 q 707 383 693 331 q 720 486 720 435 q 706 593 720 540 q 664 689 692 646 q 592 758 636 732 q 486 783 547 783 l 308 783 l 308 190 z "},"Ǳ":{"ha":1838,"x_min":108,"x_max":1767,"o":"m 108 0 l 108 972 l 457 972 q 674 931 584 972 q 819 820 763 890 q 901 664 876 751 q 927 486 927 577 q 902 318 927 403 q 823 160 878 233 q 676 44 767 88 q 451 0 585 0 l 108 0 m 308 190 l 471 190 q 587 217 540 190 q 664 287 635 243 q 707 383 693 331 q 720 486 720 435 q 706 593 720 540 q 664 689 692 646 q 592 758 636 732 q 486 783 547 783 l 308 783 l 308 190 m 1015 0 l 1015 149 l 1502 783 l 1044 783 l 1044 972 l 1767 972 l 1767 824 l 1274 189 l 1767 189 l 1767 0 l 1015 0 z "},"Ǆ":{"ha":1838,"x_min":108,"x_max":1767,"o":"m 108 0 l 108 972 l 457 972 q 674 931 584 972 q 819 820 763 890 q 901 664 876 751 q 927 486 927 577 q 902 318 927 403 q 823 160 878 233 q 676 44 767 88 q 451 0 585 0 l 108 0 m 308 190 l 471 190 q 587 217 540 190 q 664 287 635 243 q 707 383 693 331 q 720 486 720 435 q 706 593 720 540 q 664 689 692 646 q 592 758 636 732 q 486 783 547 783 l 308 783 l 308 190 m 1015 0 l 1015 149 l 1502 783 l 1044 783 l 1044 972 l 1767 972 l 1767 824 l 1274 189 l 1767 189 l 1767 0 l 1015 0 m 1331 1063 l 1134 1279 l 1307 1279 l 1422 1186 l 1535 1279 l 1708 1279 l 1510 1063 l 1331 1063 z "},"Ð":{"ha":999,"x_min":-1,"x_max":927,"o":"m -1 393 l -1 579 l 508 579 l 508 393 l -1 393 m 108 0 l 108 972 l 457 972 q 674 931 584 972 q 819 820 763 890 q 901 664 876 751 q 927 486 927 577 q 902 318 927 403 q 823 160 878 233 q 676 44 767 88 q 451 0 585 0 l 108 0 m 308 190 l 471 190 q 587 217 540 190 q 664 287 635 243 q 707 383 693 331 q 720 486 720 435 q 706 593 720 540 q 664 689 692 646 q 592 758 636 732 q 486 783 547 783 l 308 783 l 308 190 z "},"Ď":{"ha":999,"x_min":108,"x_max":927,"o":"m 108 0 l 108 972 l 457 972 q 674 931 584 972 q 819 820 763 890 q 901 664 876 751 q 927 486 927 577 q 902 318 927 403 q 823 160 878 233 q 676 44 767 88 q 451 0 585 0 l 108 0 m 308 190 l 471 190 q 587 217 540 190 q 664 287 635 243 q 707 383 693 331 q 720 486 720 435 q 706 593 720 540 q 664 689 692 646 q 592 758 636 732 q 486 783 547 783 l 308 783 l 308 190 m 363 1063 l 165 1279 l 338 1279 l 453 1186 l 567 1279 l 739 1279 l 541 1063 l 363 1063 z "},"Ḓ":{"ha":999,"x_min":108,"x_max":927,"o":"m 108 0 l 108 972 l 457 972 q 674 931 584 972 q 819 820 763 890 q 901 664 876 751 q 927 486 927 577 q 902 318 927 403 q 823 160 878 233 q 676 44 767 88 q 451 0 585 0 l 108 0 m 308 190 l 471 190 q 587 217 540 190 q 664 287 635 243 q 707 383 693 331 q 720 486 720 435 q 706 593 720 540 q 664 689 692 646 q 592 758 636 732 q 486 783 547 783 l 308 783 l 308 190 m 212 -318 l 410 -101 l 589 -101 l 786 -318 l 613 -318 l 500 -224 l 385 -318 l 212 -318 z "},"Đ":{"ha":999,"x_min":-1,"x_max":927,"o":"m -1 393 l -1 579 l 508 579 l 508 393 l -1 393 m 108 0 l 108 972 l 457 972 q 674 931 584 972 q 819 820 763 890 q 901 664 876 751 q 927 486 927 577 q 902 318 927 403 q 823 160 878 233 q 676 44 767 88 q 451 0 585 0 l 108 0 m 308 190 l 471 190 q 587 217 540 190 q 664 287 635 243 q 707 383 693 331 q 720 486 720 435 q 706 593 720 540 q 664 689 692 646 q 592 758 636 732 q 486 783 547 783 l 308 783 l 308 190 z "},"Ḍ":{"ha":999,"x_min":108,"x_max":927,"o":"m 108 0 l 108 972 l 457 972 q 674 931 584 972 q 819 820 763 890 q 901 664 876 751 q 927 486 927 577 q 902 318 927 403 q 823 160 878 233 q 676 44 767 88 q 451 0 585 0 l 108 0 m 308 190 l 471 190 q 587 217 540 190 q 664 287 635 243 q 707 383 693 331 q 720 486 720 435 q 706 593 720 540 q 664 689 692 646 q 592 758 636 732 q 486 783 547 783 l 308 783 l 308 190 m 500 -304 q 425 -274 455 -304 q 395 -199 395 -243 q 425 -124 395 -153 q 500 -94 455 -94 q 574 -124 544 -94 q 604 -199 604 -153 q 574 -274 604 -243 q 500 -304 544 -304 z "},"Ɗ":{"ha":1252,"x_min":-9,"x_max":1180,"o":"m 179 585 l -9 681 q 39 838 3 773 q 145 938 75 903 q 329 972 215 972 l 547 972 l 547 786 l 337 786 q 222 738 254 786 q 179 585 190 689 m 361 0 l 361 972 l 710 972 q 926 931 837 972 q 1072 820 1016 890 q 1154 664 1128 751 q 1180 486 1180 577 q 1155 318 1180 403 q 1076 160 1131 233 q 930 44 1021 88 q 704 0 838 0 l 361 0 m 561 190 l 724 190 q 840 217 793 190 q 917 287 888 243 q 959 383 946 331 q 973 486 973 435 q 959 593 973 540 q 917 689 946 646 q 845 758 889 732 q 740 783 801 783 l 561 783 l 561 190 z "},"Ḏ":{"ha":999,"x_min":108,"x_max":927,"o":"m 108 0 l 108 972 l 457 972 q 674 931 584 972 q 819 820 763 890 q 901 664 876 751 q 927 486 927 577 q 902 318 927 403 q 823 160 878 233 q 676 44 767 88 q 451 0 585 0 l 108 0 m 308 190 l 471 190 q 587 217 540 190 q 664 287 635 243 q 707 383 693 331 q 720 486 720 435 q 706 593 720 540 q 664 689 692 646 q 592 758 636 732 q 486 783 547 783 l 308 783 l 308 190 m 271 -252 l 271 -97 l 729 -97 l 729 -252 l 271 -252 z "},"Ɖ":{"ha":999,"x_min":-1,"x_max":927,"o":"m -1 393 l -1 579 l 508 579 l 508 393 l -1 393 m 108 0 l 108 972 l 457 972 q 674 931 584 972 q 819 820 763 890 q 901 664 876 751 q 927 486 927 577 q 902 318 927 403 q 823 160 878 233 q 676 44 767 88 q 451 0 585 0 l 108 0 m 308 190 l 471 190 q 587 217 540 190 q 664 287 635 243 q 707 383 693 331 q 720 486 720 435 q 706 593 720 540 q 664 689 692 646 q 592 758 636 732 q 486 783 547 783 l 308 783 l 308 190 z "},"ǲ":{"ha":1747,"x_min":108,"x_max":1662,"o":"m 108 0 l 108 972 l 457 972 q 674 931 584 972 q 819 820 763 890 q 901 664 876 751 q 927 486 927 577 q 902 318 927 403 q 823 160 878 233 q 676 44 767 88 q 451 0 585 0 l 108 0 m 308 190 l 471 190 q 587 217 540 190 q 664 287 635 243 q 707 383 693 331 q 720 486 720 435 q 706 593 720 540 q 664 689 692 646 q 592 758 636 732 q 486 783 547 783 l 308 783 l 308 190 m 1053 0 l 1053 146 l 1415 540 l 1078 540 l 1078 710 l 1662 710 l 1662 568 l 1302 171 l 1660 171 l 1660 0 l 1053 0 z "},"ǅ":{"ha":1772,"x_min":108,"x_max":1690,"o":"m 108 0 l 108 972 l 457 972 q 674 931 584 972 q 819 820 763 890 q 901 664 876 751 q 927 486 927 577 q 902 318 927 403 q 823 160 878 233 q 676 44 767 88 q 451 0 585 0 l 108 0 m 308 190 l 471 190 q 587 217 540 190 q 664 287 635 243 q 707 383 693 331 q 720 486 720 435 q 706 593 720 540 q 664 689 692 646 q 592 758 636 732 q 486 783 547 783 l 308 783 l 308 190 m 1078 0 l 1078 146 l 1440 540 l 1103 540 l 1103 710 l 1687 710 l 1687 568 l 1327 171 l 1685 171 l 1685 0 l 1078 0 m 1313 800 l 1116 1017 l 1289 1017 l 1403 924 l 1517 1017 l 1690 1017 l 1492 800 l 1313 800 z "},"E":{"ha":878,"x_min":108,"x_max":820,"o":"m 108 0 l 108 972 l 792 972 l 792 783 l 308 783 l 308 597 l 584 597 l 584 407 l 308 407 l 308 191 l 820 191 l 820 0 l 108 0 z "},"É":{"ha":878,"x_min":108,"x_max":820,"o":"m 108 0 l 108 972 l 792 972 l 792 783 l 308 783 l 308 597 l 584 597 l 584 407 l 308 407 l 308 191 l 820 191 l 820 0 l 108 0 m 306 1063 l 503 1279 l 735 1279 l 488 1063 l 306 1063 z "},"Ĕ":{"ha":878,"x_min":108,"x_max":820,"o":"m 108 0 l 108 972 l 792 972 l 792 783 l 308 783 l 308 597 l 584 597 l 584 407 l 308 407 l 308 191 l 820 191 l 820 0 l 108 0 m 460 1056 q 319 1089 375 1056 q 235 1176 263 1122 q 207 1293 207 1230 l 350 1293 q 359 1245 350 1269 q 392 1205 368 1221 q 460 1189 415 1189 q 527 1205 503 1189 q 561 1245 551 1221 q 570 1293 570 1269 l 713 1293 q 685 1176 713 1230 q 600 1089 656 1122 q 460 1056 544 1056 z "},"Ě":{"ha":878,"x_min":108,"x_max":820,"o":"m 108 0 l 108 972 l 792 972 l 792 783 l 308 783 l 308 597 l 584 597 l 584 407 l 308 407 l 308 191 l 820 191 l 820 0 l 108 0 m 369 1063 l 172 1279 l 345 1279 l 460 1186 l 574 1279 l 746 1279 l 548 1063 l 369 1063 z "},"Ȩ":{"ha":878,"x_min":108,"x_max":820,"o":"m 108 0 l 108 972 l 792 972 l 792 783 l 308 783 l 308 597 l 584 597 l 584 407 l 308 407 l 308 191 l 820 191 l 820 0 l 108 0 m 422 -342 q 323 -322 361 -342 q 265 -272 285 -301 l 344 -212 q 368 -232 353 -224 q 403 -240 383 -240 q 451 -226 435 -240 q 468 -187 468 -212 q 451 -149 468 -162 q 402 -135 435 -135 q 370 -141 385 -135 q 342 -156 356 -147 l 301 -107 l 385 0 l 490 0 l 456 -62 q 576 -98 538 -62 q 614 -189 614 -134 q 564 -298 614 -255 q 422 -342 515 -342 z "},"Ê":{"ha":878,"x_min":108,"x_max":820,"o":"m 108 0 l 108 972 l 792 972 l 792 783 l 308 783 l 308 597 l 584 597 l 584 407 l 308 407 l 308 191 l 820 191 l 820 0 l 108 0 m 174 1063 l 372 1279 l 551 1279 l 748 1063 l 575 1063 l 462 1156 l 347 1063 l 174 1063 z "},"Ế":{"ha":878,"x_min":108,"x_max":1053,"o":"m 108 0 l 108 972 l 792 972 l 792 783 l 308 783 l 308 597 l 584 597 l 584 407 l 308 407 l 308 191 l 820 191 l 820 0 l 108 0 m 174 1063 l 372 1279 l 551 1279 l 748 1063 l 575 1063 l 462 1156 l 347 1063 l 174 1063 m 625 1257 l 822 1474 l 1053 1474 l 806 1257 l 625 1257 z "},"Ệ":{"ha":878,"x_min":108,"x_max":820,"o":"m 108 0 l 108 972 l 792 972 l 792 783 l 308 783 l 308 597 l 584 597 l 584 407 l 308 407 l 308 191 l 820 191 l 820 0 l 108 0 m 440 -304 q 365 -274 394 -304 q 335 -199 335 -243 q 365 -124 335 -153 q 440 -94 394 -94 q 514 -124 484 -94 q 544 -199 544 -153 q 514 -274 544 -243 q 440 -304 484 -304 m 174 1063 l 372 1279 l 551 1279 l 748 1063 l 575 1063 l 462 1156 l 347 1063 l 174 1063 z "},"Ề":{"ha":878,"x_min":108,"x_max":865,"o":"m 108 0 l 108 972 l 792 972 l 792 783 l 308 783 l 308 597 l 584 597 l 584 407 l 308 407 l 308 191 l 820 191 l 820 0 l 108 0 m 174 1063 l 372 1279 l 551 1279 l 748 1063 l 575 1063 l 462 1156 l 347 1063 l 174 1063 m 683 1257 l 436 1474 l 667 1474 l 865 1257 l 683 1257 z "},"Ể":{"ha":878,"x_min":108,"x_max":820,"o":"m 108 0 l 108 972 l 792 972 l 792 783 l 308 783 l 308 597 l 584 597 l 584 407 l 308 407 l 308 191 l 820 191 l 820 0 l 108 0 m 174 1063 l 372 1279 l 551 1279 l 748 1063 l 575 1063 l 462 1156 l 347 1063 l 174 1063 m 397 1333 q 408 1395 397 1369 q 449 1444 419 1422 q 469 1462 463 1455 q 476 1476 476 1469 q 457 1493 476 1493 q 408 1456 432 1493 l 326 1508 q 378 1579 340 1552 q 464 1606 416 1606 q 557 1572 520 1606 q 594 1485 594 1538 q 579 1421 594 1443 q 547 1383 563 1399 q 527 1358 533 1369 q 521 1333 521 1347 l 397 1333 z "},"Ễ":{"ha":878,"x_min":108,"x_max":820,"o":"m 108 0 l 108 972 l 792 972 l 792 783 l 308 783 l 308 597 l 584 597 l 584 407 l 308 407 l 308 191 l 820 191 l 820 0 l 108 0 m 174 1063 l 372 1279 l 551 1279 l 748 1063 l 575 1063 l 462 1156 l 347 1063 l 174 1063 m 571 1351 q 499 1363 531 1351 q 438 1387 466 1374 q 390 1407 413 1398 q 342 1415 366 1415 q 296 1402 316 1415 q 276 1357 276 1390 l 187 1357 q 202 1456 187 1412 q 254 1525 218 1499 q 351 1550 290 1550 q 422 1540 390 1550 q 483 1516 454 1529 q 531 1496 507 1505 q 581 1488 556 1488 q 626 1500 607 1488 q 646 1544 645 1512 l 733 1544 q 718 1447 733 1491 q 667 1377 703 1403 q 571 1351 631 1351 z "},"Ȅ":{"ha":878,"x_min":-29,"x_max":820,"o":"m 108 0 l 108 972 l 792 972 l 792 783 l 308 783 l 308 597 l 584 597 l 584 407 l 308 407 l 308 191 l 820 191 l 820 0 l 108 0 m 218 1063 l -29 1279 l 202 1279 l 399 1063 l 218 1063 m 528 1063 l 281 1279 l 512 1279 l 709 1063 l 528 1063 z "},"Ë":{"ha":878,"x_min":108,"x_max":820,"o":"m 108 0 l 108 972 l 792 972 l 792 783 l 308 783 l 308 597 l 584 597 l 584 407 l 308 407 l 308 191 l 820 191 l 820 0 l 108 0 m 602 1067 q 527 1096 556 1067 q 497 1171 497 1126 q 527 1245 497 1216 q 602 1275 556 1275 q 676 1245 647 1275 q 706 1171 706 1216 q 676 1096 706 1126 q 602 1067 647 1067 m 316 1067 q 241 1096 271 1067 q 212 1171 212 1126 q 241 1245 212 1216 q 316 1275 271 1275 q 391 1245 361 1275 q 422 1171 422 1216 q 391 1096 422 1126 q 316 1067 361 1067 z "},"Ė":{"ha":878,"x_min":108,"x_max":820,"o":"m 108 0 l 108 972 l 792 972 l 792 783 l 308 783 l 308 597 l 584 597 l 584 407 l 308 407 l 308 191 l 820 191 l 820 0 l 108 0 m 461 1057 q 383 1090 415 1057 q 350 1167 350 1122 q 383 1245 350 1213 q 461 1276 415 1276 q 540 1245 508 1276 q 572 1167 572 1213 q 540 1090 572 1122 q 461 1057 508 1057 z "},"Ẹ":{"ha":878,"x_min":108,"x_max":820,"o":"m 108 0 l 108 972 l 792 972 l 792 783 l 308 783 l 308 597 l 584 597 l 584 407 l 308 407 l 308 191 l 820 191 l 820 0 l 108 0 m 440 -304 q 365 -274 394 -304 q 335 -199 335 -243 q 365 -124 335 -153 q 440 -94 394 -94 q 514 -124 484 -94 q 544 -199 544 -153 q 514 -274 544 -243 q 440 -304 484 -304 z "},"È":{"ha":878,"x_min":108,"x_max":820,"o":"m 108 0 l 108 972 l 792 972 l 792 783 l 308 783 l 308 597 l 584 597 l 584 407 l 308 407 l 308 191 l 820 191 l 820 0 l 108 0 m 401 1063 l 154 1279 l 385 1279 l 583 1063 l 401 1063 z "},"Ẻ":{"ha":878,"x_min":108,"x_max":820,"o":"m 108 0 l 108 972 l 792 972 l 792 783 l 308 783 l 308 597 l 584 597 l 584 407 l 308 407 l 308 191 l 820 191 l 820 0 l 108 0 m 397 1026 q 408 1088 397 1062 q 449 1138 419 1115 q 469 1155 463 1148 q 476 1169 476 1162 q 457 1186 476 1186 q 408 1149 432 1186 l 326 1201 q 378 1272 340 1245 q 464 1299 416 1299 q 557 1265 520 1299 q 594 1178 594 1231 q 579 1114 594 1136 q 547 1076 563 1092 q 527 1051 533 1063 q 521 1026 521 1040 l 397 1026 z "},"Ȇ":{"ha":878,"x_min":108,"x_max":820,"o":"m 108 0 l 108 972 l 792 972 l 792 783 l 308 783 l 308 597 l 584 597 l 584 407 l 308 407 l 308 191 l 820 191 l 820 0 l 108 0 m 207 1056 q 235 1173 207 1119 q 320 1260 263 1227 q 461 1293 376 1293 q 592 1264 540 1293 q 673 1186 644 1235 q 712 1081 702 1138 q 713 1068 713 1075 q 713 1056 713 1062 l 570 1056 q 570 1068 570 1062 q 567 1081 569 1075 q 535 1136 559 1112 q 461 1160 512 1160 q 395 1144 419 1160 q 360 1104 371 1128 q 350 1056 350 1080 l 207 1056 z "},"Ē":{"ha":878,"x_min":108,"x_max":820,"o":"m 108 0 l 108 972 l 792 972 l 792 783 l 308 783 l 308 597 l 584 597 l 584 407 l 308 407 l 308 191 l 820 191 l 820 0 l 108 0 m 231 1074 l 231 1229 l 690 1229 l 690 1074 l 231 1074 z "},"Ę":{"ha":878,"x_min":108,"x_max":820,"o":"m 108 0 l 108 972 l 792 972 l 792 783 l 308 783 l 308 597 l 584 597 l 584 407 l 308 407 l 308 191 l 820 191 l 820 0 l 108 0 m 583 -356 q 459 -313 506 -356 q 411 -203 411 -270 q 462 -81 411 -133 q 601 0 513 -29 l 732 0 q 632 -58 668 -26 q 581 -125 596 -91 q 566 -187 566 -158 q 580 -231 566 -218 q 613 -244 594 -244 q 645 -236 631 -244 q 667 -217 659 -228 l 754 -279 q 695 -329 735 -302 q 583 -356 656 -356 z "},"Ɛ":{"ha":806,"x_min":37,"x_max":784,"o":"m 392 -17 q 207 20 287 -17 q 82 123 127 57 q 37 274 37 188 q 82 424 37 367 q 211 506 127 481 q 109 587 149 528 q 69 718 69 646 q 110 859 69 798 q 226 955 151 920 q 403 989 301 989 q 622 929 531 989 q 756 776 712 869 l 578 706 q 513 774 556 747 q 406 801 469 801 q 308 773 343 801 q 274 695 274 744 q 308 615 274 645 q 409 585 342 585 l 563 585 l 563 397 l 408 397 q 280 366 317 397 q 242 283 242 335 q 284 200 242 228 q 398 172 326 172 q 523 201 472 172 q 608 294 574 231 l 784 222 q 642 49 744 115 q 392 -17 541 -17 z "},"Ǝ":{"ha":878,"x_min":58,"x_max":770,"o":"m 58 0 l 58 191 l 571 191 l 571 407 l 294 407 l 294 597 l 571 597 l 571 783 l 87 783 l 87 972 l 770 972 l 770 0 l 58 0 z "},"Ʃ":{"ha":914,"x_min":78,"x_max":836,"o":"m 78 0 l 78 149 l 348 501 l 98 824 l 98 972 l 816 972 l 816 783 l 363 783 l 579 501 l 338 189 l 836 189 l 836 0 l 78 0 z "},"Ẽ":{"ha":878,"x_min":108,"x_max":820,"o":"m 108 0 l 108 972 l 792 972 l 792 783 l 308 783 l 308 597 l 584 597 l 584 407 l 308 407 l 308 191 l 820 191 l 820 0 l 108 0 m 571 1072 q 499 1084 531 1072 q 438 1108 466 1095 q 390 1127 413 1119 q 342 1136 366 1136 q 296 1123 316 1136 q 276 1078 276 1110 l 187 1078 q 202 1176 187 1133 q 254 1245 218 1220 q 351 1271 290 1271 q 422 1260 390 1271 q 483 1237 454 1250 q 531 1217 507 1226 q 581 1208 556 1208 q 626 1220 607 1208 q 646 1265 645 1233 l 733 1265 q 718 1168 733 1212 q 667 1098 703 1124 q 571 1072 631 1072 z "},"Ʒ":{"ha":851,"x_min":58,"x_max":765,"o":"m 432 -17 q 261 16 335 -17 q 136 103 187 48 q 58 225 85 158 l 235 297 q 318 202 269 234 q 429 169 366 169 q 533 206 498 169 q 568 293 568 242 q 526 382 568 349 q 395 422 483 416 l 274 528 l 496 785 l 100 785 l 100 972 l 744 972 l 744 819 l 509 553 q 701 463 638 534 q 765 283 765 392 q 722 123 765 190 q 604 20 679 56 q 432 -17 528 -17 z "},"Ǯ":{"ha":851,"x_min":58,"x_max":765,"o":"m 432 -17 q 261 16 335 -17 q 136 103 187 48 q 58 225 85 158 l 235 297 q 318 202 269 234 q 429 169 366 169 q 533 206 498 169 q 568 293 568 242 q 526 382 568 349 q 395 422 483 416 l 274 528 l 496 785 l 100 785 l 100 972 l 744 972 l 744 819 l 509 553 q 701 463 638 534 q 765 283 765 392 q 722 123 765 190 q 604 20 679 56 q 432 -17 528 -17 m 341 1063 l 144 1279 l 317 1279 l 431 1186 l 545 1279 l 717 1279 l 519 1063 l 341 1063 z "},"F":{"ha":804,"x_min":108,"x_max":775,"o":"m 108 0 l 108 972 l 775 972 l 775 783 l 308 783 l 308 597 l 604 597 l 604 407 l 308 407 l 308 0 l 108 0 z "},"Ƒ":{"ha":804,"x_min":-90,"x_max":775,"o":"m 108 0 l 108 972 l 775 972 l 775 783 l 308 783 l 308 597 l 604 597 l 604 407 l 308 407 l 308 0 l 108 0 m 8 -342 l -90 -187 q 27 -152 -17 -172 q 89 -101 70 -133 q 108 -16 108 -69 l 108 14 l 308 14 l 308 -8 q 231 -235 308 -158 q 8 -342 154 -313 z "},"G":{"ha":943,"x_min":72,"x_max":861,"o":"m 499 -17 q 306 25 387 -17 q 174 139 225 67 q 97 301 122 211 q 72 486 72 391 q 98 664 72 576 q 175 826 123 753 q 308 944 228 900 q 499 989 389 989 q 659 958 593 989 q 771 878 725 927 q 851 774 817 828 l 676 674 q 602 761 644 724 q 499 799 560 799 q 394 769 436 799 q 326 694 351 740 q 290 592 301 647 q 279 486 279 538 q 292 371 279 427 q 330 271 304 315 q 398 200 356 226 q 499 174 440 174 q 577 193 542 174 q 635 245 613 213 q 656 315 656 277 l 656 326 l 495 326 l 495 517 l 861 517 l 861 369 q 813 158 861 244 q 683 28 765 72 q 499 -17 601 -17 z "},"Ǵ":{"ha":943,"x_min":72,"x_max":861,"o":"m 499 -17 q 306 25 387 -17 q 174 139 225 67 q 97 301 122 211 q 72 486 72 391 q 98 664 72 576 q 175 826 123 753 q 308 944 228 900 q 499 989 389 989 q 659 958 593 989 q 771 878 725 927 q 851 774 817 828 l 676 674 q 602 761 644 724 q 499 799 560 799 q 394 769 436 799 q 326 694 351 740 q 290 592 301 647 q 279 486 279 538 q 292 371 279 427 q 330 271 304 315 q 398 200 356 226 q 499 174 440 174 q 577 193 542 174 q 635 245 613 213 q 656 315 656 277 l 656 326 l 495 326 l 495 517 l 861 517 l 861 369 q 813 158 861 244 q 683 28 765 72 q 499 -17 601 -17 m 347 1063 l 544 1279 l 776 1279 l 528 1063 l 347 1063 z "},"Ğ":{"ha":943,"x_min":72,"x_max":861,"o":"m 499 -17 q 306 25 387 -17 q 174 139 225 67 q 97 301 122 211 q 72 486 72 391 q 98 664 72 576 q 175 826 123 753 q 308 944 228 900 q 499 989 389 989 q 659 958 593 989 q 771 878 725 927 q 851 774 817 828 l 676 674 q 602 761 644 724 q 499 799 560 799 q 394 769 436 799 q 326 694 351 740 q 290 592 301 647 q 279 486 279 538 q 292 371 279 427 q 330 271 304 315 q 398 200 356 226 q 499 174 440 174 q 577 193 542 174 q 635 245 613 213 q 656 315 656 277 l 656 326 l 495 326 l 495 517 l 861 517 l 861 369 q 813 158 861 244 q 683 28 765 72 q 499 -17 601 -17 m 500 1056 q 359 1089 415 1056 q 275 1176 303 1122 q 247 1293 247 1230 l 390 1293 q 399 1245 390 1269 q 432 1205 408 1221 q 500 1189 456 1189 q 568 1205 544 1189 q 601 1245 592 1221 q 610 1293 610 1269 l 753 1293 q 725 1176 753 1230 q 640 1089 697 1122 q 500 1056 584 1056 z "},"Ǧ":{"ha":943,"x_min":72,"x_max":861,"o":"m 499 -17 q 306 25 387 -17 q 174 139 225 67 q 97 301 122 211 q 72 486 72 391 q 98 664 72 576 q 175 826 123 753 q 308 944 228 900 q 499 989 389 989 q 659 958 593 989 q 771 878 725 927 q 851 774 817 828 l 676 674 q 602 761 644 724 q 499 799 560 799 q 394 769 436 799 q 326 694 351 740 q 290 592 301 647 q 279 486 279 538 q 292 371 279 427 q 330 271 304 315 q 398 200 356 226 q 499 174 440 174 q 577 193 542 174 q 635 245 613 213 q 656 315 656 277 l 656 326 l 495 326 l 495 517 l 861 517 l 861 369 q 813 158 861 244 q 683 28 765 72 q 499 -17 601 -17 m 410 1063 l 213 1279 l 386 1279 l 501 1186 l 615 1279 l 787 1279 l 589 1063 l 410 1063 z "},"Ĝ":{"ha":943,"x_min":72,"x_max":861,"o":"m 499 -17 q 306 25 387 -17 q 174 139 225 67 q 97 301 122 211 q 72 486 72 391 q 98 664 72 576 q 175 826 123 753 q 308 944 228 900 q 499 989 389 989 q 659 958 593 989 q 771 878 725 927 q 851 774 817 828 l 676 674 q 602 761 644 724 q 499 799 560 799 q 394 769 436 799 q 326 694 351 740 q 290 592 301 647 q 279 486 279 538 q 292 371 279 427 q 330 271 304 315 q 398 200 356 226 q 499 174 440 174 q 577 193 542 174 q 635 245 613 213 q 656 315 656 277 l 656 326 l 495 326 l 495 517 l 861 517 l 861 369 q 813 158 861 244 q 683 28 765 72 q 499 -17 601 -17 m 215 1063 l 413 1279 l 592 1279 l 789 1063 l 616 1063 l 503 1156 l 388 1063 l 215 1063 z "},"Ģ":{"ha":943,"x_min":72,"x_max":861,"o":"m 499 -17 q 306 25 387 -17 q 174 139 225 67 q 97 301 122 211 q 72 486 72 391 q 98 664 72 576 q 175 826 123 753 q 308 944 228 900 q 499 989 389 989 q 659 958 593 989 q 771 878 725 927 q 851 774 817 828 l 676 674 q 602 761 644 724 q 499 799 560 799 q 394 769 436 799 q 326 694 351 740 q 290 592 301 647 q 279 486 279 538 q 292 371 279 427 q 330 271 304 315 q 398 200 356 226 q 499 174 440 174 q 577 193 542 174 q 635 245 613 213 q 656 315 656 277 l 656 326 l 495 326 l 495 517 l 861 517 l 861 369 q 813 158 861 244 q 683 28 765 72 q 499 -17 601 -17 m 467 -409 l 401 -367 q 444 -316 427 -340 q 469 -262 461 -292 q 408 -234 435 -259 q 381 -162 381 -208 q 411 -87 381 -118 q 491 -57 442 -57 q 568 -87 538 -57 q 598 -174 598 -117 q 563 -298 598 -237 q 467 -409 528 -360 z "},"Ġ":{"ha":943,"x_min":72,"x_max":861,"o":"m 499 -17 q 306 25 387 -17 q 174 139 225 67 q 97 301 122 211 q 72 486 72 391 q 98 664 72 576 q 175 826 123 753 q 308 944 228 900 q 499 989 389 989 q 659 958 593 989 q 771 878 725 927 q 851 774 817 828 l 676 674 q 602 761 644 724 q 499 799 560 799 q 394 769 436 799 q 326 694 351 740 q 290 592 301 647 q 279 486 279 538 q 292 371 279 427 q 330 271 304 315 q 398 200 356 226 q 499 174 440 174 q 577 193 542 174 q 635 245 613 213 q 656 315 656 277 l 656 326 l 495 326 l 495 517 l 861 517 l 861 369 q 813 158 861 244 q 683 28 765 72 q 499 -17 601 -17 m 501 1057 q 423 1090 456 1057 q 390 1167 390 1122 q 423 1245 390 1213 q 501 1276 456 1276 q 580 1245 549 1276 q 612 1167 612 1213 q 580 1090 612 1122 q 501 1057 549 1057 z "},"Ɠ":{"ha":1046,"x_min":72,"x_max":1050,"o":"m 651 774 l 651 796 q 728 1023 651 946 q 951 1129 806 1101 l 1050 975 q 933 940 976 959 q 870 889 889 920 q 851 803 851 857 l 851 774 l 651 774 m 499 -17 q 306 25 387 -17 q 174 139 225 67 q 97 301 122 211 q 72 486 72 391 q 98 664 72 576 q 175 826 123 753 q 308 944 228 900 q 499 989 389 989 q 659 958 593 989 q 771 878 725 927 q 851 774 817 828 l 676 674 q 602 761 644 724 q 499 799 560 799 q 394 769 436 799 q 326 694 351 740 q 290 592 301 647 q 279 486 279 538 q 292 371 279 427 q 330 271 304 315 q 398 200 356 226 q 499 174 440 174 q 577 193 542 174 q 635 245 613 213 q 656 315 656 277 l 656 326 l 495 326 l 495 517 l 861 517 l 861 369 q 813 158 861 244 q 683 28 765 72 q 499 -17 601 -17 z "},"Ḡ":{"ha":943,"x_min":72,"x_max":861,"o":"m 499 -17 q 306 25 387 -17 q 174 139 225 67 q 97 301 122 211 q 72 486 72 391 q 98 664 72 576 q 175 826 123 753 q 308 944 228 900 q 499 989 389 989 q 659 958 593 989 q 771 878 725 927 q 851 774 817 828 l 676 674 q 602 761 644 724 q 499 799 560 799 q 394 769 436 799 q 326 694 351 740 q 290 592 301 647 q 279 486 279 538 q 292 371 279 427 q 330 271 304 315 q 398 200 356 226 q 499 174 440 174 q 577 193 542 174 q 635 245 613 213 q 656 315 656 277 l 656 326 l 495 326 l 495 517 l 861 517 l 861 369 q 813 158 861 244 q 683 28 765 72 q 499 -17 601 -17 m 272 1074 l 272 1229 l 730 1229 l 730 1074 l 272 1074 z "},"Ǥ":{"ha":1015,"x_min":72,"x_max":1006,"o":"m 497 -17 q 306 25 386 -17 q 173 139 225 67 q 97 301 122 211 q 72 486 72 391 q 98 664 72 576 q 175 826 123 753 q 308 944 228 900 q 497 989 388 989 q 652 962 588 989 q 760 890 716 935 q 838 794 805 846 l 662 696 q 594 769 633 740 q 497 799 554 799 q 393 769 435 799 q 326 694 351 740 q 290 592 301 647 q 279 486 279 538 q 292 371 279 427 q 330 271 304 315 q 397 200 356 226 q 497 174 438 174 q 610 212 567 174 q 653 315 653 249 l 653 567 l 858 567 l 858 347 q 811 152 858 233 q 682 27 764 70 q 497 -17 600 -17 m 509 258 l 509 447 l 1006 447 l 1006 258 l 509 258 z "},"H":{"ha":1011,"x_min":108,"x_max":903,"o":"m 108 0 l 108 972 l 308 972 l 308 596 l 703 596 l 703 972 l 903 972 l 903 0 l 703 0 l 703 405 l 308 405 l 308 0 l 108 0 z "},"Ħ":{"ha":1001,"x_min":-3,"x_max":1004,"o":"m 103 0 l 103 683 l -3 683 l -3 874 l 103 874 l 103 972 l 303 972 l 303 874 l 698 874 l 698 972 l 899 972 l 899 874 l 1004 874 l 1004 683 l 899 683 l 899 0 l 698 0 l 698 405 l 303 405 l 303 0 l 103 0 m 303 596 l 698 596 l 698 683 l 303 683 l 303 596 z "},"Ȟ":{"ha":1011,"x_min":108,"x_max":903,"o":"m 108 0 l 108 972 l 308 972 l 308 596 l 703 596 l 703 972 l 903 972 l 903 0 l 703 0 l 703 405 l 308 405 l 308 0 l 108 0 m 416 1063 l 219 1279 l 392 1279 l 506 1186 l 620 1279 l 792 1279 l 594 1063 l 416 1063 z "},"Ĥ":{"ha":1011,"x_min":108,"x_max":903,"o":"m 108 0 l 108 972 l 308 972 l 308 596 l 703 596 l 703 972 l 903 972 l 903 0 l 703 0 l 703 405 l 308 405 l 308 0 l 108 0 m 220 1063 l 419 1279 l 597 1279 l 794 1063 l 622 1063 l 508 1156 l 393 1063 l 220 1063 z "},"Ḥ":{"ha":1011,"x_min":108,"x_max":903,"o":"m 108 0 l 108 972 l 308 972 l 308 596 l 703 596 l 703 972 l 903 972 l 903 0 l 703 0 l 703 405 l 308 405 l 308 0 l 108 0 m 506 -304 q 431 -274 461 -304 q 401 -199 401 -243 q 431 -124 401 -153 q 506 -94 461 -94 q 581 -124 551 -94 q 610 -199 610 -153 q 581 -274 610 -243 q 506 -304 551 -304 z "},"Ɦ":{"ha":1264,"x_min":-9,"x_max":1156,"o":"m 179 585 l -9 681 q 39 838 3 773 q 145 938 75 903 q 329 972 215 972 l 547 972 l 547 786 l 337 786 q 222 738 254 786 q 179 585 190 689 m 361 0 l 361 972 l 561 972 l 561 596 l 956 596 l 956 972 l 1156 972 l 1156 0 l 956 0 l 956 405 l 561 405 l 561 0 l 361 0 z "},"Ɥ":{"ha":1003,"x_min":100,"x_max":894,"o":"m 694 0 l 694 419 q 641 361 674 388 q 561 318 608 334 q 449 303 513 303 q 261 350 339 303 q 141 488 183 397 q 100 706 100 578 l 100 972 l 300 972 l 300 740 q 320 600 300 655 q 385 519 341 545 q 497 493 428 493 q 583 508 547 493 q 645 552 620 522 q 682 630 670 583 q 694 740 694 676 l 694 972 l 894 972 l 894 0 l 694 0 z "},"I":{"ha":417,"x_min":108,"x_max":308,"o":"m 108 0 l 108 972 l 308 972 l 308 0 l 108 0 z "},"Ĳ":{"ha":1181,"x_min":108,"x_max":1080,"o":"m 108 0 l 108 972 l 308 972 l 308 0 l 108 0 m 745 -17 q 553 43 641 -17 q 418 208 465 103 l 592 289 q 657 206 622 235 q 746 176 693 176 q 795 184 772 176 q 838 211 819 192 q 868 264 857 230 q 879 352 879 299 l 879 972 l 1080 972 l 1080 340 q 1049 167 1080 236 q 969 58 1019 98 q 860 0 919 17 q 745 -17 801 -17 z "},"Í":{"ha":417,"x_min":57,"x_max":485,"o":"m 108 0 l 108 972 l 308 972 l 308 0 l 108 0 m 57 1063 l 254 1279 l 485 1279 l 238 1063 l 57 1063 z "},"Ĭ":{"ha":417,"x_min":-42,"x_max":463,"o":"m 108 0 l 108 972 l 308 972 l 308 0 l 108 0 m 210 1056 q 70 1089 126 1056 q -14 1176 14 1122 q -42 1293 -42 1230 l 101 1293 q 110 1245 101 1269 q 142 1205 119 1221 q 210 1189 166 1189 q 278 1205 254 1189 q 311 1245 302 1221 q 321 1293 321 1269 l 464 1293 q 435 1176 464 1230 q 351 1089 407 1122 q 210 1056 294 1056 z "},"Ǐ":{"ha":417,"x_min":-77,"x_max":497,"o":"m 108 0 l 108 972 l 308 972 l 308 0 l 108 0 m 120 1063 l -77 1279 l 96 1279 l 210 1186 l 324 1279 l 497 1279 l 299 1063 l 120 1063 z "},"Î":{"ha":417,"x_min":-76,"x_max":499,"o":"m 108 0 l 108 972 l 308 972 l 308 0 l 108 0 m -76 1063 l 123 1279 l 301 1279 l 499 1063 l 326 1063 l 213 1156 l 97 1063 l -76 1063 z "},"Ȉ":{"ha":417,"x_min":-278,"x_max":460,"o":"m 108 0 l 108 972 l 308 972 l 308 0 l 108 0 m -31 1063 l -278 1279 l -47 1279 l 150 1063 l -31 1063 m 278 1063 l 31 1279 l 263 1279 l 460 1063 l 278 1063 z "},"Ï":{"ha":417,"x_min":-37,"x_max":457,"o":"m 108 0 l 108 972 l 308 972 l 308 0 l 108 0 m 353 1067 q 277 1096 307 1067 q 248 1171 248 1126 q 277 1245 248 1216 q 353 1275 307 1275 q 427 1245 397 1275 q 457 1171 457 1216 q 427 1096 457 1126 q 353 1067 397 1067 m 67 1067 q -8 1096 22 1067 q -37 1171 -37 1126 q -8 1245 -37 1216 q 67 1275 22 1275 q 142 1245 112 1275 q 172 1171 172 1216 q 142 1096 172 1126 q 67 1067 112 1067 z "},"Ḯ":{"ha":417,"x_min":-37,"x_max":485,"o":"m 108 0 l 108 972 l 308 972 l 308 0 l 108 0 m 353 1067 q 277 1096 307 1067 q 248 1171 248 1126 q 277 1245 248 1216 q 353 1275 307 1275 q 427 1245 397 1275 q 457 1171 457 1216 q 427 1096 457 1126 q 353 1067 397 1067 m 67 1067 q -8 1096 22 1067 q -37 1171 -37 1126 q -8 1245 -37 1216 q 67 1275 22 1275 q 142 1245 112 1275 q 172 1171 172 1216 q 142 1096 172 1126 q 67 1067 112 1067 m 57 1365 l 254 1582 l 485 1582 l 238 1365 l 57 1365 z "},"İ":{"ha":417,"x_min":100,"x_max":322,"o":"m 108 0 l 108 972 l 308 972 l 308 0 l 108 0 m 211 1057 q 133 1090 165 1057 q 100 1167 100 1122 q 133 1245 100 1213 q 211 1276 165 1276 q 290 1245 258 1276 q 322 1167 322 1213 q 290 1090 322 1122 q 211 1057 258 1057 z "},"Ị":{"ha":417,"x_min":106,"x_max":315,"o":"m 108 0 l 108 972 l 308 972 l 308 0 l 108 0 m 211 -304 q 136 -274 166 -304 q 106 -199 106 -243 q 136 -124 106 -153 q 211 -94 166 -94 q 285 -124 256 -94 q 315 -199 315 -153 q 285 -274 315 -243 q 211 -304 256 -304 z "},"Ì":{"ha":417,"x_min":-95,"x_max":333,"o":"m 108 0 l 108 972 l 308 972 l 308 0 l 108 0 m 152 1063 l -95 1279 l 136 1279 l 333 1063 l 152 1063 z "},"Ỉ":{"ha":417,"x_min":76,"x_max":345,"o":"m 108 0 l 108 972 l 308 972 l 308 0 l 108 0 m 148 1026 q 159 1088 148 1062 q 199 1138 170 1115 q 220 1155 214 1148 q 226 1169 226 1162 q 208 1186 226 1186 q 159 1149 183 1186 l 76 1201 q 128 1272 90 1245 q 215 1299 167 1299 q 308 1265 271 1299 q 345 1178 345 1231 q 330 1114 345 1136 q 297 1076 314 1092 q 277 1051 283 1063 q 272 1026 272 1040 l 148 1026 z "},"Ȋ":{"ha":417,"x_min":-42,"x_max":463,"o":"m 108 0 l 108 972 l 308 972 l 308 0 l 108 0 m -42 1056 q -14 1173 -42 1119 q 70 1260 14 1227 q 212 1293 127 1293 q 343 1264 291 1293 q 424 1186 395 1235 q 463 1081 453 1138 q 464 1068 464 1075 q 464 1056 464 1062 l 321 1056 q 320 1068 321 1062 q 318 1081 320 1075 q 286 1136 310 1112 q 212 1160 263 1160 q 146 1144 170 1160 q 111 1104 122 1128 q 101 1056 101 1080 l -42 1056 z "},"Ī":{"ha":417,"x_min":-19,"x_max":440,"o":"m 108 0 l 108 972 l 308 972 l 308 0 l 108 0 m -18 1074 l -18 1229 l 440 1229 l 440 1074 l -18 1074 z "},"Į":{"ha":428,"x_min":-37,"x_max":314,"o":"m 135 -342 q 10 -299 56 -342 q -37 -189 -37 -256 q 3 -79 -37 -127 q 115 0 44 -31 l 115 972 l 314 972 l 314 0 q 222 -28 267 -6 q 147 -87 176 -50 q 118 -173 118 -124 q 132 -217 118 -204 q 165 -231 146 -231 q 198 -223 185 -231 q 219 -203 210 -215 l 306 -265 q 271 -297 293 -279 q 216 -328 249 -315 q 135 -342 182 -342 z "},"Ɩ":{"ha":487,"x_min":108,"x_max":473,"o":"m 290 -17 q 153 32 197 -17 q 108 174 108 81 l 108 972 l 308 972 l 308 197 q 320 161 308 174 q 351 148 331 148 q 411 156 381 148 q 473 178 442 163 l 451 15 q 378 -9 418 -1 q 290 -17 339 -17 z "},"Ɨ":{"ha":601,"x_min":46,"x_max":555,"o":"m 46 393 l 46 579 l 555 579 l 555 393 l 46 393 m 201 0 l 201 972 l 400 972 l 400 0 l 201 0 z "},"Ĩ":{"ha":417,"x_min":-62,"x_max":484,"o":"m 108 0 l 108 972 l 308 972 l 308 0 l 108 0 m 321 1072 q 249 1084 281 1072 q 188 1108 216 1095 q 140 1127 163 1119 q 92 1136 116 1136 q 46 1123 66 1136 q 26 1078 26 1110 l -63 1078 q -48 1176 -63 1133 q 4 1245 -32 1220 q 101 1271 40 1271 q 172 1260 140 1271 q 233 1237 204 1250 q 281 1217 257 1226 q 331 1208 306 1208 q 376 1220 357 1208 q 396 1265 395 1233 l 483 1265 q 468 1168 483 1212 q 417 1098 453 1124 q 321 1072 381 1072 z "},"J":{"ha":779,"x_min":17,"x_max":678,"o":"m 344 -17 q 152 43 240 -17 q 17 208 64 103 l 191 289 q 256 206 220 235 q 344 176 292 176 q 394 184 370 176 q 436 211 417 192 q 467 264 456 230 q 478 352 478 299 l 478 972 l 678 972 l 678 340 q 648 167 678 236 q 567 58 617 98 q 459 0 517 17 q 344 -17 400 -17 z "},"Ĵ":{"ha":779,"x_min":17,"x_max":867,"o":"m 344 -17 q 152 43 240 -17 q 17 208 64 103 l 191 289 q 256 206 220 235 q 344 176 292 176 q 394 184 370 176 q 436 211 417 192 q 467 264 456 230 q 478 352 478 299 l 478 972 l 678 972 l 678 340 q 648 167 678 236 q 567 58 617 98 q 459 0 517 17 q 344 -17 400 -17 m 293 1063 l 492 1279 l 670 1279 l 867 1063 l 694 1063 l 581 1156 l 466 1063 l 293 1063 z "},"K":{"ha":1006,"x_min":108,"x_max":968,"o":"m 108 0 l 108 972 l 308 972 l 308 510 l 674 972 l 913 972 l 625 622 l 968 0 l 735 0 l 490 453 l 308 226 l 308 0 l 108 0 z "},"Ǩ":{"ha":1006,"x_min":108,"x_max":968,"o":"m 108 0 l 108 972 l 308 972 l 308 510 l 674 972 l 913 972 l 625 622 l 968 0 l 735 0 l 490 453 l 308 226 l 308 0 l 108 0 m 413 1063 l 215 1279 l 388 1279 l 503 1186 l 617 1279 l 789 1279 l 591 1063 l 413 1063 z "},"Ķ":{"ha":1006,"x_min":108,"x_max":968,"o":"m 108 0 l 108 972 l 308 972 l 308 510 l 674 972 l 913 972 l 625 622 l 968 0 l 735 0 l 490 453 l 308 226 l 308 0 l 108 0 m 490 -409 l 424 -367 q 466 -316 449 -340 q 492 -262 483 -292 q 430 -234 457 -259 q 403 -162 403 -208 q 433 -87 403 -118 q 513 -57 464 -57 q 590 -87 560 -57 q 620 -174 620 -117 q 585 -298 620 -237 q 490 -409 551 -360 z "},"Ƙ":{"ha":1006,"x_min":108,"x_max":994,"o":"m 108 0 l 108 972 l 308 972 l 308 510 l 555 822 q 652 922 606 886 q 756 973 699 958 q 890 989 812 988 l 994 822 q 859 814 910 822 q 774 784 808 806 q 707 722 740 763 l 625 622 l 968 0 l 735 0 l 490 453 l 308 226 l 308 0 l 108 0 z "},"L":{"ha":790,"x_min":108,"x_max":776,"o":"m 108 0 l 108 972 l 308 972 l 308 193 l 776 193 l 776 0 l 108 0 z "},"Ǉ":{"ha":1623,"x_min":108,"x_max":1522,"o":"m 108 0 l 108 972 l 308 972 l 308 193 l 776 193 l 776 0 l 108 0 m 1188 -17 q 995 43 1083 -17 q 860 208 908 103 l 1035 289 q 1100 206 1064 235 q 1188 176 1135 176 q 1238 184 1214 176 q 1280 211 1261 192 q 1310 264 1299 230 q 1322 352 1322 299 l 1322 972 l 1522 972 l 1522 340 q 1492 167 1522 236 q 1411 58 1461 98 q 1302 0 1361 17 q 1188 -17 1244 -17 z "},"Ĺ":{"ha":790,"x_min":52,"x_max":776,"o":"m 108 0 l 108 972 l 308 972 l 308 193 l 776 193 l 776 0 l 108 0 m 52 1063 l 249 1279 l 481 1279 l 233 1063 l 52 1063 z "},"Ľ":{"ha":790,"x_min":108,"x_max":776,"o":"m 108 0 l 108 972 l 308 972 l 308 193 l 776 193 l 776 0 l 108 0 m 477 608 l 415 656 q 438 729 428 680 q 453 841 448 778 q 459 972 459 904 l 634 972 l 634 961 q 590 757 634 841 q 477 608 547 673 z "},"Ḽ":{"ha":790,"x_min":108,"x_max":776,"o":"m 108 0 l 108 972 l 308 972 l 308 193 l 776 193 l 776 0 l 108 0 m 149 -318 l 348 -101 l 526 -101 l 724 -318 l 551 -318 l 438 -224 l 322 -318 l 149 -318 z "},"Ļ":{"ha":790,"x_min":108,"x_max":776,"o":"m 108 0 l 108 972 l 308 972 l 308 193 l 776 193 l 776 0 l 108 0 m 413 -409 l 347 -367 q 390 -316 373 -340 q 415 -262 407 -292 q 353 -234 381 -259 q 326 -162 326 -208 q 357 -87 326 -118 q 437 -57 388 -57 q 514 -87 483 -57 q 544 -174 544 -117 q 509 -298 544 -237 q 413 -409 474 -360 z "},"Ŀ":{"ha":790,"x_min":108,"x_max":776,"o":"m 108 0 l 108 972 l 308 972 l 308 193 l 776 193 l 776 0 l 108 0 m 602 367 q 516 402 551 367 q 482 485 482 437 q 516 569 482 533 q 602 604 551 604 q 689 569 653 604 q 724 485 724 533 q 689 402 724 437 q 602 367 653 367 z "},"Ḷ":{"ha":790,"x_min":108,"x_max":776,"o":"m 108 0 l 108 972 l 308 972 l 308 193 l 776 193 l 776 0 l 108 0 m 438 -304 q 363 -274 392 -304 q 333 -199 333 -243 q 363 -124 333 -153 q 438 -94 392 -94 q 512 -124 482 -94 q 542 -199 542 -153 q 512 -274 542 -243 q 438 -304 482 -304 z "},"ǈ":{"ha":1196,"x_min":108,"x_max":1103,"o":"m 108 0 l 108 972 l 308 972 l 308 193 l 776 193 l 776 0 l 108 0 m 797 -297 l 699 -143 q 855 -89 812 -119 q 897 -9 897 -60 l 897 710 l 1088 710 l 1088 33 q 1017 -189 1088 -112 q 797 -297 947 -265 m 993 785 q 915 818 948 785 q 882 896 882 851 q 914 973 882 941 q 993 1005 947 1005 q 1072 974 1040 1005 q 1103 896 1103 942 q 1072 818 1103 850 q 993 785 1040 785 z "},"Ł":{"ha":790,"x_min":18,"x_max":776,"o":"m 108 0 l 108 278 l 18 209 l 18 428 l 108 495 l 108 972 l 308 972 l 308 644 l 513 801 l 513 585 l 308 430 l 308 193 l 776 193 l 776 0 l 108 0 z "},"M":{"ha":1126,"x_min":108,"x_max":1018,"o":"m 564 -17 l 320 501 q 314 516 317 507 q 307 535 310 525 q 308 516 308 526 q 308 499 308 506 l 308 0 l 108 0 l 108 972 l 310 972 l 544 455 q 558 425 552 440 q 568 395 563 411 q 579 426 574 411 q 591 455 585 441 l 832 972 l 1018 972 l 1018 0 l 819 0 l 819 501 q 819 519 819 509 q 819 535 819 529 q 812 518 816 527 q 805 502 808 509 l 564 -17 z "},"Ḿ":{"ha":1126,"x_min":108,"x_max":1018,"o":"m 564 -17 l 320 501 q 314 516 317 507 q 307 535 310 525 q 308 516 308 526 q 308 499 308 506 l 308 0 l 108 0 l 108 972 l 310 972 l 544 455 q 558 425 552 440 q 568 395 563 411 q 579 426 574 411 q 591 455 585 441 l 832 972 l 1018 972 l 1018 0 l 819 0 l 819 501 q 819 519 819 509 q 819 535 819 529 q 812 518 816 527 q 805 502 808 509 l 564 -17 m 410 1063 l 607 1279 l 838 1279 l 591 1063 l 410 1063 z "},"N":{"ha":1002,"x_min":108,"x_max":894,"o":"m 108 0 l 108 972 l 292 972 l 659 440 q 679 406 666 428 q 699 367 692 384 q 696 405 697 382 q 695 440 695 428 l 695 972 l 894 972 l 894 0 l 718 0 l 343 537 q 323 571 335 548 q 302 610 310 594 q 305 572 305 592 q 306 537 306 551 l 306 0 l 108 0 z "},"Ǌ":{"ha":1767,"x_min":108,"x_max":1666,"o":"m 108 0 l 108 972 l 292 972 l 659 440 q 679 406 666 428 q 699 367 692 384 q 696 405 697 382 q 695 440 695 428 l 695 972 l 894 972 l 894 0 l 718 0 l 343 537 q 323 571 335 548 q 302 610 310 594 q 305 572 305 592 q 306 537 306 551 l 306 0 l 108 0 m 1331 -17 q 1139 43 1227 -17 q 1004 208 1051 103 l 1178 289 q 1243 206 1208 235 q 1332 176 1279 176 q 1381 184 1358 176 q 1424 211 1405 192 q 1454 264 1443 230 q 1465 352 1465 299 l 1465 972 l 1666 972 l 1666 340 q 1635 167 1666 236 q 1555 58 1605 98 q 1446 0 1505 17 q 1331 -17 1388 -17 z "},"Ń":{"ha":1002,"x_min":108,"x_max":894,"o":"m 108 0 l 108 972 l 292 972 l 659 440 q 679 406 666 428 q 699 367 692 384 q 696 405 697 382 q 695 440 695 428 l 695 972 l 894 972 l 894 0 l 718 0 l 343 537 q 323 571 335 548 q 302 610 310 594 q 305 572 305 592 q 306 537 306 551 l 306 0 l 108 0 m 360 1063 l 557 1279 l 788 1279 l 541 1063 l 360 1063 z "},"Ň":{"ha":1002,"x_min":108,"x_max":894,"o":"m 108 0 l 108 972 l 292 972 l 659 440 q 679 406 666 428 q 699 367 692 384 q 696 405 697 382 q 695 440 695 428 l 695 972 l 894 972 l 894 0 l 718 0 l 343 537 q 323 571 335 548 q 302 610 310 594 q 305 572 305 592 q 306 537 306 551 l 306 0 l 108 0 m 423 1063 l 226 1279 l 399 1279 l 513 1186 l 627 1279 l 799 1279 l 601 1063 l 423 1063 z "},"Ṋ":{"ha":1002,"x_min":108,"x_max":894,"o":"m 108 0 l 108 972 l 292 972 l 659 440 q 679 406 666 428 q 699 367 692 384 q 696 405 697 382 q 695 440 695 428 l 695 972 l 894 972 l 894 0 l 718 0 l 343 537 q 323 571 335 548 q 302 610 310 594 q 305 572 305 592 q 306 537 306 551 l 306 0 l 108 0 m 213 -318 l 412 -101 l 590 -101 l 788 -318 l 615 -318 l 501 -224 l 386 -318 l 213 -318 z "},"Ņ":{"ha":1002,"x_min":108,"x_max":894,"o":"m 108 0 l 108 972 l 292 972 l 659 440 q 679 406 666 428 q 699 367 692 384 q 696 405 697 382 q 695 440 695 428 l 695 972 l 894 972 l 894 0 l 718 0 l 343 537 q 323 571 335 548 q 302 610 310 594 q 305 572 305 592 q 306 537 306 551 l 306 0 l 108 0 m 477 -409 l 411 -367 q 454 -316 437 -340 q 479 -262 471 -292 q 417 -234 444 -259 q 390 -162 390 -208 q 421 -87 390 -118 q 501 -57 451 -57 q 577 -87 547 -57 q 608 -174 608 -117 q 573 -298 608 -237 q 477 -409 538 -360 z "},"Ṅ":{"ha":1002,"x_min":108,"x_max":894,"o":"m 108 0 l 108 972 l 292 972 l 659 440 q 679 406 666 428 q 699 367 692 384 q 696 405 697 382 q 695 440 695 428 l 695 972 l 894 972 l 894 0 l 718 0 l 343 537 q 323 571 335 548 q 302 610 310 594 q 305 572 305 592 q 306 537 306 551 l 306 0 l 108 0 m 514 1057 q 435 1090 468 1057 q 403 1167 403 1122 q 435 1245 403 1213 q 514 1276 468 1276 q 593 1245 561 1276 q 624 1167 624 1213 q 593 1090 624 1122 q 514 1057 561 1057 z "},"Ṇ":{"ha":1002,"x_min":108,"x_max":894,"o":"m 108 0 l 108 972 l 292 972 l 659 440 q 679 406 666 428 q 699 367 692 384 q 696 405 697 382 q 695 440 695 428 l 695 972 l 894 972 l 894 0 l 718 0 l 343 537 q 323 571 335 548 q 302 610 310 594 q 305 572 305 592 q 306 537 306 551 l 306 0 l 108 0 m 501 -304 q 426 -274 456 -304 q 397 -199 397 -243 q 426 -124 397 -153 q 501 -94 456 -94 q 576 -124 546 -94 q 606 -199 606 -153 q 576 -274 606 -243 q 501 -304 546 -304 z "},"Ǹ":{"ha":1002,"x_min":108,"x_max":894,"o":"m 108 0 l 108 972 l 292 972 l 659 440 q 679 406 666 428 q 699 367 692 384 q 696 405 697 382 q 695 440 695 428 l 695 972 l 894 972 l 894 0 l 718 0 l 343 537 q 323 571 335 548 q 302 610 310 594 q 305 572 305 592 q 306 537 306 551 l 306 0 l 108 0 m 454 1063 l 207 1279 l 438 1279 l 635 1063 l 454 1063 z "},"Ɲ":{"ha":1002,"x_min":-90,"x_max":894,"o":"m 8 -342 l -90 -187 q 27 -152 -17 -172 q 89 -101 70 -133 q 108 -16 108 -69 l 108 972 l 292 972 l 659 440 q 680 407 667 429 q 699 367 692 384 q 696 405 697 382 q 695 440 695 428 l 695 972 l 894 972 l 894 0 l 718 0 l 343 537 q 323 571 335 548 q 302 610 310 594 q 305 572 305 592 q 306 537 306 551 l 306 -8 q 229 -235 306 -158 q 8 -342 153 -313 z "},"ǋ":{"ha":1408,"x_min":108,"x_max":1316,"o":"m 108 0 l 108 972 l 292 972 l 659 440 q 679 406 666 428 q 699 367 692 384 q 696 405 697 382 q 695 440 695 428 l 695 972 l 894 972 l 894 0 l 718 0 l 343 537 q 323 571 335 548 q 302 610 310 594 q 305 572 305 592 q 306 537 306 551 l 306 0 l 108 0 m 1009 -297 l 911 -143 q 1067 -89 1024 -119 q 1110 -9 1110 -60 l 1110 710 l 1301 710 l 1301 33 q 1230 -189 1301 -112 q 1009 -297 1159 -265 m 1206 785 q 1127 818 1160 785 q 1094 896 1094 851 q 1127 973 1094 941 q 1206 1005 1159 1005 q 1284 974 1253 1005 q 1316 896 1316 942 q 1284 818 1316 850 q 1206 785 1252 785 z "},"Ñ":{"ha":1002,"x_min":108,"x_max":894,"o":"m 108 0 l 108 972 l 292 972 l 659 440 q 679 406 666 428 q 699 367 692 384 q 696 405 697 382 q 695 440 695 428 l 695 972 l 894 972 l 894 0 l 718 0 l 343 537 q 323 571 335 548 q 302 610 310 594 q 305 572 305 592 q 306 537 306 551 l 306 0 l 108 0 m 624 1072 q 551 1084 584 1072 q 490 1108 519 1095 q 442 1127 466 1119 q 394 1136 419 1136 q 349 1123 369 1136 q 329 1078 329 1110 l 240 1078 q 255 1176 240 1133 q 307 1245 271 1220 q 404 1271 343 1271 q 475 1260 443 1271 q 535 1237 507 1250 q 584 1217 560 1226 q 633 1208 608 1208 q 679 1220 660 1208 q 699 1265 698 1233 l 786 1265 q 771 1168 786 1212 q 720 1098 756 1124 q 624 1072 684 1072 z "},"Ŋ":{"ha":1002,"x_min":108,"x_max":894,"o":"m 593 -339 l 494 -181 q 656 -123 613 -156 q 700 -34 700 -90 l 700 28 l 344 535 q 322 573 335 549 q 302 610 309 597 q 305 573 305 599 q 306 537 306 548 l 306 0 l 108 0 l 108 972 l 292 972 l 659 440 q 679 406 666 428 q 699 367 692 384 q 696 405 697 382 q 695 440 695 428 l 695 972 l 894 972 l 894 1 q 880 -122 894 -63 q 822 -228 867 -181 q 714 -302 776 -278 q 593 -339 651 -327 z "},"O":{"ha":999,"x_min":72,"x_max":927,"o":"m 500 -17 q 301 27 383 -17 q 169 145 219 72 q 95 307 119 218 q 72 486 72 396 q 95 665 72 576 q 169 827 119 754 q 301 945 219 901 q 500 989 383 989 q 699 945 618 989 q 831 827 781 901 q 904 665 881 754 q 927 486 927 576 q 904 307 927 396 q 831 145 881 218 q 699 27 781 72 q 500 -17 618 -17 m 500 176 q 603 205 561 176 q 671 280 645 233 q 708 381 697 327 q 720 486 720 435 q 709 595 720 540 q 673 696 698 650 q 605 769 647 742 q 500 797 563 797 q 395 768 438 797 q 327 693 353 740 q 290 592 301 647 q 279 486 279 537 q 291 378 279 433 q 328 278 302 324 q 397 204 354 232 q 500 176 439 176 z "},"Ó":{"ha":999,"x_min":72,"x_max":927,"o":"m 500 -17 q 301 27 383 -17 q 169 145 219 72 q 95 307 119 218 q 72 486 72 396 q 95 665 72 576 q 169 827 119 754 q 301 945 219 901 q 500 989 383 989 q 699 945 618 989 q 831 827 781 901 q 904 665 881 754 q 927 486 927 576 q 904 307 927 396 q 831 145 881 218 q 699 27 781 72 q 500 -17 618 -17 m 500 176 q 603 205 561 176 q 671 280 645 233 q 708 381 697 327 q 720 486 720 435 q 709 595 720 540 q 673 696 698 650 q 605 769 647 742 q 500 797 563 797 q 395 768 438 797 q 327 693 353 740 q 290 592 301 647 q 279 486 279 537 q 291 378 279 433 q 328 278 302 324 q 397 204 354 232 q 500 176 439 176 m 347 1063 l 544 1279 l 775 1279 l 528 1063 l 347 1063 z "},"Ŏ":{"ha":999,"x_min":72,"x_max":927,"o":"m 500 -17 q 301 27 383 -17 q 169 145 219 72 q 95 307 119 218 q 72 486 72 396 q 95 665 72 576 q 169 827 119 754 q 301 945 219 901 q 500 989 383 989 q 699 945 618 989 q 831 827 781 901 q 904 665 881 754 q 927 486 927 576 q 904 307 927 396 q 831 145 881 218 q 699 27 781 72 q 500 -17 618 -17 m 500 176 q 603 205 561 176 q 671 280 645 233 q 708 381 697 327 q 720 486 720 435 q 709 595 720 540 q 673 696 698 650 q 605 769 647 742 q 500 797 563 797 q 395 768 438 797 q 327 693 353 740 q 290 592 301 647 q 279 486 279 537 q 291 378 279 433 q 328 278 302 324 q 397 204 354 232 q 500 176 439 176 m 500 1056 q 359 1089 415 1056 q 275 1176 303 1122 q 247 1293 247 1230 l 390 1293 q 399 1245 390 1269 q 432 1205 408 1221 q 500 1189 456 1189 q 568 1205 544 1189 q 601 1245 592 1221 q 610 1293 610 1269 l 753 1293 q 725 1176 753 1230 q 640 1089 697 1122 q 500 1056 584 1056 z "},"Ǒ":{"ha":999,"x_min":72,"x_max":927,"o":"m 500 -17 q 301 27 383 -17 q 169 145 219 72 q 95 307 119 218 q 72 486 72 396 q 95 665 72 576 q 169 827 119 754 q 301 945 219 901 q 500 989 383 989 q 699 945 618 989 q 831 827 781 901 q 904 665 881 754 q 927 486 927 576 q 904 307 927 396 q 831 145 881 218 q 699 27 781 72 q 500 -17 618 -17 m 500 176 q 603 205 561 176 q 671 280 645 233 q 708 381 697 327 q 720 486 720 435 q 709 595 720 540 q 673 696 698 650 q 605 769 647 742 q 500 797 563 797 q 395 768 438 797 q 327 693 353 740 q 290 592 301 647 q 279 486 279 537 q 291 378 279 433 q 328 278 302 324 q 397 204 354 232 q 500 176 439 176 m 410 1063 l 213 1279 l 385 1279 l 500 1186 l 614 1279 l 786 1279 l 588 1063 l 410 1063 z "},"Ô":{"ha":999,"x_min":72,"x_max":927,"o":"m 500 -17 q 301 27 383 -17 q 169 145 219 72 q 95 307 119 218 q 72 486 72 396 q 95 665 72 576 q 169 827 119 754 q 301 945 219 901 q 500 989 383 989 q 699 945 618 989 q 831 827 781 901 q 904 665 881 754 q 927 486 927 576 q 904 307 927 396 q 831 145 881 218 q 699 27 781 72 q 500 -17 618 -17 m 500 176 q 603 205 561 176 q 671 280 645 233 q 708 381 697 327 q 720 486 720 435 q 709 595 720 540 q 673 696 698 650 q 605 769 647 742 q 500 797 563 797 q 395 768 438 797 q 327 693 353 740 q 290 592 301 647 q 279 486 279 537 q 291 378 279 433 q 328 278 302 324 q 397 204 354 232 q 500 176 439 176 m 214 1063 l 413 1279 l 591 1279 l 788 1063 l 615 1063 l 502 1156 l 387 1063 l 214 1063 z "},"Ố":{"ha":999,"x_min":72,"x_max":1094,"o":"m 500 -17 q 301 27 383 -17 q 169 145 219 72 q 95 307 119 218 q 72 486 72 396 q 95 665 72 576 q 169 827 119 754 q 301 945 219 901 q 500 989 383 989 q 699 945 618 989 q 831 827 781 901 q 904 665 881 754 q 927 486 927 576 q 904 307 927 396 q 831 145 881 218 q 699 27 781 72 q 500 -17 618 -17 m 500 176 q 603 205 561 176 q 671 280 645 233 q 708 381 697 327 q 720 486 720 435 q 709 595 720 540 q 673 696 698 650 q 605 769 647 742 q 500 797 563 797 q 395 768 438 797 q 327 693 353 740 q 290 592 301 647 q 279 486 279 537 q 291 378 279 433 q 328 278 302 324 q 397 204 354 232 q 500 176 439 176 m 214 1063 l 413 1279 l 591 1279 l 788 1063 l 615 1063 l 502 1156 l 387 1063 l 214 1063 m 665 1257 l 863 1474 l 1094 1474 l 847 1257 l 665 1257 z "},"Ộ":{"ha":999,"x_min":72,"x_max":927,"o":"m 500 -17 q 301 27 383 -17 q 169 145 219 72 q 95 307 119 218 q 72 486 72 396 q 95 665 72 576 q 169 827 119 754 q 301 945 219 901 q 500 989 383 989 q 699 945 618 989 q 831 827 781 901 q 904 665 881 754 q 927 486 927 576 q 904 307 927 396 q 831 145 881 218 q 699 27 781 72 q 500 -17 618 -17 m 500 176 q 603 205 561 176 q 671 280 645 233 q 708 381 697 327 q 720 486 720 435 q 709 595 720 540 q 673 696 698 650 q 605 769 647 742 q 500 797 563 797 q 395 768 438 797 q 327 693 353 740 q 290 592 301 647 q 279 486 279 537 q 291 378 279 433 q 328 278 302 324 q 397 204 354 232 q 500 176 439 176 m 501 -304 q 426 -274 456 -304 q 396 -199 396 -243 q 426 -124 396 -153 q 501 -94 456 -94 q 575 -124 545 -94 q 605 -199 605 -153 q 575 -274 605 -243 q 501 -304 545 -304 m 214 1063 l 413 1279 l 591 1279 l 788 1063 l 615 1063 l 502 1156 l 387 1063 l 214 1063 z "},"Ồ":{"ha":999,"x_min":72,"x_max":927,"o":"m 500 -17 q 301 27 383 -17 q 169 145 219 72 q 95 307 119 218 q 72 486 72 396 q 95 665 72 576 q 169 827 119 754 q 301 945 219 901 q 500 989 383 989 q 699 945 618 989 q 831 827 781 901 q 904 665 881 754 q 927 486 927 576 q 904 307 927 396 q 831 145 881 218 q 699 27 781 72 q 500 -17 618 -17 m 500 176 q 603 205 561 176 q 671 280 645 233 q 708 381 697 327 q 720 486 720 435 q 709 595 720 540 q 673 696 698 650 q 605 769 647 742 q 500 797 563 797 q 395 768 438 797 q 327 693 353 740 q 290 592 301 647 q 279 486 279 537 q 291 378 279 433 q 328 278 302 324 q 397 204 354 232 q 500 176 439 176 m 214 1063 l 413 1279 l 591 1279 l 788 1063 l 615 1063 l 502 1156 l 387 1063 l 214 1063 m 724 1257 l 476 1474 l 708 1474 l 905 1257 l 724 1257 z "},"Ổ":{"ha":999,"x_min":72,"x_max":927,"o":"m 500 -17 q 301 27 383 -17 q 169 145 219 72 q 95 307 119 218 q 72 486 72 396 q 95 665 72 576 q 169 827 119 754 q 301 945 219 901 q 500 989 383 989 q 699 945 618 989 q 831 827 781 901 q 904 665 881 754 q 927 486 927 576 q 904 307 927 396 q 831 145 881 218 q 699 27 781 72 q 500 -17 618 -17 m 500 176 q 603 205 561 176 q 671 280 645 233 q 708 381 697 327 q 720 486 720 435 q 709 595 720 540 q 673 696 698 650 q 605 769 647 742 q 500 797 563 797 q 395 768 438 797 q 327 693 353 740 q 290 592 301 647 q 279 486 279 537 q 291 378 279 433 q 328 278 302 324 q 397 204 354 232 q 500 176 439 176 m 214 1063 l 413 1279 l 591 1279 l 788 1063 l 615 1063 l 502 1156 l 387 1063 l 214 1063 m 438 1333 q 449 1395 438 1369 q 489 1444 460 1422 q 510 1462 503 1455 q 516 1476 516 1469 q 497 1493 516 1493 q 449 1456 472 1493 l 366 1508 q 418 1579 380 1552 q 504 1606 456 1606 q 598 1572 560 1606 q 635 1485 635 1538 q 619 1421 635 1443 q 587 1383 603 1399 q 567 1358 573 1369 q 561 1333 561 1347 l 438 1333 z "},"Ỗ":{"ha":999,"x_min":72,"x_max":927,"o":"m 500 -17 q 301 27 383 -17 q 169 145 219 72 q 95 307 119 218 q 72 486 72 396 q 95 665 72 576 q 169 827 119 754 q 301 945 219 901 q 500 989 383 989 q 699 945 618 989 q 831 827 781 901 q 904 665 881 754 q 927 486 927 576 q 904 307 927 396 q 831 145 881 218 q 699 27 781 72 q 500 -17 618 -17 m 500 176 q 603 205 561 176 q 671 280 645 233 q 708 381 697 327 q 720 486 720 435 q 709 595 720 540 q 673 696 698 650 q 605 769 647 742 q 500 797 563 797 q 395 768 438 797 q 327 693 353 740 q 290 592 301 647 q 279 486 279 537 q 291 378 279 433 q 328 278 302 324 q 397 204 354 232 q 500 176 439 176 m 214 1063 l 413 1279 l 591 1279 l 788 1063 l 615 1063 l 502 1156 l 387 1063 l 214 1063 m 611 1351 q 539 1363 572 1351 q 478 1387 506 1374 q 430 1407 453 1398 q 382 1415 406 1415 q 336 1402 356 1415 q 317 1357 317 1390 l 227 1357 q 243 1456 227 1412 q 294 1525 258 1499 q 392 1550 331 1550 q 463 1540 431 1550 q 523 1516 494 1529 q 572 1496 547 1505 q 621 1488 596 1488 q 666 1500 647 1488 q 686 1544 685 1512 l 774 1544 q 758 1447 774 1491 q 707 1377 743 1403 q 611 1351 672 1351 z "},"Ȍ":{"ha":999,"x_min":11,"x_max":927,"o":"m 500 -17 q 301 27 383 -17 q 169 145 219 72 q 95 307 119 218 q 72 486 72 396 q 95 665 72 576 q 169 827 119 754 q 301 945 219 901 q 500 989 383 989 q 699 945 618 989 q 831 827 781 901 q 904 665 881 754 q 927 486 927 576 q 904 307 927 396 q 831 145 881 218 q 699 27 781 72 q 500 -17 618 -17 m 500 176 q 603 205 561 176 q 671 280 645 233 q 708 381 697 327 q 720 486 720 435 q 709 595 720 540 q 673 696 698 650 q 605 769 647 742 q 500 797 563 797 q 395 768 438 797 q 327 693 353 740 q 290 592 301 647 q 279 486 279 537 q 291 378 279 433 q 328 278 302 324 q 397 204 354 232 q 500 176 439 176 m 258 1063 l 11 1279 l 242 1279 l 440 1063 l 258 1063 m 568 1063 l 321 1279 l 552 1279 l 749 1063 l 568 1063 z "},"Ö":{"ha":999,"x_min":72,"x_max":927,"o":"m 500 -17 q 301 27 383 -17 q 169 145 219 72 q 95 307 119 218 q 72 486 72 396 q 95 665 72 576 q 169 827 119 754 q 301 945 219 901 q 500 989 383 989 q 699 945 618 989 q 831 827 781 901 q 904 665 881 754 q 927 486 927 576 q 904 307 927 396 q 831 145 881 218 q 699 27 781 72 q 500 -17 618 -17 m 500 176 q 603 205 561 176 q 671 280 645 233 q 708 381 697 327 q 720 486 720 435 q 709 595 720 540 q 673 696 698 650 q 605 769 647 742 q 500 797 563 797 q 395 768 438 797 q 327 693 353 740 q 290 592 301 647 q 279 486 279 537 q 291 378 279 433 q 328 278 302 324 q 397 204 354 232 q 500 176 439 176 m 642 1067 q 567 1096 597 1067 q 538 1171 538 1126 q 567 1245 538 1216 q 642 1275 597 1275 q 717 1245 687 1275 q 747 1171 747 1216 q 717 1096 747 1126 q 642 1067 687 1067 m 356 1067 q 282 1096 311 1067 q 252 1171 252 1126 q 282 1245 252 1216 q 356 1275 311 1275 q 432 1245 401 1275 q 462 1171 462 1216 q 432 1096 462 1126 q 356 1067 401 1067 z "},"Ȫ":{"ha":999,"x_min":72,"x_max":927,"o":"m 500 -17 q 301 27 383 -17 q 169 145 219 72 q 95 307 119 218 q 72 486 72 396 q 95 665 72 576 q 169 827 119 754 q 301 945 219 901 q 500 989 383 989 q 699 945 618 989 q 831 827 781 901 q 904 665 881 754 q 927 486 927 576 q 904 307 927 396 q 831 145 881 218 q 699 27 781 72 q 500 -17 618 -17 m 500 176 q 603 205 561 176 q 671 280 645 233 q 708 381 697 327 q 720 486 720 435 q 709 595 720 540 q 673 696 698 650 q 605 769 647 742 q 500 797 563 797 q 395 768 438 797 q 327 693 353 740 q 290 592 301 647 q 279 486 279 537 q 291 378 279 433 q 328 278 302 324 q 397 204 354 232 q 500 176 439 176 m 634 1053 q 558 1083 588 1053 q 528 1158 528 1113 q 558 1233 528 1203 q 634 1263 588 1263 q 708 1233 678 1263 q 738 1158 738 1203 q 708 1083 738 1113 q 634 1053 678 1053 m 366 1053 q 291 1083 321 1053 q 262 1158 262 1113 q 291 1233 262 1203 q 366 1263 321 1263 q 441 1233 411 1263 q 471 1158 471 1203 q 441 1083 471 1113 q 366 1053 411 1053 m 272 1365 l 272 1520 l 730 1520 l 730 1365 l 272 1365 z "},"Ȯ":{"ha":999,"x_min":72,"x_max":927,"o":"m 500 -17 q 301 27 383 -17 q 169 145 219 72 q 95 307 119 218 q 72 486 72 396 q 95 665 72 576 q 169 827 119 754 q 301 945 219 901 q 500 989 383 989 q 699 945 618 989 q 831 827 781 901 q 904 665 881 754 q 927 486 927 576 q 904 307 927 396 q 831 145 881 218 q 699 27 781 72 q 500 -17 618 -17 m 500 176 q 603 205 561 176 q 671 280 645 233 q 708 381 697 327 q 720 486 720 435 q 709 595 720 540 q 673 696 698 650 q 605 769 647 742 q 500 797 563 797 q 395 768 438 797 q 327 693 353 740 q 290 592 301 647 q 279 486 279 537 q 291 378 279 433 q 328 278 302 324 q 397 204 354 232 q 500 176 439 176 m 501 1057 q 423 1090 456 1057 q 390 1167 390 1122 q 423 1245 390 1213 q 501 1276 456 1276 q 580 1245 549 1276 q 612 1167 612 1213 q 580 1090 612 1122 q 501 1057 549 1057 z "},"Ȱ":{"ha":999,"x_min":72,"x_max":927,"o":"m 500 -17 q 301 27 383 -17 q 169 145 219 72 q 95 307 119 218 q 72 486 72 396 q 95 665 72 576 q 169 827 119 754 q 301 945 219 901 q 500 989 383 989 q 699 945 618 989 q 831 827 781 901 q 904 665 881 754 q 927 486 927 576 q 904 307 927 396 q 831 145 881 218 q 699 27 781 72 q 500 -17 618 -17 m 500 176 q 603 205 561 176 q 671 280 645 233 q 708 381 697 327 q 720 486 720 435 q 709 595 720 540 q 673 696 698 650 q 605 769 647 742 q 500 797 563 797 q 395 768 438 797 q 327 693 353 740 q 290 592 301 647 q 279 486 279 537 q 291 378 279 433 q 328 278 302 324 q 397 204 354 232 q 500 176 439 176 m 501 1057 q 423 1090 456 1057 q 390 1167 390 1122 q 423 1245 390 1213 q 501 1276 456 1276 q 580 1245 549 1276 q 612 1167 612 1213 q 580 1090 612 1122 q 501 1057 549 1057 m 272 1378 l 272 1533 l 731 1533 l 731 1378 l 272 1378 z "},"Ọ":{"ha":999,"x_min":72,"x_max":927,"o":"m 500 -17 q 301 27 383 -17 q 169 145 219 72 q 95 307 119 218 q 72 486 72 396 q 95 665 72 576 q 169 827 119 754 q 301 945 219 901 q 500 989 383 989 q 699 945 618 989 q 831 827 781 901 q 904 665 881 754 q 927 486 927 576 q 904 307 927 396 q 831 145 881 218 q 699 27 781 72 q 500 -17 618 -17 m 500 176 q 603 205 561 176 q 671 280 645 233 q 708 381 697 327 q 720 486 720 435 q 709 595 720 540 q 673 696 698 650 q 605 769 647 742 q 500 797 563 797 q 395 768 438 797 q 327 693 353 740 q 290 592 301 647 q 279 486 279 537 q 291 378 279 433 q 328 278 302 324 q 397 204 354 232 q 500 176 439 176 m 501 -304 q 426 -274 456 -304 q 396 -199 396 -243 q 426 -124 396 -153 q 501 -94 456 -94 q 575 -124 545 -94 q 605 -199 605 -153 q 575 -274 605 -243 q 501 -304 545 -304 z "},"Ò":{"ha":999,"x_min":72,"x_max":927,"o":"m 500 -17 q 301 27 383 -17 q 169 145 219 72 q 95 307 119 218 q 72 486 72 396 q 95 665 72 576 q 169 827 119 754 q 301 945 219 901 q 500 989 383 989 q 699 945 618 989 q 831 827 781 901 q 904 665 881 754 q 927 486 927 576 q 904 307 927 396 q 831 145 881 218 q 699 27 781 72 q 500 -17 618 -17 m 500 176 q 603 205 561 176 q 671 280 645 233 q 708 381 697 327 q 720 486 720 435 q 709 595 720 540 q 673 696 698 650 q 605 769 647 742 q 500 797 563 797 q 395 768 438 797 q 327 693 353 740 q 290 592 301 647 q 279 486 279 537 q 291 378 279 433 q 328 278 302 324 q 397 204 354 232 q 500 176 439 176 m 442 1063 l 194 1279 l 426 1279 l 623 1063 l 442 1063 z "},"Ỏ":{"ha":999,"x_min":72,"x_max":927,"o":"m 500 -17 q 301 27 383 -17 q 169 145 219 72 q 95 307 119 218 q 72 486 72 396 q 95 665 72 576 q 169 827 119 754 q 301 945 219 901 q 500 989 383 989 q 699 945 618 989 q 831 827 781 901 q 904 665 881 754 q 927 486 927 576 q 904 307 927 396 q 831 145 881 218 q 699 27 781 72 q 500 -17 618 -17 m 500 176 q 603 205 561 176 q 671 280 645 233 q 708 381 697 327 q 720 486 720 435 q 709 595 720 540 q 673 696 698 650 q 605 769 647 742 q 500 797 563 797 q 395 768 438 797 q 327 693 353 740 q 290 592 301 647 q 279 486 279 537 q 291 378 279 433 q 328 278 302 324 q 397 204 354 232 q 500 176 439 176 m 438 1026 q 449 1088 438 1062 q 489 1138 460 1115 q 510 1155 503 1148 q 516 1169 516 1162 q 497 1186 516 1186 q 449 1149 472 1186 l 366 1201 q 418 1272 380 1245 q 504 1299 456 1299 q 598 1265 560 1299 q 635 1178 635 1231 q 619 1114 635 1136 q 587 1076 603 1092 q 567 1051 573 1063 q 561 1026 561 1040 l 438 1026 z "},"Ơ":{"ha":1191,"x_min":72,"x_max":1181,"o":"m 500 -17 q 301 27 383 -17 q 169 145 219 72 q 95 307 119 218 q 72 486 72 396 q 95 665 72 576 q 169 827 119 754 q 301 945 219 901 q 500 989 383 989 q 699 945 618 989 q 831 827 781 901 q 904 665 881 754 q 927 486 927 576 q 904 307 927 396 q 831 145 881 218 q 699 27 781 72 q 500 -17 618 -17 m 500 176 q 603 205 561 176 q 671 280 645 233 q 708 381 697 327 q 720 486 720 435 q 709 595 720 540 q 673 696 698 650 q 605 769 647 742 q 500 797 563 797 q 395 768 438 797 q 327 693 353 740 q 290 592 301 647 q 279 486 279 537 q 291 378 279 433 q 328 278 302 324 q 397 204 354 232 q 500 176 439 176 m 838 490 l 838 644 q 951 688 913 660 q 990 768 990 716 l 990 972 l 1181 972 l 1181 810 q 1168 693 1181 750 q 1113 592 1155 637 q 996 516 1062 539 q 838 490 930 494 z "},"Ớ":{"ha":1191,"x_min":72,"x_max":1181,"o":"m 500 -17 q 301 27 383 -17 q 169 145 219 72 q 95 307 119 218 q 72 486 72 396 q 95 665 72 576 q 169 827 119 754 q 301 945 219 901 q 500 989 383 989 q 699 945 618 989 q 831 827 781 901 q 904 665 881 754 q 927 486 927 576 q 904 307 927 396 q 831 145 881 218 q 699 27 781 72 q 500 -17 618 -17 m 500 176 q 603 205 561 176 q 671 280 645 233 q 708 381 697 327 q 720 486 720 435 q 709 595 720 540 q 673 696 698 650 q 605 769 647 742 q 500 797 563 797 q 395 768 438 797 q 327 693 353 740 q 290 592 301 647 q 279 486 279 537 q 291 378 279 433 q 328 278 302 324 q 397 204 354 232 q 500 176 439 176 m 838 490 l 838 644 q 951 688 913 660 q 990 768 990 716 l 990 972 l 1181 972 l 1181 810 q 1168 693 1181 750 q 1113 592 1155 637 q 996 516 1062 539 q 838 490 930 494 m 347 1063 l 544 1279 l 775 1279 l 528 1063 l 347 1063 z "},"Ợ":{"ha":1191,"x_min":72,"x_max":1181,"o":"m 500 -17 q 301 27 383 -17 q 169 145 219 72 q 95 307 119 218 q 72 486 72 396 q 95 665 72 576 q 169 827 119 754 q 301 945 219 901 q 500 989 383 989 q 699 945 618 989 q 831 827 781 901 q 904 665 881 754 q 927 486 927 576 q 904 307 927 396 q 831 145 881 218 q 699 27 781 72 q 500 -17 618 -17 m 500 176 q 603 205 561 176 q 671 280 645 233 q 708 381 697 327 q 720 486 720 435 q 709 595 720 540 q 673 696 698 650 q 605 769 647 742 q 500 797 563 797 q 395 768 438 797 q 327 693 353 740 q 290 592 301 647 q 279 486 279 537 q 291 378 279 433 q 328 278 302 324 q 397 204 354 232 q 500 176 439 176 m 838 490 l 838 644 q 951 688 913 660 q 990 768 990 716 l 990 972 l 1181 972 l 1181 810 q 1168 693 1181 750 q 1113 592 1155 637 q 996 516 1062 539 q 838 490 930 494 m 501 -304 q 426 -274 456 -304 q 396 -199 396 -243 q 426 -124 396 -153 q 501 -94 456 -94 q 575 -124 545 -94 q 605 -199 605 -153 q 575 -274 605 -243 q 501 -304 545 -304 z "},"Ờ":{"ha":1191,"x_min":72,"x_max":1181,"o":"m 500 -17 q 301 27 383 -17 q 169 145 219 72 q 95 307 119 218 q 72 486 72 396 q 95 665 72 576 q 169 827 119 754 q 301 945 219 901 q 500 989 383 989 q 699 945 618 989 q 831 827 781 901 q 904 665 881 754 q 927 486 927 576 q 904 307 927 396 q 831 145 881 218 q 699 27 781 72 q 500 -17 618 -17 m 500 176 q 603 205 561 176 q 671 280 645 233 q 708 381 697 327 q 720 486 720 435 q 709 595 720 540 q 673 696 698 650 q 605 769 647 742 q 500 797 563 797 q 395 768 438 797 q 327 693 353 740 q 290 592 301 647 q 279 486 279 537 q 291 378 279 433 q 328 278 302 324 q 397 204 354 232 q 500 176 439 176 m 838 490 l 838 644 q 951 688 913 660 q 990 768 990 716 l 990 972 l 1181 972 l 1181 810 q 1168 693 1181 750 q 1113 592 1155 637 q 996 516 1062 539 q 838 490 930 494 m 442 1063 l 194 1279 l 426 1279 l 623 1063 l 442 1063 z "},"Ở":{"ha":1191,"x_min":72,"x_max":1181,"o":"m 500 -17 q 301 27 383 -17 q 169 145 219 72 q 95 307 119 218 q 72 486 72 396 q 95 665 72 576 q 169 827 119 754 q 301 945 219 901 q 500 989 383 989 q 699 945 618 989 q 831 827 781 901 q 904 665 881 754 q 927 486 927 576 q 904 307 927 396 q 831 145 881 218 q 699 27 781 72 q 500 -17 618 -17 m 500 176 q 603 205 561 176 q 671 280 645 233 q 708 381 697 327 q 720 486 720 435 q 709 595 720 540 q 673 696 698 650 q 605 769 647 742 q 500 797 563 797 q 395 768 438 797 q 327 693 353 740 q 290 592 301 647 q 279 486 279 537 q 291 378 279 433 q 328 278 302 324 q 397 204 354 232 q 500 176 439 176 m 838 490 l 838 644 q 951 688 913 660 q 990 768 990 716 l 990 972 l 1181 972 l 1181 810 q 1168 693 1181 750 q 1113 592 1155 637 q 996 516 1062 539 q 838 490 930 494 m 438 1026 q 449 1088 438 1062 q 489 1138 460 1115 q 510 1155 503 1148 q 516 1169 516 1162 q 497 1186 516 1186 q 449 1149 472 1186 l 366 1201 q 418 1272 380 1245 q 504 1299 456 1299 q 598 1265 560 1299 q 635 1178 635 1231 q 619 1114 635 1136 q 587 1076 603 1092 q 567 1051 573 1063 q 561 1026 561 1040 l 438 1026 z "},"Ỡ":{"ha":1191,"x_min":72,"x_max":1181,"o":"m 500 -17 q 301 27 383 -17 q 169 145 219 72 q 95 307 119 218 q 72 486 72 396 q 95 665 72 576 q 169 827 119 754 q 301 945 219 901 q 500 989 383 989 q 699 945 618 989 q 831 827 781 901 q 904 665 881 754 q 927 486 927 576 q 904 307 927 396 q 831 145 881 218 q 699 27 781 72 q 500 -17 618 -17 m 500 176 q 603 205 561 176 q 671 280 645 233 q 708 381 697 327 q 720 486 720 435 q 709 595 720 540 q 673 696 698 650 q 605 769 647 742 q 500 797 563 797 q 395 768 438 797 q 327 693 353 740 q 290 592 301 647 q 279 486 279 537 q 291 378 279 433 q 328 278 302 324 q 397 204 354 232 q 500 176 439 176 m 838 490 l 838 644 q 951 688 913 660 q 990 768 990 716 l 990 972 l 1181 972 l 1181 810 q 1168 693 1181 750 q 1113 592 1155 637 q 996 516 1062 539 q 838 490 930 494 m 611 1072 q 539 1084 572 1072 q 478 1108 506 1095 q 430 1127 453 1119 q 382 1136 406 1136 q 336 1123 356 1136 q 317 1078 317 1110 l 227 1078 q 243 1176 227 1133 q 294 1245 258 1220 q 392 1271 331 1271 q 463 1260 431 1271 q 523 1237 494 1250 q 572 1217 547 1226 q 621 1208 596 1208 q 666 1220 647 1208 q 686 1265 685 1233 l 774 1265 q 758 1168 774 1212 q 707 1098 743 1124 q 611 1072 672 1072 z "},"Ő":{"ha":999,"x_min":72,"x_max":949,"o":"m 500 -17 q 301 27 383 -17 q 169 145 219 72 q 95 307 119 218 q 72 486 72 396 q 95 665 72 576 q 169 827 119 754 q 301 945 219 901 q 500 989 383 989 q 699 945 618 989 q 831 827 781 901 q 904 665 881 754 q 927 486 927 576 q 904 307 927 396 q 831 145 881 218 q 699 27 781 72 q 500 -17 618 -17 m 500 176 q 603 205 561 176 q 671 280 645 233 q 708 381 697 327 q 720 486 720 435 q 709 595 720 540 q 673 696 698 650 q 605 769 647 742 q 500 797 563 797 q 395 768 438 797 q 327 693 353 740 q 290 592 301 647 q 279 486 279 537 q 291 378 279 433 q 328 278 302 324 q 397 204 354 232 q 500 176 439 176 m 519 1063 l 717 1279 l 948 1279 l 701 1063 l 519 1063 m 211 1063 l 408 1279 l 639 1279 l 392 1063 l 211 1063 z "},"Ȏ":{"ha":999,"x_min":72,"x_max":927,"o":"m 500 -17 q 301 27 383 -17 q 169 145 219 72 q 95 307 119 218 q 72 486 72 396 q 95 665 72 576 q 169 827 119 754 q 301 945 219 901 q 500 989 383 989 q 699 945 618 989 q 831 827 781 901 q 904 665 881 754 q 927 486 927 576 q 904 307 927 396 q 831 145 881 218 q 699 27 781 72 q 500 -17 618 -17 m 500 176 q 603 205 561 176 q 671 280 645 233 q 708 381 697 327 q 720 486 720 435 q 709 595 720 540 q 673 696 698 650 q 605 769 647 742 q 500 797 563 797 q 395 768 438 797 q 327 693 353 740 q 290 592 301 647 q 279 486 279 537 q 291 378 279 433 q 328 278 302 324 q 397 204 354 232 q 500 176 439 176 m 247 1056 q 275 1173 247 1119 q 360 1260 303 1227 q 501 1293 417 1293 q 633 1264 581 1293 q 714 1186 685 1235 q 752 1081 742 1138 q 753 1068 753 1075 q 753 1056 753 1062 l 610 1056 q 610 1068 610 1062 q 608 1081 610 1075 q 576 1136 599 1112 q 501 1160 552 1160 q 435 1144 460 1160 q 401 1104 411 1128 q 390 1056 390 1080 l 247 1056 z "},"Ō":{"ha":999,"x_min":72,"x_max":927,"o":"m 500 -17 q 301 27 383 -17 q 169 145 219 72 q 95 307 119 218 q 72 486 72 396 q 95 665 72 576 q 169 827 119 754 q 301 945 219 901 q 500 989 383 989 q 699 945 618 989 q 831 827 781 901 q 904 665 881 754 q 927 486 927 576 q 904 307 927 396 q 831 145 881 218 q 699 27 781 72 q 500 -17 618 -17 m 500 176 q 603 205 561 176 q 671 280 645 233 q 708 381 697 327 q 720 486 720 435 q 709 595 720 540 q 673 696 698 650 q 605 769 647 742 q 500 797 563 797 q 395 768 438 797 q 327 693 353 740 q 290 592 301 647 q 279 486 279 537 q 291 378 279 433 q 328 278 302 324 q 397 204 354 232 q 500 176 439 176 m 272 1074 l 272 1229 l 730 1229 l 730 1074 l 272 1074 z "},"Ṓ":{"ha":999,"x_min":72,"x_max":927,"o":"m 500 -17 q 301 27 383 -17 q 169 145 219 72 q 95 307 119 218 q 72 486 72 396 q 95 665 72 576 q 169 827 119 754 q 301 945 219 901 q 500 989 383 989 q 699 945 618 989 q 831 827 781 901 q 904 665 881 754 q 927 486 927 576 q 904 307 927 396 q 831 145 881 218 q 699 27 781 72 q 500 -17 618 -17 m 500 176 q 603 205 561 176 q 671 280 645 233 q 708 381 697 327 q 720 486 720 435 q 709 595 720 540 q 673 696 698 650 q 605 769 647 742 q 500 797 563 797 q 395 768 438 797 q 327 693 353 740 q 290 592 301 647 q 279 486 279 537 q 291 378 279 433 q 328 278 302 324 q 397 204 354 232 q 500 176 439 176 m 272 1074 l 272 1229 l 730 1229 l 730 1074 l 272 1074 m 347 1319 l 544 1536 l 775 1536 l 528 1319 l 347 1319 z "},"Ṑ":{"ha":999,"x_min":72,"x_max":927,"o":"m 500 -17 q 301 27 383 -17 q 169 145 219 72 q 95 307 119 218 q 72 486 72 396 q 95 665 72 576 q 169 827 119 754 q 301 945 219 901 q 500 989 383 989 q 699 945 618 989 q 831 827 781 901 q 904 665 881 754 q 927 486 927 576 q 904 307 927 396 q 831 145 881 218 q 699 27 781 72 q 500 -17 618 -17 m 500 176 q 603 205 561 176 q 671 280 645 233 q 708 381 697 327 q 720 486 720 435 q 709 595 720 540 q 673 696 698 650 q 605 769 647 742 q 500 797 563 797 q 395 768 438 797 q 327 693 353 740 q 290 592 301 647 q 279 486 279 537 q 291 378 279 433 q 328 278 302 324 q 397 204 354 232 q 500 176 439 176 m 272 1074 l 272 1229 l 730 1229 l 730 1074 l 272 1074 m 442 1319 l 194 1536 l 426 1536 l 623 1319 l 442 1319 z "},"Ǫ":{"ha":999,"x_min":72,"x_max":927,"o":"m 500 -17 q 301 27 383 -17 q 169 145 219 72 q 95 307 119 218 q 72 486 72 396 q 95 665 72 576 q 169 827 119 754 q 301 945 219 901 q 500 989 383 989 q 699 945 618 989 q 831 827 781 901 q 904 665 881 754 q 927 486 927 576 q 904 307 927 396 q 831 145 881 218 q 699 27 781 72 q 500 -17 618 -17 m 500 176 q 603 205 561 176 q 671 280 645 233 q 708 381 697 327 q 720 486 720 435 q 709 595 720 540 q 673 696 698 650 q 605 769 647 742 q 500 797 563 797 q 395 768 438 797 q 327 693 353 740 q 290 592 301 647 q 279 486 279 537 q 291 378 279 433 q 328 278 302 324 q 397 204 354 232 q 500 176 439 176 m 519 -342 q 394 -299 442 -342 q 347 -189 347 -256 q 398 -67 347 -119 q 537 14 449 -15 l 667 14 q 567 -44 603 -12 q 516 -111 531 -77 q 501 -173 501 -144 q 515 -217 501 -204 q 548 -231 529 -231 q 580 -223 566 -231 q 603 -203 594 -215 l 690 -265 q 631 -315 670 -288 q 519 -342 591 -342 z "},"Ǭ":{"ha":999,"x_min":72,"x_max":927,"o":"m 500 -17 q 301 27 383 -17 q 169 145 219 72 q 95 307 119 218 q 72 486 72 396 q 95 665 72 576 q 169 827 119 754 q 301 945 219 901 q 500 989 383 989 q 699 945 618 989 q 831 827 781 901 q 904 665 881 754 q 927 486 927 576 q 904 307 927 396 q 831 145 881 218 q 699 27 781 72 q 500 -17 618 -17 m 500 176 q 603 205 561 176 q 671 280 645 233 q 708 381 697 327 q 720 486 720 435 q 709 595 720 540 q 673 696 698 650 q 605 769 647 742 q 500 797 563 797 q 395 768 438 797 q 327 693 353 740 q 290 592 301 647 q 279 486 279 537 q 291 378 279 433 q 328 278 302 324 q 397 204 354 232 q 500 176 439 176 m 519 -342 q 394 -299 442 -342 q 347 -189 347 -256 q 398 -67 347 -119 q 537 14 449 -15 l 667 14 q 567 -44 603 -12 q 516 -111 531 -77 q 501 -173 501 -144 q 515 -217 501 -204 q 548 -231 529 -231 q 580 -223 566 -231 q 603 -203 594 -215 l 690 -265 q 631 -315 670 -288 q 519 -342 591 -342 m 272 1074 l 272 1229 l 730 1229 l 730 1074 l 272 1074 z "},"Ɔ":{"ha":922,"x_min":48,"x_max":849,"o":"m 422 -17 q 254 16 327 -17 q 130 105 181 49 q 48 233 78 162 l 231 302 q 281 232 253 260 q 343 190 308 203 q 422 176 378 176 q 524 204 482 176 q 592 277 566 231 q 631 377 619 322 q 642 486 642 432 q 632 593 642 538 q 597 694 622 647 q 529 769 572 740 q 422 797 486 797 q 345 783 380 797 q 284 742 311 769 q 235 679 257 715 l 57 760 q 130 870 81 817 q 251 956 178 922 q 422 989 324 989 q 624 943 542 989 q 756 822 706 897 q 827 659 805 747 q 849 486 849 571 q 827 306 849 395 q 754 144 804 217 q 622 27 704 71 q 422 -17 540 -17 z "},"Ø":{"ha":999,"x_min":70,"x_max":929,"o":"m 70 -17 l 174 139 q 96 303 119 213 q 72 486 72 394 q 95 665 72 576 q 169 827 119 754 q 301 945 219 901 q 500 989 383 989 q 614 976 563 989 q 710 939 665 963 l 743 989 l 929 989 l 827 834 q 903 670 880 760 q 927 486 927 580 q 904 307 927 396 q 831 145 881 218 q 699 27 781 72 q 500 -17 617 -17 q 384 -3 436 -17 q 290 34 332 10 l 256 -17 l 70 -17 m 500 176 q 603 205 561 176 q 671 280 645 233 q 708 381 697 327 q 720 486 720 435 q 715 565 720 526 q 697 642 710 604 l 401 200 q 446 183 422 190 q 500 176 471 176 m 301 331 l 597 772 q 554 791 578 784 q 500 797 530 797 q 395 768 438 797 q 327 693 353 740 q 290 592 301 647 q 279 486 279 537 q 284 408 279 448 q 301 331 289 369 z "},"Ǿ":{"ha":999,"x_min":70,"x_max":929,"o":"m 70 -17 l 174 139 q 96 303 119 213 q 72 486 72 394 q 95 665 72 576 q 169 827 119 754 q 301 945 219 901 q 500 989 383 989 q 614 976 563 989 q 710 939 665 963 l 743 989 l 929 989 l 827 834 q 903 670 880 760 q 927 486 927 580 q 904 307 927 396 q 831 145 881 218 q 699 27 781 72 q 500 -17 617 -17 q 384 -3 436 -17 q 290 34 332 10 l 256 -17 l 70 -17 m 500 176 q 603 205 561 176 q 671 280 645 233 q 708 381 697 327 q 720 486 720 435 q 715 565 720 526 q 697 642 710 604 l 401 200 q 446 183 422 190 q 500 176 471 176 m 301 331 l 597 772 q 554 791 578 784 q 500 797 530 797 q 395 768 438 797 q 327 693 353 740 q 290 592 301 647 q 279 486 279 537 q 284 408 279 448 q 301 331 289 369 m 347 1063 l 544 1279 l 775 1279 l 528 1063 l 347 1063 z "},"Õ":{"ha":999,"x_min":72,"x_max":927,"o":"m 500 -17 q 301 27 383 -17 q 169 145 219 72 q 95 307 119 218 q 72 486 72 396 q 95 665 72 576 q 169 827 119 754 q 301 945 219 901 q 500 989 383 989 q 699 945 618 989 q 831 827 781 901 q 904 665 881 754 q 927 486 927 576 q 904 307 927 396 q 831 145 881 218 q 699 27 781 72 q 500 -17 618 -17 m 500 176 q 603 205 561 176 q 671 280 645 233 q 708 381 697 327 q 720 486 720 435 q 709 595 720 540 q 673 696 698 650 q 605 769 647 742 q 500 797 563 797 q 395 768 438 797 q 327 693 353 740 q 290 592 301 647 q 279 486 279 537 q 291 378 279 433 q 328 278 302 324 q 397 204 354 232 q 500 176 439 176 m 611 1072 q 539 1084 572 1072 q 478 1108 506 1095 q 430 1127 453 1119 q 382 1136 406 1136 q 336 1123 356 1136 q 317 1078 317 1110 l 227 1078 q 243 1176 227 1133 q 294 1245 258 1220 q 392 1271 331 1271 q 463 1260 431 1271 q 523 1237 494 1250 q 572 1217 547 1226 q 621 1208 596 1208 q 666 1220 647 1208 q 686 1265 685 1233 l 774 1265 q 758 1168 774 1212 q 707 1098 743 1124 q 611 1072 672 1072 z "},"Ṍ":{"ha":999,"x_min":72,"x_max":927,"o":"m 500 -17 q 301 27 383 -17 q 169 145 219 72 q 95 307 119 218 q 72 486 72 396 q 95 665 72 576 q 169 827 119 754 q 301 945 219 901 q 500 989 383 989 q 699 945 618 989 q 831 827 781 901 q 904 665 881 754 q 927 486 927 576 q 904 307 927 396 q 831 145 881 218 q 699 27 781 72 q 500 -17 618 -17 m 500 176 q 603 205 561 176 q 671 280 645 233 q 708 381 697 327 q 720 486 720 435 q 709 595 720 540 q 673 696 698 650 q 605 769 647 742 q 500 797 563 797 q 395 768 438 797 q 327 693 353 740 q 290 592 301 647 q 279 486 279 537 q 291 378 279 433 q 328 278 302 324 q 397 204 354 232 q 500 176 439 176 m 611 1072 q 539 1084 572 1072 q 478 1108 506 1095 q 430 1127 453 1119 q 382 1136 406 1136 q 336 1123 356 1136 q 317 1078 317 1110 l 227 1078 q 243 1176 227 1133 q 294 1245 258 1220 q 392 1271 331 1271 q 463 1260 431 1271 q 523 1237 494 1250 q 572 1217 547 1226 q 621 1208 596 1208 q 666 1220 647 1208 q 686 1265 685 1233 l 774 1265 q 758 1168 774 1212 q 707 1098 743 1124 q 611 1072 672 1072 m 347 1361 l 544 1578 l 775 1578 l 528 1361 l 347 1361 z "},"Ȭ":{"ha":999,"x_min":72,"x_max":927,"o":"m 500 -17 q 301 27 383 -17 q 169 145 219 72 q 95 307 119 218 q 72 486 72 396 q 95 665 72 576 q 169 827 119 754 q 301 945 219 901 q 500 989 383 989 q 699 945 618 989 q 831 827 781 901 q 904 665 881 754 q 927 486 927 576 q 904 307 927 396 q 831 145 881 218 q 699 27 781 72 q 500 -17 618 -17 m 500 176 q 603 205 561 176 q 671 280 645 233 q 708 381 697 327 q 720 486 720 435 q 709 595 720 540 q 673 696 698 650 q 605 769 647 742 q 500 797 563 797 q 395 768 438 797 q 327 693 353 740 q 290 592 301 647 q 279 486 279 537 q 291 378 279 433 q 328 278 302 324 q 397 204 354 232 q 500 176 439 176 m 611 1072 q 539 1084 572 1072 q 478 1108 506 1095 q 430 1127 453 1119 q 382 1136 406 1136 q 336 1123 356 1136 q 317 1078 317 1110 l 227 1078 q 243 1176 227 1133 q 294 1245 258 1220 q 392 1271 331 1271 q 463 1260 431 1271 q 523 1237 494 1250 q 572 1217 547 1226 q 621 1208 596 1208 q 666 1220 647 1208 q 686 1265 685 1233 l 774 1265 q 758 1168 774 1212 q 707 1098 743 1124 q 611 1072 672 1072 m 272 1373 l 272 1528 l 730 1528 l 730 1373 l 272 1373 z "},"Œ":{"ha":1375,"x_min":72,"x_max":1317,"o":"m 501 -17 q 302 27 384 -17 q 169 145 220 72 q 95 307 119 218 q 72 486 72 396 q 96 669 72 580 q 171 831 120 758 q 304 946 222 903 q 501 989 386 989 q 582 982 544 989 q 650 965 620 975 l 650 972 l 1288 972 l 1288 783 l 851 783 l 851 597 l 1081 597 l 1081 407 l 851 407 l 851 191 l 1317 191 l 1317 0 l 650 0 l 650 8 q 570 -12 603 -7 q 501 -17 536 -17 m 501 176 q 585 194 547 176 q 650 243 623 212 l 650 733 q 586 780 622 763 q 501 797 551 797 q 396 769 439 797 q 328 694 353 740 q 291 593 302 647 q 279 486 279 538 q 291 377 279 432 q 328 277 302 322 q 397 204 354 231 q 501 176 440 176 z "},"P":{"ha":890,"x_min":108,"x_max":867,"o":"m 108 0 l 108 972 l 532 972 q 729 927 656 972 q 835 810 803 881 q 867 663 867 740 q 848 555 867 609 q 789 455 829 500 q 685 381 749 409 q 532 353 622 353 l 308 353 l 308 0 l 108 0 m 308 542 l 540 542 q 610 560 584 542 q 649 606 637 578 q 660 663 660 634 q 650 717 660 689 q 613 765 639 745 q 540 784 586 784 l 308 784 l 308 542 z "},"Ƥ":{"ha":1144,"x_min":-9,"x_max":1119,"o":"m 179 585 l -9 681 q 39 838 3 773 q 145 938 75 903 q 329 972 215 972 l 547 972 l 547 786 l 337 786 q 222 738 254 786 q 179 585 190 689 m 361 0 l 361 972 l 785 972 q 982 927 909 972 q 1088 810 1056 881 q 1119 663 1119 740 q 1101 555 1119 609 q 1042 455 1082 500 q 938 381 1002 409 q 785 353 874 353 l 561 353 l 561 0 l 361 0 m 561 542 l 793 542 q 863 560 837 542 q 901 606 890 578 q 913 663 913 634 q 902 717 913 689 q 865 765 892 745 q 793 784 839 784 l 561 784 l 561 542 z "},"Þ":{"ha":902,"x_min":108,"x_max":867,"o":"m 108 0 l 108 972 l 308 972 l 308 804 l 534 804 q 731 759 658 804 q 835 642 803 713 q 867 494 867 571 q 848 386 867 440 q 790 286 830 332 q 687 213 750 240 q 534 185 624 185 l 308 185 l 308 0 l 108 0 m 308 374 l 540 374 q 610 392 584 374 q 649 438 637 410 q 660 494 660 466 q 650 548 660 520 q 613 596 639 576 q 540 615 586 615 l 308 615 l 308 374 z "},"Q":{"ha":1001,"x_min":72,"x_max":928,"o":"m 720 -110 l 642 4 q 576 -11 610 -5 q 501 -17 542 -17 q 302 27 384 -17 q 169 145 220 72 q 95 307 119 218 q 72 486 72 396 q 95 665 72 576 q 169 827 119 754 q 302 945 220 901 q 501 989 384 989 q 700 945 619 989 q 832 827 782 901 q 906 665 883 754 q 928 486 928 576 q 914 343 928 414 q 870 209 900 272 q 791 94 840 145 l 866 -15 l 720 -110 m 500 176 q 514 177 508 176 q 525 181 520 178 l 448 294 l 596 390 l 672 276 q 709 377 698 319 q 721 486 721 435 q 710 595 721 540 q 674 696 699 650 q 606 769 649 742 q 501 797 564 797 q 395 768 438 797 q 327 693 353 740 q 290 592 301 647 q 279 486 279 537 q 291 378 279 433 q 328 278 302 324 q 397 204 354 232 q 500 176 439 176 z "},"R":{"ha":969,"x_min":108,"x_max":901,"o":"m 108 0 l 108 972 l 571 972 q 765 930 693 972 q 868 816 837 887 q 899 664 899 746 q 878 553 899 609 q 817 450 858 497 q 715 382 776 404 l 901 0 l 678 0 l 499 352 l 308 352 l 308 0 l 108 0 m 308 540 l 574 540 q 644 558 618 540 q 681 603 670 575 q 692 663 692 631 q 682 720 692 692 q 645 766 672 748 q 574 784 619 784 l 308 784 l 308 540 z "},"Ŕ":{"ha":969,"x_min":108,"x_max":901,"o":"m 108 0 l 108 972 l 571 972 q 765 930 693 972 q 868 816 837 887 q 899 664 899 746 q 878 553 899 609 q 817 450 858 497 q 715 382 776 404 l 901 0 l 678 0 l 499 352 l 308 352 l 308 0 l 108 0 m 308 540 l 574 540 q 644 558 618 540 q 681 603 670 575 q 692 663 692 631 q 682 720 692 692 q 645 766 672 748 q 574 784 619 784 l 308 784 l 308 540 m 321 1063 l 518 1279 l 749 1279 l 502 1063 l 321 1063 z "},"Ř":{"ha":969,"x_min":108,"x_max":901,"o":"m 108 0 l 108 972 l 571 972 q 765 930 693 972 q 868 816 837 887 q 899 664 899 746 q 878 553 899 609 q 817 450 858 497 q 715 382 776 404 l 901 0 l 678 0 l 499 352 l 308 352 l 308 0 l 108 0 m 308 540 l 574 540 q 644 558 618 540 q 681 603 670 575 q 692 663 692 631 q 682 720 692 692 q 645 766 672 748 q 574 784 619 784 l 308 784 l 308 540 m 385 1063 l 188 1279 l 360 1279 l 475 1186 l 589 1279 l 761 1279 l 563 1063 l 385 1063 z "},"Ŗ":{"ha":969,"x_min":108,"x_max":901,"o":"m 108 0 l 108 972 l 571 972 q 765 930 693 972 q 868 816 837 887 q 899 664 899 746 q 878 553 899 609 q 817 450 858 497 q 715 382 776 404 l 901 0 l 678 0 l 499 352 l 308 352 l 308 0 l 108 0 m 308 540 l 574 540 q 644 558 618 540 q 681 603 670 575 q 692 663 692 631 q 682 720 692 692 q 645 766 672 748 q 574 784 619 784 l 308 784 l 308 540 m 463 -409 l 397 -367 q 440 -316 423 -340 q 465 -262 457 -292 q 403 -234 431 -259 q 376 -162 376 -208 q 407 -87 376 -118 q 487 -57 438 -57 q 564 -87 533 -57 q 594 -174 594 -117 q 559 -298 594 -237 q 463 -409 524 -360 z "},"Ȑ":{"ha":969,"x_min":-15,"x_max":901,"o":"m 108 0 l 108 972 l 571 972 q 765 930 693 972 q 868 816 837 887 q 899 664 899 746 q 878 553 899 609 q 817 450 858 497 q 715 382 776 404 l 901 0 l 678 0 l 499 352 l 308 352 l 308 0 l 108 0 m 308 540 l 574 540 q 644 558 618 540 q 681 603 670 575 q 692 663 692 631 q 682 720 692 692 q 645 766 672 748 q 574 784 619 784 l 308 784 l 308 540 m 233 1063 l -15 1279 l 217 1279 l 414 1063 l 233 1063 m 542 1063 l 295 1279 l 526 1279 l 724 1063 l 542 1063 z "},"Ȓ":{"ha":969,"x_min":108,"x_max":901,"o":"m 108 0 l 108 972 l 571 972 q 765 930 693 972 q 868 816 837 887 q 899 664 899 746 q 878 553 899 609 q 817 450 858 497 q 715 382 776 404 l 901 0 l 678 0 l 499 352 l 308 352 l 308 0 l 108 0 m 308 540 l 574 540 q 644 558 618 540 q 681 603 670 575 q 692 663 692 631 q 682 720 692 692 q 645 766 672 748 q 574 784 619 784 l 308 784 l 308 540 m 222 1056 q 250 1173 222 1119 q 334 1260 278 1227 q 476 1293 391 1293 q 607 1264 555 1293 q 688 1186 659 1235 q 726 1081 717 1138 q 728 1068 728 1075 q 728 1056 728 1062 l 585 1056 q 584 1068 585 1062 q 582 1081 584 1075 q 550 1136 574 1112 q 476 1160 526 1160 q 410 1144 434 1160 q 375 1104 385 1128 q 365 1056 365 1080 l 222 1056 z "},"Ɍ":{"ha":997,"x_min":6,"x_max":929,"o":"m 6 352 l 6 540 l 417 540 l 417 352 l 6 352 m 136 0 l 136 972 l 599 972 q 793 930 721 972 q 895 816 865 887 q 926 664 926 746 q 906 553 926 609 q 844 450 885 497 q 743 382 803 404 l 929 0 l 706 0 l 526 352 l 336 352 l 336 0 l 136 0 m 336 540 l 601 540 q 672 558 646 540 q 709 603 698 575 q 719 663 719 631 q 709 720 719 692 q 673 766 699 748 q 601 784 647 784 l 336 784 l 336 540 z "},"Ɽ":{"ha":969,"x_min":108,"x_max":901,"o":"m 408 -342 q 185 -235 263 -313 q 108 -8 108 -158 l 108 972 l 571 972 q 765 930 693 972 q 868 816 837 887 q 899 664 899 746 q 878 553 899 609 q 817 450 858 497 q 715 382 776 404 l 901 0 l 678 0 l 499 352 l 308 352 l 308 -16 q 327 -101 308 -69 q 390 -152 346 -133 q 507 -187 433 -172 l 408 -342 m 308 540 l 574 540 q 644 558 618 540 q 681 603 670 575 q 692 663 692 631 q 682 720 692 692 q 645 766 672 748 q 574 784 619 784 l 308 784 l 308 540 z "},"S":{"ha":858,"x_min":53,"x_max":793,"o":"m 436 -17 q 267 17 343 -17 q 136 112 190 50 q 53 259 81 174 l 232 326 q 319 215 264 258 q 441 172 374 172 q 552 199 510 172 q 594 280 594 227 q 569 340 594 316 q 503 381 545 363 q 406 417 460 399 q 296 457 351 435 q 194 511 240 478 q 119 594 147 544 q 91 719 91 644 q 130 854 91 792 q 244 952 169 915 q 425 989 319 989 q 581 958 513 989 q 693 874 649 927 q 756 756 738 822 l 578 697 q 520 771 558 741 q 415 801 482 801 q 323 779 355 801 q 290 715 290 757 q 312 669 290 688 q 373 635 334 650 q 461 602 411 619 q 580 558 521 582 q 687 498 639 533 q 764 410 735 463 q 793 279 793 357 q 746 119 793 185 q 618 18 699 53 q 436 -17 537 -17 z "},"Ś":{"ha":858,"x_min":53,"x_max":793,"o":"m 436 -17 q 267 17 343 -17 q 136 112 190 50 q 53 259 81 174 l 232 326 q 319 215 264 258 q 441 172 374 172 q 552 199 510 172 q 594 280 594 227 q 569 340 594 316 q 503 381 545 363 q 406 417 460 399 q 296 457 351 435 q 194 511 240 478 q 119 594 147 544 q 91 719 91 644 q 130 854 91 792 q 244 952 169 915 q 425 989 319 989 q 581 958 513 989 q 693 874 649 927 q 756 756 738 822 l 578 697 q 520 771 558 741 q 415 801 482 801 q 323 779 355 801 q 290 715 290 757 q 312 669 290 688 q 373 635 334 650 q 461 602 411 619 q 580 558 521 582 q 687 498 639 533 q 764 410 735 463 q 793 279 793 357 q 746 119 793 185 q 618 18 699 53 q 436 -17 537 -17 m 272 1063 l 469 1279 l 701 1279 l 453 1063 l 272 1063 z "},"Ꞌ":{"ha":417,"x_min":108,"x_max":308,"o":"m 152 268 l 108 674 l 108 972 l 308 972 l 308 674 l 265 268 l 152 268 z "},"Š":{"ha":858,"x_min":53,"x_max":793,"o":"m 436 -17 q 267 17 343 -17 q 136 112 190 50 q 53 259 81 174 l 232 326 q 319 215 264 258 q 441 172 374 172 q 552 199 510 172 q 594 280 594 227 q 569 340 594 316 q 503 381 545 363 q 406 417 460 399 q 296 457 351 435 q 194 511 240 478 q 119 594 147 544 q 91 719 91 644 q 130 854 91 792 q 244 952 169 915 q 425 989 319 989 q 581 958 513 989 q 693 874 649 927 q 756 756 738 822 l 578 697 q 520 771 558 741 q 415 801 482 801 q 323 779 355 801 q 290 715 290 757 q 312 669 290 688 q 373 635 334 650 q 461 602 411 619 q 580 558 521 582 q 687 498 639 533 q 764 410 735 463 q 793 279 793 357 q 746 119 793 185 q 618 18 699 53 q 436 -17 537 -17 m 336 1063 l 139 1279 l 312 1279 l 426 1186 l 540 1279 l 713 1279 l 515 1063 l 336 1063 z "},"Ş":{"ha":858,"x_min":53,"x_max":793,"o":"m 436 -17 q 267 17 343 -17 q 136 112 190 50 q 53 259 81 174 l 232 326 q 319 215 264 258 q 441 172 374 172 q 552 199 510 172 q 594 280 594 227 q 569 340 594 316 q 503 381 545 363 q 406 417 460 399 q 296 457 351 435 q 194 511 240 478 q 119 594 147 544 q 91 719 91 644 q 130 854 91 792 q 244 952 169 915 q 425 989 319 989 q 581 958 513 989 q 693 874 649 927 q 756 756 738 822 l 578 697 q 520 771 558 741 q 415 801 482 801 q 323 779 355 801 q 290 715 290 757 q 312 669 290 688 q 373 635 334 650 q 461 602 411 619 q 580 558 521 582 q 687 498 639 533 q 764 410 735 463 q 793 279 793 357 q 746 119 793 185 q 618 18 699 53 q 436 -17 537 -17 m 419 -342 q 320 -322 358 -342 q 262 -272 283 -301 l 342 -212 q 365 -232 350 -224 q 400 -240 381 -240 q 449 -226 432 -240 q 465 -187 465 -212 q 449 -149 465 -162 q 399 -135 432 -135 q 368 -141 383 -135 q 339 -156 353 -147 l 298 -107 l 382 0 l 488 0 l 453 -62 q 573 -98 535 -62 q 611 -189 611 -134 q 561 -298 611 -255 q 419 -342 512 -342 z "},"Ŝ":{"ha":858,"x_min":53,"x_max":793,"o":"m 436 -17 q 267 17 343 -17 q 136 112 190 50 q 53 259 81 174 l 232 326 q 319 215 264 258 q 441 172 374 172 q 552 199 510 172 q 594 280 594 227 q 569 340 594 316 q 503 381 545 363 q 406 417 460 399 q 296 457 351 435 q 194 511 240 478 q 119 594 147 544 q 91 719 91 644 q 130 854 91 792 q 244 952 169 915 q 425 989 319 989 q 581 958 513 989 q 693 874 649 927 q 756 756 738 822 l 578 697 q 520 771 558 741 q 415 801 482 801 q 323 779 355 801 q 290 715 290 757 q 312 669 290 688 q 373 635 334 650 q 461 602 411 619 q 580 558 521 582 q 687 498 639 533 q 764 410 735 463 q 793 279 793 357 q 746 119 793 185 q 618 18 699 53 q 436 -17 537 -17 m 140 1063 l 339 1279 l 517 1279 l 715 1063 l 542 1063 l 428 1156 l 313 1063 l 140 1063 z "},"Ș":{"ha":858,"x_min":53,"x_max":793,"o":"m 436 -17 q 267 17 343 -17 q 136 112 190 50 q 53 259 81 174 l 232 326 q 319 215 264 258 q 441 172 374 172 q 552 199 510 172 q 594 280 594 227 q 569 340 594 316 q 503 381 545 363 q 406 417 460 399 q 296 457 351 435 q 194 511 240 478 q 119 594 147 544 q 91 719 91 644 q 130 854 91 792 q 244 952 169 915 q 425 989 319 989 q 581 958 513 989 q 693 874 649 927 q 756 756 738 822 l 578 697 q 520 771 558 741 q 415 801 482 801 q 323 779 355 801 q 290 715 290 757 q 312 669 290 688 q 373 635 334 650 q 461 602 411 619 q 580 558 521 582 q 687 498 639 533 q 764 410 735 463 q 793 279 793 357 q 746 119 793 185 q 618 18 699 53 q 436 -17 537 -17 m 413 -409 l 347 -367 q 389 -316 372 -340 q 415 -262 406 -292 q 353 -234 380 -259 q 326 -162 326 -208 q 356 -87 326 -118 q 436 -57 387 -57 q 513 -87 483 -57 q 543 -174 543 -117 q 508 -298 543 -237 q 413 -409 474 -360 z "},"Ṣ":{"ha":858,"x_min":53,"x_max":793,"o":"m 436 -17 q 267 17 343 -17 q 136 112 190 50 q 53 259 81 174 l 232 326 q 319 215 264 258 q 441 172 374 172 q 552 199 510 172 q 594 280 594 227 q 569 340 594 316 q 503 381 545 363 q 406 417 460 399 q 296 457 351 435 q 194 511 240 478 q 119 594 147 544 q 91 719 91 644 q 130 854 91 792 q 244 952 169 915 q 425 989 319 989 q 581 958 513 989 q 693 874 649 927 q 756 756 738 822 l 578 697 q 520 771 558 741 q 415 801 482 801 q 323 779 355 801 q 290 715 290 757 q 312 669 290 688 q 373 635 334 650 q 461 602 411 619 q 580 558 521 582 q 687 498 639 533 q 764 410 735 463 q 793 279 793 357 q 746 119 793 185 q 618 18 699 53 q 436 -17 537 -17 m 437 -304 q 362 -274 392 -304 q 332 -199 332 -243 q 362 -124 332 -153 q 437 -94 392 -94 q 511 -124 481 -94 q 541 -199 541 -153 q 511 -274 541 -243 q 437 -304 481 -304 z "},"ẞ":{"ha":1035,"x_min":108,"x_max":970,"o":"m 108 0 l 108 972 l 833 972 l 833 812 l 650 783 l 308 783 l 308 0 l 108 0 m 640 -17 q 488 10 556 -17 q 370 83 421 37 l 492 233 q 561 189 522 206 q 644 172 600 172 q 736 201 701 172 q 771 289 771 231 q 756 342 771 319 q 717 386 742 365 q 660 429 692 406 q 585 490 621 458 q 526 564 549 522 q 504 661 504 605 q 536 760 504 718 q 620 832 569 803 q 728 878 671 862 q 833 900 785 895 l 833 806 q 763 786 792 802 q 719 748 734 771 q 703 698 703 724 q 730 628 703 658 q 799 566 756 598 q 880 502 840 537 q 944 416 919 467 q 970 288 970 365 q 927 124 970 192 q 809 19 884 56 q 640 -17 734 -17 z "},"Ə":{"ha":994,"x_min":72,"x_max":922,"o":"m 496 -17 q 273 40 368 -17 q 125 205 178 97 q 72 465 72 313 q 73 521 72 493 q 76 578 74 549 l 706 578 q 669 691 698 642 q 594 768 640 740 q 485 797 547 797 q 373 773 424 797 q 269 701 322 750 l 147 837 q 302 950 216 912 q 500 989 389 989 q 728 925 633 989 q 872 747 822 860 q 922 485 922 633 q 868 214 922 326 q 719 42 815 101 q 496 -17 623 -17 m 488 176 q 590 201 544 176 q 665 274 635 226 q 705 388 694 321 l 283 388 q 311 279 286 327 q 380 204 335 231 q 488 176 425 176 z "},"T":{"ha":845,"x_min":44,"x_max":801,"o":"m 322 0 l 322 781 l 44 781 l 44 972 l 801 972 l 801 781 l 522 781 l 522 0 l 322 0 z "},"Ŧ":{"ha":845,"x_min":44,"x_max":801,"o":"m 169 351 l 169 537 l 678 537 l 678 351 l 169 351 m 322 0 l 322 781 l 44 781 l 44 972 l 801 972 l 801 781 l 522 781 l 522 0 l 322 0 z "},"Ť":{"ha":845,"x_min":44,"x_max":801,"o":"m 322 0 l 322 781 l 44 781 l 44 972 l 801 972 l 801 781 l 522 781 l 522 0 l 322 0 m 333 1063 l 135 1279 l 308 1279 l 423 1186 l 537 1279 l 709 1279 l 511 1063 l 333 1063 z "},"Ţ":{"ha":845,"x_min":44,"x_max":801,"o":"m 322 0 l 322 781 l 44 781 l 44 972 l 801 972 l 801 781 l 522 781 l 522 0 l 322 0 m 406 -342 q 307 -322 345 -342 q 249 -272 269 -301 l 328 -212 q 352 -232 337 -224 q 387 -240 367 -240 q 435 -226 419 -240 q 452 -187 452 -212 q 435 -149 452 -162 q 386 -135 419 -135 q 355 -141 369 -135 q 326 -156 340 -147 l 285 -107 l 369 0 l 474 0 l 440 -62 q 560 -98 522 -62 q 598 -189 598 -134 q 548 -298 598 -255 q 406 -342 499 -342 z "},"Ṱ":{"ha":845,"x_min":44,"x_max":801,"o":"m 322 0 l 322 781 l 44 781 l 44 972 l 801 972 l 801 781 l 522 781 l 522 0 l 322 0 m 135 -318 l 334 -101 l 513 -101 l 710 -318 l 537 -318 l 424 -224 l 308 -318 l 135 -318 z "},"Ț":{"ha":845,"x_min":44,"x_max":801,"o":"m 322 0 l 322 781 l 44 781 l 44 972 l 801 972 l 801 781 l 522 781 l 522 0 l 322 0 m 399 -409 l 333 -367 q 376 -316 359 -340 q 401 -262 393 -292 q 340 -234 367 -259 q 313 -162 313 -208 q 343 -87 313 -118 q 423 -57 374 -57 q 500 -87 469 -57 q 530 -174 530 -117 q 495 -298 530 -237 q 399 -409 460 -360 z "},"Ṭ":{"ha":845,"x_min":44,"x_max":801,"o":"m 322 0 l 322 781 l 44 781 l 44 972 l 801 972 l 801 781 l 522 781 l 522 0 l 322 0 m 424 -304 q 349 -274 378 -304 q 319 -199 319 -243 q 349 -124 319 -153 q 424 -94 378 -94 q 498 -124 468 -94 q 528 -199 528 -153 q 498 -274 528 -243 q 424 -304 468 -304 z "},"Ƭ":{"ha":1023,"x_min":-9,"x_max":978,"o":"m 500 0 l 500 781 l 337 781 q 222 734 254 781 q 179 585 190 687 l -9 681 q 39 838 3 773 q 145 938 75 903 q 329 972 215 972 l 978 972 l 978 781 l 699 781 l 699 0 l 500 0 z "},"Ṯ":{"ha":845,"x_min":44,"x_max":801,"o":"m 322 0 l 322 781 l 44 781 l 44 972 l 801 972 l 801 781 l 522 781 l 522 0 l 322 0 m 194 -252 l 194 -97 l 653 -97 l 653 -252 l 194 -252 z "},"Ʈ":{"ha":845,"x_min":44,"x_max":801,"o":"m 622 -342 q 399 -235 476 -313 q 322 -8 322 -158 l 322 781 l 44 781 l 44 972 l 801 972 l 801 781 l 522 781 l 522 -13 q 541 -99 522 -67 q 604 -151 560 -131 q 722 -186 648 -170 l 622 -342 z "},"U":{"ha":999,"x_min":101,"x_max":898,"o":"m 500 -17 q 287 29 376 -17 q 149 162 197 75 q 101 373 101 249 l 101 972 l 301 972 l 301 373 q 349 222 301 267 q 500 176 397 176 q 609 195 565 176 q 676 257 653 214 q 698 373 698 301 l 698 972 l 898 972 l 898 373 q 865 192 898 267 q 776 72 832 118 q 648 5 719 26 q 500 -17 577 -17 z "},"Ú":{"ha":999,"x_min":101,"x_max":898,"o":"m 500 -17 q 287 29 376 -17 q 149 162 197 75 q 101 373 101 249 l 101 972 l 301 972 l 301 373 q 349 222 301 267 q 500 176 397 176 q 609 195 565 176 q 676 257 653 214 q 698 373 698 301 l 698 972 l 898 972 l 898 373 q 865 192 898 267 q 776 72 832 118 q 648 5 719 26 q 500 -17 577 -17 m 345 1063 l 542 1279 l 774 1279 l 526 1063 l 345 1063 z "},"Ʉ":{"ha":1142,"x_min":29,"x_max":1113,"o":"m 572 -17 q 360 29 449 -17 q 222 162 270 75 q 174 373 174 249 l 174 407 l 29 407 l 29 594 l 174 594 l 174 972 l 374 972 l 374 594 l 771 594 l 771 972 l 970 972 l 970 594 l 1113 594 l 1113 407 l 970 407 l 970 373 q 938 192 970 267 q 849 72 905 118 q 721 5 792 26 q 572 -17 649 -17 m 572 176 q 682 195 638 176 q 749 257 726 214 q 771 373 771 301 l 771 407 l 374 407 l 374 373 q 422 222 374 267 q 572 176 469 176 z "},"Ŭ":{"ha":999,"x_min":101,"x_max":898,"o":"m 500 -17 q 287 29 376 -17 q 149 162 197 75 q 101 373 101 249 l 101 972 l 301 972 l 301 373 q 349 222 301 267 q 500 176 397 176 q 609 195 565 176 q 676 257 653 214 q 698 373 698 301 l 698 972 l 898 972 l 898 373 q 865 192 898 267 q 776 72 832 118 q 648 5 719 26 q 500 -17 577 -17 m 499 1056 q 358 1089 414 1056 q 274 1176 302 1122 q 246 1293 246 1230 l 389 1293 q 398 1245 389 1269 q 431 1205 407 1221 q 499 1189 454 1189 q 566 1205 542 1189 q 600 1245 590 1221 q 609 1293 609 1269 l 752 1293 q 724 1176 752 1230 q 639 1089 695 1122 q 499 1056 583 1056 z "},"Ǔ":{"ha":999,"x_min":101,"x_max":898,"o":"m 500 -17 q 287 29 376 -17 q 149 162 197 75 q 101 373 101 249 l 101 972 l 301 972 l 301 373 q 349 222 301 267 q 500 176 397 176 q 609 195 565 176 q 676 257 653 214 q 698 373 698 301 l 698 972 l 898 972 l 898 373 q 865 192 898 267 q 776 72 832 118 q 648 5 719 26 q 500 -17 577 -17 m 408 1063 l 211 1279 l 384 1279 l 499 1186 l 613 1279 l 785 1279 l 587 1063 l 408 1063 z "},"Û":{"ha":999,"x_min":101,"x_max":898,"o":"m 500 -17 q 287 29 376 -17 q 149 162 197 75 q 101 373 101 249 l 101 972 l 301 972 l 301 373 q 349 222 301 267 q 500 176 397 176 q 609 195 565 176 q 676 257 653 214 q 698 373 698 301 l 698 972 l 898 972 l 898 373 q 865 192 898 267 q 776 72 832 118 q 648 5 719 26 q 500 -17 577 -17 m 213 1063 l 411 1279 l 590 1279 l 787 1063 l 614 1063 l 501 1156 l 385 1063 l 213 1063 z "},"Ȕ":{"ha":999,"x_min":10,"x_max":898,"o":"m 500 -17 q 287 29 376 -17 q 149 162 197 75 q 101 373 101 249 l 101 972 l 301 972 l 301 373 q 349 222 301 267 q 500 176 397 176 q 609 195 565 176 q 676 257 653 214 q 698 373 698 301 l 698 972 l 898 972 l 898 373 q 865 192 898 267 q 776 72 832 118 q 648 5 719 26 q 500 -17 577 -17 m 257 1063 l 10 1279 l 241 1279 l 438 1063 l 257 1063 m 567 1063 l 319 1279 l 551 1279 l 748 1063 l 567 1063 z "},"Ü":{"ha":999,"x_min":101,"x_max":898,"o":"m 500 -17 q 287 29 376 -17 q 149 162 197 75 q 101 373 101 249 l 101 972 l 301 972 l 301 373 q 349 222 301 267 q 500 176 397 176 q 609 195 565 176 q 676 257 653 214 q 698 373 698 301 l 698 972 l 898 972 l 898 373 q 865 192 898 267 q 776 72 832 118 q 648 5 719 26 q 500 -17 577 -17 m 641 1067 q 566 1096 595 1067 q 536 1171 536 1126 q 566 1245 536 1216 q 641 1275 595 1275 q 715 1245 685 1275 q 745 1171 745 1216 q 715 1096 745 1126 q 641 1067 685 1067 m 355 1067 q 280 1096 310 1067 q 251 1171 251 1126 q 280 1245 251 1216 q 355 1275 310 1275 q 430 1245 400 1275 q 460 1171 460 1216 q 430 1096 460 1126 q 355 1067 400 1067 z "},"Ǘ":{"ha":999,"x_min":101,"x_max":898,"o":"m 500 -17 q 287 29 376 -17 q 149 162 197 75 q 101 373 101 249 l 101 972 l 301 972 l 301 373 q 349 222 301 267 q 500 176 397 176 q 609 195 565 176 q 676 257 653 214 q 698 373 698 301 l 698 972 l 898 972 l 898 373 q 865 192 898 267 q 776 72 832 118 q 648 5 719 26 q 500 -17 577 -17 m 633 1053 q 557 1083 586 1053 q 527 1158 527 1113 q 557 1233 527 1203 q 633 1263 586 1263 q 707 1233 677 1263 q 737 1158 737 1203 q 707 1083 737 1113 q 633 1053 677 1053 m 365 1053 q 290 1083 319 1053 q 260 1158 260 1113 q 290 1233 260 1203 q 365 1263 319 1263 q 440 1233 410 1263 q 469 1158 469 1203 q 440 1083 469 1113 q 365 1053 410 1053 m 345 1353 l 542 1570 l 774 1570 l 526 1353 l 345 1353 z "},"Ǚ":{"ha":999,"x_min":101,"x_max":898,"o":"m 500 -17 q 287 29 376 -17 q 149 162 197 75 q 101 373 101 249 l 101 972 l 301 972 l 301 373 q 349 222 301 267 q 500 176 397 176 q 609 195 565 176 q 676 257 653 214 q 698 373 698 301 l 698 972 l 898 972 l 898 373 q 865 192 898 267 q 776 72 832 118 q 648 5 719 26 q 500 -17 577 -17 m 633 1053 q 557 1083 586 1053 q 527 1158 527 1113 q 557 1233 527 1203 q 633 1263 586 1263 q 707 1233 677 1263 q 737 1158 737 1203 q 707 1083 737 1113 q 633 1053 677 1053 m 365 1053 q 290 1083 319 1053 q 260 1158 260 1113 q 290 1233 260 1203 q 365 1263 319 1263 q 440 1233 410 1263 q 469 1158 469 1203 q 440 1083 469 1113 q 365 1053 410 1053 m 409 1353 l 212 1570 l 385 1570 l 499 1477 l 613 1570 l 785 1570 l 588 1353 l 409 1353 z "},"Ǜ":{"ha":999,"x_min":101,"x_max":898,"o":"m 500 -17 q 287 29 376 -17 q 149 162 197 75 q 101 373 101 249 l 101 972 l 301 972 l 301 373 q 349 222 301 267 q 500 176 397 176 q 609 195 565 176 q 676 257 653 214 q 698 373 698 301 l 698 972 l 898 972 l 898 373 q 865 192 898 267 q 776 72 832 118 q 648 5 719 26 q 500 -17 577 -17 m 633 1053 q 557 1083 586 1053 q 527 1158 527 1113 q 557 1233 527 1203 q 633 1263 586 1263 q 707 1233 677 1263 q 737 1158 737 1203 q 707 1083 737 1113 q 633 1053 677 1053 m 365 1053 q 290 1083 319 1053 q 260 1158 260 1113 q 290 1233 260 1203 q 365 1263 319 1263 q 440 1233 410 1263 q 469 1158 469 1203 q 440 1083 469 1113 q 365 1053 410 1053 m 440 1353 l 193 1570 l 424 1570 l 622 1353 l 440 1353 z "},"Ǖ":{"ha":999,"x_min":101,"x_max":898,"o":"m 500 -17 q 287 29 376 -17 q 149 162 197 75 q 101 373 101 249 l 101 972 l 301 972 l 301 373 q 349 222 301 267 q 500 176 397 176 q 609 195 565 176 q 676 257 653 214 q 698 373 698 301 l 698 972 l 898 972 l 898 373 q 865 192 898 267 q 776 72 832 118 q 648 5 719 26 q 500 -17 577 -17 m 633 1053 q 557 1083 586 1053 q 527 1158 527 1113 q 557 1233 527 1203 q 633 1263 586 1263 q 707 1233 677 1263 q 737 1158 737 1203 q 707 1083 737 1113 q 633 1053 677 1053 m 365 1053 q 290 1083 319 1053 q 260 1158 260 1113 q 290 1233 260 1203 q 365 1263 319 1263 q 440 1233 410 1263 q 469 1158 469 1203 q 440 1083 469 1113 q 365 1053 410 1053 m 270 1365 l 270 1520 l 728 1520 l 728 1365 l 270 1365 z "},"Ụ":{"ha":999,"x_min":101,"x_max":898,"o":"m 500 -17 q 287 29 376 -17 q 149 162 197 75 q 101 373 101 249 l 101 972 l 301 972 l 301 373 q 349 222 301 267 q 500 176 397 176 q 609 195 565 176 q 676 257 653 214 q 698 373 698 301 l 698 972 l 898 972 l 898 373 q 865 192 898 267 q 776 72 832 118 q 648 5 719 26 q 500 -17 577 -17 m 499 -304 q 424 -274 454 -304 q 394 -199 394 -243 q 424 -124 394 -153 q 499 -94 454 -94 q 574 -124 544 -94 q 603 -199 603 -153 q 574 -274 603 -243 q 499 -304 544 -304 z "},"Ù":{"ha":999,"x_min":101,"x_max":898,"o":"m 500 -17 q 287 29 376 -17 q 149 162 197 75 q 101 373 101 249 l 101 972 l 301 972 l 301 373 q 349 222 301 267 q 500 176 397 176 q 609 195 565 176 q 676 257 653 214 q 698 373 698 301 l 698 972 l 898 972 l 898 373 q 865 192 898 267 q 776 72 832 118 q 648 5 719 26 q 500 -17 577 -17 m 440 1063 l 193 1279 l 424 1279 l 622 1063 l 440 1063 z "},"Ủ":{"ha":999,"x_min":101,"x_max":898,"o":"m 500 -17 q 287 29 376 -17 q 149 162 197 75 q 101 373 101 249 l 101 972 l 301 972 l 301 373 q 349 222 301 267 q 500 176 397 176 q 609 195 565 176 q 676 257 653 214 q 698 373 698 301 l 698 972 l 898 972 l 898 373 q 865 192 898 267 q 776 72 832 118 q 648 5 719 26 q 500 -17 577 -17 m 436 1026 q 447 1088 436 1062 q 488 1138 458 1115 q 508 1155 502 1148 q 515 1169 515 1162 q 496 1186 515 1186 q 447 1149 471 1186 l 365 1201 q 417 1272 378 1245 q 503 1299 455 1299 q 596 1265 559 1299 q 633 1178 633 1231 q 618 1114 633 1136 q 585 1076 602 1092 q 566 1051 572 1063 q 560 1026 560 1040 l 436 1026 z "},"Ư":{"ha":1247,"x_min":101,"x_max":1237,"o":"m 500 -17 q 287 29 376 -17 q 149 162 197 75 q 101 373 101 249 l 101 972 l 301 972 l 301 373 q 349 222 301 267 q 500 176 397 176 q 609 195 565 176 q 676 257 653 214 q 698 373 698 301 l 698 972 l 898 972 l 898 373 q 865 192 898 267 q 776 72 832 118 q 648 5 719 26 q 500 -17 577 -17 m 894 490 l 894 644 q 1008 688 969 660 q 1046 768 1046 716 l 1046 972 l 1237 972 l 1237 810 q 1224 693 1237 750 q 1169 592 1211 637 q 1052 516 1118 539 q 894 490 986 494 z "},"Ứ":{"ha":1247,"x_min":101,"x_max":1237,"o":"m 500 -17 q 287 29 376 -17 q 149 162 197 75 q 101 373 101 249 l 101 972 l 301 972 l 301 373 q 349 222 301 267 q 500 176 397 176 q 609 195 565 176 q 676 257 653 214 q 698 373 698 301 l 698 972 l 898 972 l 898 373 q 865 192 898 267 q 776 72 832 118 q 648 5 719 26 q 500 -17 577 -17 m 894 490 l 894 644 q 1008 688 969 660 q 1046 768 1046 716 l 1046 972 l 1237 972 l 1237 810 q 1224 693 1237 750 q 1169 592 1211 637 q 1052 516 1118 539 q 894 490 986 494 m 345 1063 l 542 1279 l 774 1279 l 526 1063 l 345 1063 z "},"Ự":{"ha":1247,"x_min":101,"x_max":1237,"o":"m 500 -17 q 287 29 376 -17 q 149 162 197 75 q 101 373 101 249 l 101 972 l 301 972 l 301 373 q 349 222 301 267 q 500 176 397 176 q 609 195 565 176 q 676 257 653 214 q 698 373 698 301 l 698 972 l 898 972 l 898 373 q 865 192 898 267 q 776 72 832 118 q 648 5 719 26 q 500 -17 577 -17 m 894 490 l 894 644 q 1008 688 969 660 q 1046 768 1046 716 l 1046 972 l 1237 972 l 1237 810 q 1224 693 1237 750 q 1169 592 1211 637 q 1052 516 1118 539 q 894 490 986 494 m 499 -304 q 424 -274 454 -304 q 394 -199 394 -243 q 424 -124 394 -153 q 499 -94 454 -94 q 574 -124 544 -94 q 603 -199 603 -153 q 574 -274 603 -243 q 499 -304 544 -304 z "},"Ừ":{"ha":1247,"x_min":101,"x_max":1237,"o":"m 500 -17 q 287 29 376 -17 q 149 162 197 75 q 101 373 101 249 l 101 972 l 301 972 l 301 373 q 349 222 301 267 q 500 176 397 176 q 609 195 565 176 q 676 257 653 214 q 698 373 698 301 l 698 972 l 898 972 l 898 373 q 865 192 898 267 q 776 72 832 118 q 648 5 719 26 q 500 -17 577 -17 m 894 490 l 894 644 q 1008 688 969 660 q 1046 768 1046 716 l 1046 972 l 1237 972 l 1237 810 q 1224 693 1237 750 q 1169 592 1211 637 q 1052 516 1118 539 q 894 490 986 494 m 440 1063 l 193 1279 l 424 1279 l 622 1063 l 440 1063 z "},"Ử":{"ha":1247,"x_min":101,"x_max":1237,"o":"m 500 -17 q 287 29 376 -17 q 149 162 197 75 q 101 373 101 249 l 101 972 l 301 972 l 301 373 q 349 222 301 267 q 500 176 397 176 q 609 195 565 176 q 676 257 653 214 q 698 373 698 301 l 698 972 l 898 972 l 898 373 q 865 192 898 267 q 776 72 832 118 q 648 5 719 26 q 500 -17 577 -17 m 894 490 l 894 644 q 1008 688 969 660 q 1046 768 1046 716 l 1046 972 l 1237 972 l 1237 810 q 1224 693 1237 750 q 1169 592 1211 637 q 1052 516 1118 539 q 894 490 986 494 m 436 1026 q 447 1088 436 1062 q 488 1138 458 1115 q 508 1155 502 1148 q 515 1169 515 1162 q 496 1186 515 1186 q 447 1149 471 1186 l 365 1201 q 417 1272 378 1245 q 503 1299 455 1299 q 596 1265 559 1299 q 633 1178 633 1231 q 618 1114 633 1136 q 585 1076 602 1092 q 566 1051 572 1063 q 560 1026 560 1040 l 436 1026 z "},"Ữ":{"ha":1247,"x_min":101,"x_max":1237,"o":"m 500 -17 q 287 29 376 -17 q 149 162 197 75 q 101 373 101 249 l 101 972 l 301 972 l 301 373 q 349 222 301 267 q 500 176 397 176 q 609 195 565 176 q 676 257 653 214 q 698 373 698 301 l 698 972 l 898 972 l 898 373 q 865 192 898 267 q 776 72 832 118 q 648 5 719 26 q 500 -17 577 -17 m 894 490 l 894 644 q 1008 688 969 660 q 1046 768 1046 716 l 1046 972 l 1237 972 l 1237 810 q 1224 693 1237 750 q 1169 592 1211 637 q 1052 516 1118 539 q 894 490 986 494 m 610 1072 q 538 1084 570 1072 q 476 1108 505 1095 q 428 1127 452 1119 q 381 1136 405 1136 q 335 1123 355 1136 q 315 1078 315 1110 l 226 1078 q 241 1176 226 1133 q 293 1245 257 1220 q 390 1271 329 1271 q 461 1260 429 1271 q 522 1237 493 1250 q 570 1217 546 1226 q 619 1208 594 1208 q 665 1220 646 1208 q 685 1265 684 1233 l 772 1265 q 757 1168 772 1212 q 706 1098 742 1124 q 610 1072 670 1072 z "},"Ű":{"ha":999,"x_min":101,"x_max":947,"o":"m 500 -17 q 287 29 376 -17 q 149 162 197 75 q 101 373 101 249 l 101 972 l 301 972 l 301 373 q 349 222 301 267 q 500 176 397 176 q 609 195 565 176 q 676 257 653 214 q 698 373 698 301 l 698 972 l 898 972 l 898 373 q 865 192 898 267 q 776 72 832 118 q 648 5 719 26 q 500 -17 577 -17 m 518 1063 l 715 1279 l 947 1279 l 699 1063 l 518 1063 m 210 1063 l 407 1279 l 638 1279 l 390 1063 l 210 1063 z "},"Ȗ":{"ha":999,"x_min":101,"x_max":898,"o":"m 500 -17 q 287 29 376 -17 q 149 162 197 75 q 101 373 101 249 l 101 972 l 301 972 l 301 373 q 349 222 301 267 q 500 176 397 176 q 609 195 565 176 q 676 257 653 214 q 698 373 698 301 l 698 972 l 898 972 l 898 373 q 865 192 898 267 q 776 72 832 118 q 648 5 719 26 q 500 -17 577 -17 m 246 1056 q 274 1173 246 1119 q 359 1260 302 1227 q 500 1293 415 1293 q 631 1264 579 1293 q 712 1186 683 1235 q 751 1081 741 1138 q 752 1068 752 1075 q 752 1056 752 1062 l 609 1056 q 609 1068 609 1062 q 606 1081 608 1075 q 574 1136 598 1112 q 500 1160 551 1160 q 434 1144 458 1160 q 399 1104 410 1128 q 389 1056 389 1080 l 246 1056 z "},"Ū":{"ha":999,"x_min":101,"x_max":898,"o":"m 500 -17 q 287 29 376 -17 q 149 162 197 75 q 101 373 101 249 l 101 972 l 301 972 l 301 373 q 349 222 301 267 q 500 176 397 176 q 609 195 565 176 q 676 257 653 214 q 698 373 698 301 l 698 972 l 898 972 l 898 373 q 865 192 898 267 q 776 72 832 118 q 648 5 719 26 q 500 -17 577 -17 m 270 1074 l 270 1229 l 728 1229 l 728 1074 l 270 1074 z "},"Ų":{"ha":999,"x_min":101,"x_max":898,"o":"m 524 -342 q 399 -299 446 -342 q 351 -189 351 -256 q 383 -92 351 -135 q 471 -17 414 -50 q 467 -17 468 -17 q 463 -17 465 -17 q 336 8 400 -13 q 222 72 272 30 q 135 193 168 119 q 101 373 101 267 l 101 972 l 301 972 l 301 373 q 314 278 301 317 q 353 217 327 240 q 416 186 379 195 q 500 176 452 176 q 607 194 563 176 q 674 254 651 211 q 698 373 698 297 l 698 972 l 898 972 l 898 373 q 866 193 898 265 q 778 74 833 120 q 653 3 723 28 q 567 -50 599 -18 q 520 -115 535 -81 q 506 -173 506 -148 q 520 -217 506 -204 q 553 -231 535 -231 q 585 -223 571 -231 q 608 -203 599 -215 l 695 -265 q 660 -298 682 -281 q 606 -329 639 -316 q 524 -342 572 -342 z "},"Ʊ":{"ha":1037,"x_min":93,"x_max":944,"o":"m 518 -17 q 318 23 399 -17 q 188 129 237 63 q 116 274 138 194 q 94 431 94 353 q 135 627 94 538 q 238 779 177 716 l 93 779 l 93 972 l 471 972 l 471 817 q 376 699 414 758 q 320 576 339 640 q 301 433 301 511 q 312 340 301 385 q 348 257 323 294 q 414 197 372 219 q 518 175 456 175 q 622 197 581 175 q 689 257 664 219 q 724 340 713 294 q 735 432 735 386 q 716 575 735 510 q 661 698 698 640 q 566 817 624 756 l 566 972 l 944 972 l 944 779 l 798 779 q 899 627 857 716 q 942 431 942 538 q 919 274 942 353 q 848 129 897 194 q 717 23 799 63 q 518 -17 636 -17 z "},"Ů":{"ha":999,"x_min":101,"x_max":898,"o":"m 500 -17 q 287 29 376 -17 q 149 162 197 75 q 101 373 101 249 l 101 972 l 301 972 l 301 373 q 349 222 301 267 q 500 176 397 176 q 609 195 565 176 q 676 257 653 214 q 698 373 698 301 l 698 972 l 898 972 l 898 373 q 865 192 898 267 q 776 72 832 118 q 648 5 719 26 q 500 -17 577 -17 m 499 1028 q 406 1052 447 1028 q 340 1118 365 1077 q 315 1210 315 1160 q 340 1302 315 1261 q 406 1366 365 1342 q 499 1390 447 1390 q 591 1366 550 1390 q 657 1302 633 1342 q 682 1210 682 1261 q 657 1118 682 1160 q 591 1052 633 1077 q 499 1028 550 1028 m 499 1156 q 534 1171 518 1156 q 550 1210 550 1187 q 534 1248 550 1233 q 499 1263 518 1263 q 460 1248 474 1263 q 446 1210 446 1233 q 460 1171 446 1187 q 499 1156 474 1156 z "},"Ũ":{"ha":999,"x_min":101,"x_max":898,"o":"m 500 -17 q 287 29 376 -17 q 149 162 197 75 q 101 373 101 249 l 101 972 l 301 972 l 301 373 q 349 222 301 267 q 500 176 397 176 q 609 195 565 176 q 676 257 653 214 q 698 373 698 301 l 698 972 l 898 972 l 898 373 q 865 192 898 267 q 776 72 832 118 q 648 5 719 26 q 500 -17 577 -17 m 610 1072 q 538 1084 570 1072 q 476 1108 505 1095 q 428 1127 452 1119 q 381 1136 405 1136 q 335 1123 355 1136 q 315 1078 315 1110 l 226 1078 q 241 1176 226 1133 q 293 1245 257 1220 q 390 1271 329 1271 q 461 1260 429 1271 q 522 1237 493 1250 q 570 1217 546 1226 q 619 1208 594 1208 q 665 1220 646 1208 q 685 1265 684 1233 l 772 1265 q 757 1168 772 1212 q 706 1098 742 1124 q 610 1072 670 1072 z "},"V":{"ha":961,"x_min":39,"x_max":922,"o":"m 388 0 l 39 972 l 255 972 l 468 349 q 476 323 472 335 q 483 302 481 310 q 488 322 484 309 q 496 349 491 334 l 708 972 l 922 972 l 575 0 l 388 0 z "},"Ɣ":{"ha":936,"x_min":39,"x_max":897,"o":"m 468 -360 q 309 -305 362 -360 q 256 -167 256 -249 q 285 -17 256 -95 q 360 165 314 62 l 39 972 l 251 972 l 469 422 l 691 972 l 897 972 l 577 165 q 652 -17 624 62 q 681 -167 681 -95 q 628 -305 681 -249 q 468 -360 574 -360 m 469 -197 q 494 -187 483 -197 q 506 -158 506 -178 q 496 -108 506 -137 q 469 -34 486 -78 q 441 -108 451 -78 q 431 -158 431 -137 q 443 -187 431 -178 q 469 -197 454 -197 z "},"Ʋ":{"ha":980,"x_min":101,"x_max":908,"o":"m 400 -17 q 177 67 253 -17 q 101 321 101 151 l 101 972 l 301 972 l 301 321 q 325 206 301 238 q 400 175 348 175 q 515 215 460 175 q 613 319 569 254 q 682 459 657 383 q 707 607 707 535 q 663 752 707 699 q 525 804 618 804 q 472 802 497 804 q 417 792 447 800 l 503 983 q 574 989 536 989 q 757 942 683 989 q 869 812 831 895 q 908 618 908 728 q 882 434 908 526 q 808 261 856 342 q 696 118 760 181 q 557 19 633 55 q 400 -17 482 -17 z "},"Ʌ":{"ha":961,"x_min":39,"x_max":922,"o":"m 39 0 l 386 972 l 574 972 l 922 0 l 706 0 l 493 624 q 485 650 489 638 q 478 670 481 662 q 474 651 477 663 q 465 624 470 638 l 253 0 l 39 0 z "},"W":{"ha":1181,"x_min":45,"x_max":1136,"o":"m 251 0 l 45 972 l 251 972 l 352 453 q 358 420 356 435 q 363 385 360 406 q 368 420 365 403 q 375 454 371 437 l 502 972 l 676 972 l 803 455 q 811 421 808 439 q 816 385 814 403 q 822 418 819 402 q 827 449 824 435 l 931 972 l 1136 972 l 926 0 l 740 0 l 597 556 q 591 582 594 569 q 587 614 589 594 q 582 581 584 593 q 576 557 579 569 l 438 0 l 251 0 z "},"Ẃ":{"ha":1181,"x_min":45,"x_max":1136,"o":"m 251 0 l 45 972 l 251 972 l 352 453 q 358 420 356 435 q 363 385 360 406 q 368 420 365 403 q 375 454 371 437 l 502 972 l 676 972 l 803 455 q 811 421 808 439 q 816 385 814 403 q 822 418 819 402 q 827 449 824 435 l 931 972 l 1136 972 l 926 0 l 740 0 l 597 556 q 591 582 594 569 q 587 614 589 594 q 582 581 584 593 q 576 557 579 569 l 438 0 l 251 0 m 435 1063 l 633 1279 l 864 1279 l 617 1063 l 435 1063 z "},"Ŵ":{"ha":1181,"x_min":45,"x_max":1136,"o":"m 251 0 l 45 972 l 251 972 l 352 453 q 358 420 356 435 q 363 385 360 406 q 368 420 365 403 q 375 454 371 437 l 502 972 l 676 972 l 803 455 q 811 421 808 439 q 816 385 814 403 q 822 418 819 402 q 827 449 824 435 l 931 972 l 1136 972 l 926 0 l 740 0 l 597 556 q 591 582 594 569 q 587 614 589 594 q 582 581 584 593 q 576 557 579 569 l 438 0 l 251 0 m 303 1063 l 501 1279 l 680 1279 l 877 1063 l 704 1063 l 591 1156 l 476 1063 l 303 1063 z "},"Ẅ":{"ha":1181,"x_min":45,"x_max":1136,"o":"m 251 0 l 45 972 l 251 972 l 352 453 q 358 420 356 435 q 363 385 360 406 q 368 420 365 403 q 375 454 371 437 l 502 972 l 676 972 l 803 455 q 811 421 808 439 q 816 385 814 403 q 822 418 819 402 q 827 449 824 435 l 931 972 l 1136 972 l 926 0 l 740 0 l 597 556 q 591 582 594 569 q 587 614 589 594 q 582 581 584 593 q 576 557 579 569 l 438 0 l 251 0 m 731 1067 q 656 1096 685 1067 q 626 1171 626 1126 q 656 1245 626 1216 q 731 1275 685 1275 q 806 1245 776 1275 q 835 1171 835 1216 q 806 1096 835 1126 q 731 1067 776 1067 m 445 1067 q 370 1096 400 1067 q 341 1171 341 1126 q 370 1245 341 1216 q 445 1275 400 1275 q 520 1245 490 1275 q 551 1171 551 1216 q 520 1096 551 1126 q 445 1067 490 1067 z "},"Ẁ":{"ha":1181,"x_min":45,"x_max":1136,"o":"m 251 0 l 45 972 l 251 972 l 352 453 q 358 420 356 435 q 363 385 360 406 q 368 420 365 403 q 375 454 371 437 l 502 972 l 676 972 l 803 455 q 811 421 808 439 q 816 385 814 403 q 822 418 819 402 q 827 449 824 435 l 931 972 l 1136 972 l 926 0 l 740 0 l 597 556 q 591 582 594 569 q 587 614 589 594 q 582 581 584 593 q 576 557 579 569 l 438 0 l 251 0 m 530 1063 l 283 1279 l 514 1279 l 711 1063 l 530 1063 z "},"Ⱳ":{"ha":1346,"x_min":45,"x_max":1334,"o":"m 251 0 l 45 972 l 251 972 l 352 453 q 358 420 356 435 q 363 385 360 406 q 368 420 365 403 q 375 454 371 437 l 502 972 l 676 972 l 803 455 q 811 421 808 439 q 816 385 814 403 q 822 418 819 402 q 827 449 824 435 l 885 742 q 953 890 903 836 q 1074 966 1002 944 q 1229 989 1145 988 l 1334 820 q 1197 809 1250 820 q 1115 770 1143 799 q 1074 688 1086 742 l 926 0 l 740 0 l 597 556 q 591 582 594 569 q 587 614 589 594 q 582 581 584 593 q 576 557 579 569 l 438 0 l 251 0 z "},"X":{"ha":976,"x_min":51,"x_max":925,"o":"m 51 0 l 372 501 l 70 972 l 304 972 l 488 683 l 671 972 l 906 972 l 604 502 l 925 0 l 691 0 l 488 319 l 285 0 l 51 0 z "},"Y":{"ha":969,"x_min":21,"x_max":948,"o":"m 386 0 l 386 378 l 21 972 l 246 972 l 485 589 l 723 972 l 948 972 l 583 379 l 583 0 l 386 0 z "},"Ý":{"ha":969,"x_min":21,"x_max":948,"o":"m 386 0 l 386 378 l 21 972 l 246 972 l 485 589 l 723 972 l 948 972 l 583 379 l 583 0 l 386 0 m 331 1063 l 528 1279 l 760 1279 l 513 1063 l 331 1063 z "},"Ŷ":{"ha":969,"x_min":21,"x_max":948,"o":"m 386 0 l 386 378 l 21 972 l 246 972 l 485 589 l 723 972 l 948 972 l 583 379 l 583 0 l 386 0 m 199 1063 l 397 1279 l 576 1279 l 773 1063 l 600 1063 l 487 1156 l 372 1063 l 199 1063 z "},"Ÿ":{"ha":969,"x_min":21,"x_max":948,"o":"m 386 0 l 386 378 l 21 972 l 246 972 l 485 589 l 723 972 l 948 972 l 583 379 l 583 0 l 386 0 m 627 1067 q 552 1096 581 1067 q 522 1171 522 1126 q 552 1245 522 1216 q 627 1275 581 1275 q 701 1245 672 1275 q 731 1171 731 1216 q 701 1096 731 1126 q 627 1067 672 1067 m 341 1067 q 266 1096 296 1067 q 237 1171 237 1126 q 266 1245 237 1216 q 341 1275 296 1275 q 416 1245 386 1275 q 447 1171 447 1216 q 416 1096 447 1126 q 341 1067 386 1067 z "},"Ỵ":{"ha":969,"x_min":21,"x_max":948,"o":"m 386 0 l 386 378 l 21 972 l 246 972 l 485 589 l 723 972 l 948 972 l 583 379 l 583 0 l 386 0 m 485 -304 q 410 -274 440 -304 q 381 -199 381 -243 q 410 -124 381 -153 q 485 -94 440 -94 q 560 -124 530 -94 q 590 -199 590 -153 q 560 -274 590 -243 q 485 -304 530 -304 z "},"Ỳ":{"ha":969,"x_min":21,"x_max":948,"o":"m 386 0 l 386 378 l 21 972 l 246 972 l 485 589 l 723 972 l 948 972 l 583 379 l 583 0 l 386 0 m 426 1063 l 178 1279 l 410 1279 l 607 1063 l 426 1063 z "},"Ƴ":{"ha":1086,"x_min":21,"x_max":1074,"o":"m 386 0 l 386 378 l 21 972 l 246 972 l 485 589 l 627 819 q 719 924 670 888 q 830 974 769 960 q 969 989 892 988 l 1074 820 q 939 814 990 820 q 855 789 887 808 q 798 729 823 770 l 583 379 l 583 0 l 386 0 z "},"Ỷ":{"ha":969,"x_min":21,"x_max":948,"o":"m 386 0 l 386 378 l 21 972 l 246 972 l 485 589 l 723 972 l 948 972 l 583 379 l 583 0 l 386 0 m 422 1026 q 433 1088 422 1062 q 473 1138 444 1115 q 494 1155 488 1148 q 500 1169 500 1162 q 481 1186 500 1186 q 433 1149 456 1186 l 350 1201 q 402 1272 364 1245 q 488 1299 440 1299 q 582 1265 544 1299 q 619 1178 619 1231 q 603 1114 619 1136 q 571 1076 588 1092 q 551 1051 557 1063 q 545 1026 545 1040 l 422 1026 z "},"Ȳ":{"ha":969,"x_min":21,"x_max":948,"o":"m 386 0 l 386 378 l 21 972 l 246 972 l 485 589 l 723 972 l 948 972 l 583 379 l 583 0 l 386 0 m 256 1074 l 256 1229 l 714 1229 l 714 1074 l 256 1074 z "},"Ỹ":{"ha":969,"x_min":21,"x_max":948,"o":"m 386 0 l 386 378 l 21 972 l 246 972 l 485 589 l 723 972 l 948 972 l 583 379 l 583 0 l 386 0 m 595 1072 q 523 1084 556 1072 q 462 1108 490 1095 q 414 1127 438 1119 q 366 1136 390 1136 q 320 1123 340 1136 q 301 1078 301 1110 l 211 1078 q 227 1176 211 1133 q 278 1245 242 1220 q 376 1271 315 1271 q 447 1260 415 1271 q 507 1237 478 1250 q 556 1217 531 1226 q 605 1208 580 1208 q 650 1220 631 1208 q 670 1265 669 1233 l 758 1265 q 742 1168 758 1212 q 691 1098 727 1124 q 595 1072 656 1072 z "},"Z":{"ha":883,"x_min":60,"x_max":812,"o":"m 60 0 l 60 149 l 547 783 l 90 783 l 90 972 l 812 972 l 812 824 l 319 189 l 812 189 l 812 0 l 60 0 z "},"Ź":{"ha":883,"x_min":60,"x_max":812,"o":"m 60 0 l 60 149 l 547 783 l 90 783 l 90 972 l 812 972 l 812 824 l 319 189 l 812 189 l 812 0 l 60 0 m 313 1063 l 510 1279 l 742 1279 l 494 1063 l 313 1063 z "},"Ž":{"ha":883,"x_min":60,"x_max":812,"o":"m 60 0 l 60 149 l 547 783 l 90 783 l 90 972 l 812 972 l 812 824 l 319 189 l 812 189 l 812 0 l 60 0 m 376 1063 l 179 1279 l 352 1279 l 467 1186 l 581 1279 l 753 1279 l 555 1063 l 376 1063 z "},"Ż":{"ha":883,"x_min":60,"x_max":812,"o":"m 60 0 l 60 149 l 547 783 l 90 783 l 90 972 l 812 972 l 812 824 l 319 189 l 812 189 l 812 0 l 60 0 m 467 1057 q 389 1090 422 1057 q 356 1167 356 1122 q 389 1245 356 1213 q 467 1276 422 1276 q 546 1245 515 1276 q 578 1167 578 1213 q 546 1090 578 1122 q 467 1057 515 1057 z "},"Ẓ":{"ha":883,"x_min":60,"x_max":812,"o":"m 60 0 l 60 149 l 547 783 l 90 783 l 90 972 l 812 972 l 812 824 l 319 189 l 812 189 l 812 0 l 60 0 m 437 -304 q 362 -274 392 -304 q 332 -199 332 -243 q 362 -124 332 -153 q 437 -94 392 -94 q 511 -124 481 -94 q 541 -199 541 -153 q 511 -274 541 -243 q 437 -304 481 -304 z "},"a":{"ha":788,"x_min":65,"x_max":697,"o":"m 317 -17 q 133 46 201 -17 q 65 215 65 108 q 100 336 65 284 q 200 417 136 388 q 349 446 264 446 q 436 438 394 446 q 509 417 479 431 l 509 459 q 477 539 509 512 q 383 567 444 567 q 276 548 331 567 q 163 491 221 529 l 104 639 q 245 704 167 681 q 402 726 322 726 q 624 658 550 726 q 697 452 697 589 l 697 0 l 509 0 l 509 54 q 426 1 475 19 q 317 -17 377 -17 m 365 143 q 443 158 406 143 q 509 200 480 172 l 509 271 q 448 290 481 283 q 380 296 415 296 q 285 275 319 296 q 251 215 251 253 q 281 162 251 181 q 365 143 310 143 z "},"á":{"ha":788,"x_min":65,"x_max":697,"o":"m 317 -17 q 133 46 201 -17 q 65 215 65 108 q 100 336 65 284 q 200 417 136 388 q 349 446 264 446 q 436 438 394 446 q 509 417 479 431 l 509 459 q 477 539 509 512 q 383 567 444 567 q 276 548 331 567 q 163 491 221 529 l 104 639 q 245 704 167 681 q 402 726 322 726 q 624 658 550 726 q 697 452 697 589 l 697 0 l 509 0 l 509 54 q 426 1 475 19 q 317 -17 377 -17 m 365 143 q 443 158 406 143 q 509 200 480 172 l 509 271 q 448 290 481 283 q 380 296 415 296 q 285 275 319 296 q 251 215 251 253 q 281 162 251 181 q 365 143 310 143 m 251 800 l 448 1017 l 679 1017 l 432 800 l 251 800 z "},"ă":{"ha":788,"x_min":65,"x_max":697,"o":"m 317 -17 q 133 46 201 -17 q 65 215 65 108 q 100 336 65 284 q 200 417 136 388 q 349 446 264 446 q 436 438 394 446 q 509 417 479 431 l 509 459 q 477 539 509 512 q 383 567 444 567 q 276 548 331 567 q 163 491 221 529 l 104 639 q 245 704 167 681 q 402 726 322 726 q 624 658 550 726 q 697 452 697 589 l 697 0 l 509 0 l 509 54 q 426 1 475 19 q 317 -17 377 -17 m 365 143 q 443 158 406 143 q 509 200 480 172 l 509 271 q 448 290 481 283 q 380 296 415 296 q 285 275 319 296 q 251 215 251 253 q 281 162 251 181 q 365 143 310 143 m 404 793 q 264 826 319 793 q 180 913 208 859 q 151 1031 151 967 l 294 1031 q 303 982 294 1006 q 336 942 313 958 q 404 926 360 926 q 472 942 448 926 q 505 982 496 958 q 515 1031 515 1006 l 658 1031 q 629 913 658 967 q 544 826 601 859 q 404 793 488 793 z "},"ắ":{"ha":788,"x_min":65,"x_max":739,"o":"m 317 -17 q 133 46 201 -17 q 65 215 65 108 q 100 336 65 284 q 200 417 136 388 q 349 446 264 446 q 436 438 394 446 q 509 417 479 431 l 509 459 q 477 539 509 512 q 383 567 444 567 q 276 548 331 567 q 163 491 221 529 l 104 639 q 245 704 167 681 q 402 726 322 726 q 624 658 550 726 q 697 452 697 589 l 697 0 l 509 0 l 509 54 q 426 1 475 19 q 317 -17 377 -17 m 365 143 q 443 158 406 143 q 509 200 480 172 l 509 271 q 448 290 481 283 q 380 296 415 296 q 285 275 319 296 q 251 215 251 253 q 281 162 251 181 q 365 143 310 143 m 404 793 q 264 826 319 793 q 180 913 208 859 q 151 1031 151 967 l 294 1031 q 303 982 294 1006 q 336 942 313 958 q 404 926 360 926 q 472 942 448 926 q 505 982 496 958 q 515 1031 515 1006 l 658 1031 q 629 913 658 967 q 544 826 601 859 q 404 793 488 793 m 310 1057 l 508 1274 l 739 1274 l 492 1057 l 310 1057 z "},"ặ":{"ha":788,"x_min":65,"x_max":697,"o":"m 317 -17 q 133 46 201 -17 q 65 215 65 108 q 100 336 65 284 q 200 417 136 388 q 349 446 264 446 q 436 438 394 446 q 509 417 479 431 l 509 459 q 477 539 509 512 q 383 567 444 567 q 276 548 331 567 q 163 491 221 529 l 104 639 q 245 704 167 681 q 402 726 322 726 q 624 658 550 726 q 697 452 697 589 l 697 0 l 509 0 l 509 54 q 426 1 475 19 q 317 -17 377 -17 m 365 143 q 443 158 406 143 q 509 200 480 172 l 509 271 q 448 290 481 283 q 380 296 415 296 q 285 275 319 296 q 251 215 251 253 q 281 162 251 181 q 365 143 310 143 m 330 -304 q 255 -274 285 -304 q 225 -199 225 -243 q 255 -124 225 -153 q 330 -94 285 -94 q 404 -124 374 -94 q 434 -199 434 -153 q 404 -274 434 -243 q 330 -304 374 -304 m 404 793 q 264 826 319 793 q 180 913 208 859 q 151 1031 151 967 l 294 1031 q 303 982 294 1006 q 336 942 313 958 q 404 926 360 926 q 472 942 448 926 q 505 982 496 958 q 515 1031 515 1006 l 658 1031 q 629 913 658 967 q 544 826 601 859 q 404 793 488 793 z "},"ằ":{"ha":788,"x_min":65,"x_max":697,"o":"m 317 -17 q 133 46 201 -17 q 65 215 65 108 q 100 336 65 284 q 200 417 136 388 q 349 446 264 446 q 436 438 394 446 q 509 417 479 431 l 509 459 q 477 539 509 512 q 383 567 444 567 q 276 548 331 567 q 163 491 221 529 l 104 639 q 245 704 167 681 q 402 726 322 726 q 624 658 550 726 q 697 452 697 589 l 697 0 l 509 0 l 509 54 q 426 1 475 19 q 317 -17 377 -17 m 365 143 q 443 158 406 143 q 509 200 480 172 l 509 271 q 448 290 481 283 q 380 296 415 296 q 285 275 319 296 q 251 215 251 253 q 281 162 251 181 q 365 143 310 143 m 404 793 q 264 826 319 793 q 180 913 208 859 q 151 1031 151 967 l 294 1031 q 303 982 294 1006 q 336 942 313 958 q 404 926 360 926 q 472 942 448 926 q 505 982 496 958 q 515 1031 515 1006 l 658 1031 q 629 913 658 967 q 544 826 601 859 q 404 793 488 793 m 318 1057 l 71 1274 l 302 1274 l 499 1057 l 318 1057 z "},"ẳ":{"ha":788,"x_min":65,"x_max":697,"o":"m 317 -17 q 133 46 201 -17 q 65 215 65 108 q 100 336 65 284 q 200 417 136 388 q 349 446 264 446 q 436 438 394 446 q 509 417 479 431 l 509 459 q 477 539 509 512 q 383 567 444 567 q 276 548 331 567 q 163 491 221 529 l 104 639 q 245 704 167 681 q 402 726 322 726 q 624 658 550 726 q 697 452 697 589 l 697 0 l 509 0 l 509 54 q 426 1 475 19 q 317 -17 377 -17 m 365 143 q 443 158 406 143 q 509 200 480 172 l 509 271 q 448 290 481 283 q 380 296 415 296 q 285 275 319 296 q 251 215 251 253 q 281 162 251 181 q 365 143 310 143 m 404 793 q 264 826 319 793 q 180 913 208 859 q 151 1031 151 967 l 294 1031 q 303 982 294 1006 q 336 942 313 958 q 404 926 360 926 q 472 942 448 926 q 505 982 496 958 q 515 1031 515 1006 l 658 1031 q 629 913 658 967 q 544 826 601 859 q 404 793 488 793 m 342 1029 q 353 1091 342 1065 q 394 1140 365 1117 q 415 1158 408 1151 q 421 1172 421 1165 q 402 1189 421 1189 q 353 1151 377 1189 l 271 1203 q 323 1275 285 1248 q 409 1301 361 1301 q 502 1267 465 1301 q 540 1181 540 1233 q 524 1117 540 1139 q 492 1078 508 1094 q 472 1054 478 1065 q 466 1029 466 1042 l 342 1029 z "},"ẵ":{"ha":788,"x_min":65,"x_max":697,"o":"m 317 -17 q 133 46 201 -17 q 65 215 65 108 q 100 336 65 284 q 200 417 136 388 q 349 446 264 446 q 436 438 394 446 q 509 417 479 431 l 509 459 q 477 539 509 512 q 383 567 444 567 q 276 548 331 567 q 163 491 221 529 l 104 639 q 245 704 167 681 q 402 726 322 726 q 624 658 550 726 q 697 452 697 589 l 697 0 l 509 0 l 509 54 q 426 1 475 19 q 317 -17 377 -17 m 365 143 q 443 158 406 143 q 509 200 480 172 l 509 271 q 448 290 481 283 q 380 296 415 296 q 285 275 319 296 q 251 215 251 253 q 281 162 251 181 q 365 143 310 143 m 404 793 q 264 826 319 793 q 180 913 208 859 q 151 1031 151 967 l 294 1031 q 303 982 294 1006 q 336 942 313 958 q 404 926 360 926 q 472 942 448 926 q 505 982 496 958 q 515 1031 515 1006 l 658 1031 q 629 913 658 967 q 544 826 601 859 q 404 793 488 793 m 515 1103 q 443 1114 476 1103 q 382 1138 410 1126 q 334 1158 358 1149 q 286 1167 310 1167 q 241 1154 260 1167 q 221 1108 221 1141 l 131 1108 q 147 1207 131 1163 q 199 1276 163 1251 q 296 1301 235 1301 q 367 1291 335 1301 q 427 1267 399 1281 q 476 1248 451 1256 q 525 1239 500 1239 q 570 1251 551 1239 q 590 1296 590 1263 l 678 1296 q 663 1199 678 1242 q 611 1129 647 1155 q 515 1103 576 1103 z "},"ǎ":{"ha":788,"x_min":65,"x_max":697,"o":"m 317 -17 q 133 46 201 -17 q 65 215 65 108 q 100 336 65 284 q 200 417 136 388 q 349 446 264 446 q 436 438 394 446 q 509 417 479 431 l 509 459 q 477 539 509 512 q 383 567 444 567 q 276 548 331 567 q 163 491 221 529 l 104 639 q 245 704 167 681 q 402 726 322 726 q 624 658 550 726 q 697 452 697 589 l 697 0 l 509 0 l 509 54 q 426 1 475 19 q 317 -17 377 -17 m 365 143 q 443 158 406 143 q 509 200 480 172 l 509 271 q 448 290 481 283 q 380 296 415 296 q 285 275 319 296 q 251 215 251 253 q 281 162 251 181 q 365 143 310 143 m 315 800 l 117 1017 l 290 1017 l 405 924 l 519 1017 l 691 1017 l 493 800 l 315 800 z "},"â":{"ha":788,"x_min":65,"x_max":697,"o":"m 317 -17 q 133 46 201 -17 q 65 215 65 108 q 100 336 65 284 q 200 417 136 388 q 349 446 264 446 q 436 438 394 446 q 509 417 479 431 l 509 459 q 477 539 509 512 q 383 567 444 567 q 276 548 331 567 q 163 491 221 529 l 104 639 q 245 704 167 681 q 402 726 322 726 q 624 658 550 726 q 697 452 697 589 l 697 0 l 509 0 l 509 54 q 426 1 475 19 q 317 -17 377 -17 m 365 143 q 443 158 406 143 q 509 200 480 172 l 509 271 q 448 290 481 283 q 380 296 415 296 q 285 275 319 296 q 251 215 251 253 q 281 162 251 181 q 365 143 310 143 m 118 800 l 317 1017 l 495 1017 l 692 800 l 519 800 l 406 894 l 291 800 l 118 800 z "},"ấ":{"ha":788,"x_min":65,"x_max":998,"o":"m 317 -17 q 133 46 201 -17 q 65 215 65 108 q 100 336 65 284 q 200 417 136 388 q 349 446 264 446 q 436 438 394 446 q 509 417 479 431 l 509 459 q 477 539 509 512 q 383 567 444 567 q 276 548 331 567 q 163 491 221 529 l 104 639 q 245 704 167 681 q 402 726 322 726 q 624 658 550 726 q 697 452 697 589 l 697 0 l 509 0 l 509 54 q 426 1 475 19 q 317 -17 377 -17 m 365 143 q 443 158 406 143 q 509 200 480 172 l 509 271 q 448 290 481 283 q 380 296 415 296 q 285 275 319 296 q 251 215 251 253 q 281 162 251 181 q 365 143 310 143 m 118 800 l 317 1017 l 495 1017 l 692 800 l 519 800 l 406 894 l 291 800 l 118 800 m 569 994 l 767 1211 l 998 1211 l 751 994 l 569 994 z "},"ậ":{"ha":788,"x_min":65,"x_max":697,"o":"m 317 -17 q 133 46 201 -17 q 65 215 65 108 q 100 336 65 284 q 200 417 136 388 q 349 446 264 446 q 436 438 394 446 q 509 417 479 431 l 509 459 q 477 539 509 512 q 383 567 444 567 q 276 548 331 567 q 163 491 221 529 l 104 639 q 245 704 167 681 q 402 726 322 726 q 624 658 550 726 q 697 452 697 589 l 697 0 l 509 0 l 509 54 q 426 1 475 19 q 317 -17 377 -17 m 365 143 q 443 158 406 143 q 509 200 480 172 l 509 271 q 448 290 481 283 q 380 296 415 296 q 285 275 319 296 q 251 215 251 253 q 281 162 251 181 q 365 143 310 143 m 330 -304 q 255 -274 285 -304 q 225 -199 225 -243 q 255 -124 225 -153 q 330 -94 285 -94 q 404 -124 374 -94 q 434 -199 434 -153 q 404 -274 434 -243 q 330 -304 374 -304 m 118 800 l 317 1017 l 495 1017 l 692 800 l 519 800 l 406 894 l 291 800 l 118 800 z "},"ầ":{"ha":788,"x_min":65,"x_max":809,"o":"m 317 -17 q 133 46 201 -17 q 65 215 65 108 q 100 336 65 284 q 200 417 136 388 q 349 446 264 446 q 436 438 394 446 q 509 417 479 431 l 509 459 q 477 539 509 512 q 383 567 444 567 q 276 548 331 567 q 163 491 221 529 l 104 639 q 245 704 167 681 q 402 726 322 726 q 624 658 550 726 q 697 452 697 589 l 697 0 l 509 0 l 509 54 q 426 1 475 19 q 317 -17 377 -17 m 365 143 q 443 158 406 143 q 509 200 480 172 l 509 271 q 448 290 481 283 q 380 296 415 296 q 285 275 319 296 q 251 215 251 253 q 281 162 251 181 q 365 143 310 143 m 118 800 l 317 1017 l 495 1017 l 692 800 l 519 800 l 406 894 l 291 800 l 118 800 m 628 994 l 381 1211 l 612 1211 l 809 994 l 628 994 z "},"ẩ":{"ha":788,"x_min":65,"x_max":697,"o":"m 317 -17 q 133 46 201 -17 q 65 215 65 108 q 100 336 65 284 q 200 417 136 388 q 349 446 264 446 q 436 438 394 446 q 509 417 479 431 l 509 459 q 477 539 509 512 q 383 567 444 567 q 276 548 331 567 q 163 491 221 529 l 104 639 q 245 704 167 681 q 402 726 322 726 q 624 658 550 726 q 697 452 697 589 l 697 0 l 509 0 l 509 54 q 426 1 475 19 q 317 -17 377 -17 m 365 143 q 443 158 406 143 q 509 200 480 172 l 509 271 q 448 290 481 283 q 380 296 415 296 q 285 275 319 296 q 251 215 251 253 q 281 162 251 181 q 365 143 310 143 m 118 800 l 317 1017 l 495 1017 l 692 800 l 519 800 l 406 894 l 291 800 l 118 800 m 342 1071 q 353 1133 342 1106 q 393 1182 364 1159 q 414 1199 408 1192 q 420 1214 420 1206 q 401 1231 420 1231 q 353 1193 376 1231 l 270 1245 q 322 1316 284 1290 q 408 1343 360 1343 q 502 1309 465 1343 q 539 1222 539 1275 q 523 1158 539 1181 q 491 1120 508 1136 q 471 1095 477 1107 q 465 1071 465 1084 l 342 1071 z "},"ẫ":{"ha":788,"x_min":65,"x_max":697,"o":"m 317 -17 q 133 46 201 -17 q 65 215 65 108 q 100 336 65 284 q 200 417 136 388 q 349 446 264 446 q 436 438 394 446 q 509 417 479 431 l 509 459 q 477 539 509 512 q 383 567 444 567 q 276 548 331 567 q 163 491 221 529 l 104 639 q 245 704 167 681 q 402 726 322 726 q 624 658 550 726 q 697 452 697 589 l 697 0 l 509 0 l 509 54 q 426 1 475 19 q 317 -17 377 -17 m 365 143 q 443 158 406 143 q 509 200 480 172 l 509 271 q 448 290 481 283 q 380 296 415 296 q 285 275 319 296 q 251 215 251 253 q 281 162 251 181 q 365 143 310 143 m 118 800 l 317 1017 l 495 1017 l 692 800 l 519 800 l 406 894 l 291 800 l 118 800 m 515 1089 q 443 1100 476 1089 q 382 1124 410 1112 q 334 1144 358 1135 q 286 1153 310 1153 q 241 1140 260 1153 q 221 1094 221 1127 l 131 1094 q 147 1193 131 1149 q 199 1262 163 1237 q 296 1288 235 1288 q 367 1277 335 1288 q 427 1253 399 1267 q 476 1234 451 1242 q 525 1225 500 1225 q 570 1237 551 1225 q 590 1282 590 1249 l 678 1282 q 663 1185 678 1228 q 611 1115 647 1141 q 515 1089 576 1089 z "},"ȁ":{"ha":788,"x_min":-85,"x_max":697,"o":"m 317 -17 q 133 46 201 -17 q 65 215 65 108 q 100 336 65 284 q 200 417 136 388 q 349 446 264 446 q 436 438 394 446 q 509 417 479 431 l 509 459 q 477 539 509 512 q 383 567 444 567 q 276 548 331 567 q 163 491 221 529 l 104 639 q 245 704 167 681 q 402 726 322 726 q 624 658 550 726 q 697 452 697 589 l 697 0 l 509 0 l 509 54 q 426 1 475 19 q 317 -17 377 -17 m 365 143 q 443 158 406 143 q 509 200 480 172 l 509 271 q 448 290 481 283 q 380 296 415 296 q 285 275 319 296 q 251 215 251 253 q 281 162 251 181 q 365 143 310 143 m 163 800 l -85 1017 l 147 1017 l 344 800 l 163 800 m 472 800 l 225 1017 l 456 1017 l 653 800 l 472 800 z "},"ä":{"ha":788,"x_min":65,"x_max":697,"o":"m 317 -17 q 133 46 201 -17 q 65 215 65 108 q 100 336 65 284 q 200 417 136 388 q 349 446 264 446 q 436 438 394 446 q 509 417 479 431 l 509 459 q 477 539 509 512 q 383 567 444 567 q 276 548 331 567 q 163 491 221 529 l 104 639 q 245 704 167 681 q 402 726 322 726 q 624 658 550 726 q 697 452 697 589 l 697 0 l 509 0 l 509 54 q 426 1 475 19 q 317 -17 377 -17 m 365 143 q 443 158 406 143 q 509 200 480 172 l 509 271 q 448 290 481 283 q 380 296 415 296 q 285 275 319 296 q 251 215 251 253 q 281 162 251 181 q 365 143 310 143 m 538 791 q 462 820 492 791 q 433 895 433 850 q 462 970 433 940 q 538 1001 492 1001 q 613 970 583 1001 q 642 895 642 940 q 613 820 642 850 q 538 791 583 791 m 270 791 q 195 820 225 791 q 166 895 166 850 q 195 970 166 940 q 270 1001 225 1001 q 345 970 315 1001 q 375 895 375 940 q 345 820 375 850 q 270 791 315 791 z "},"ǟ":{"ha":788,"x_min":65,"x_max":697,"o":"m 317 -17 q 133 46 201 -17 q 65 215 65 108 q 100 336 65 284 q 200 417 136 388 q 349 446 264 446 q 436 438 394 446 q 509 417 479 431 l 509 459 q 477 539 509 512 q 383 567 444 567 q 276 548 331 567 q 163 491 221 529 l 104 639 q 245 704 167 681 q 402 726 322 726 q 624 658 550 726 q 697 452 697 589 l 697 0 l 509 0 l 509 54 q 426 1 475 19 q 317 -17 377 -17 m 365 143 q 443 158 406 143 q 509 200 480 172 l 509 271 q 448 290 481 283 q 380 296 415 296 q 285 275 319 296 q 251 215 251 253 q 281 162 251 181 q 365 143 310 143 m 538 791 q 462 820 492 791 q 433 895 433 850 q 462 970 433 940 q 538 1001 492 1001 q 613 970 583 1001 q 642 895 642 940 q 613 820 642 850 q 538 791 583 791 m 270 791 q 195 820 225 791 q 166 895 166 850 q 195 970 166 940 q 270 1001 225 1001 q 345 970 315 1001 q 375 895 375 940 q 345 820 375 850 q 270 791 315 791 m 176 1103 l 176 1258 l 634 1258 l 634 1103 l 176 1103 z "},"ȧ":{"ha":788,"x_min":65,"x_max":697,"o":"m 317 -17 q 133 46 201 -17 q 65 215 65 108 q 100 336 65 284 q 200 417 136 388 q 349 446 264 446 q 436 438 394 446 q 509 417 479 431 l 509 459 q 477 539 509 512 q 383 567 444 567 q 276 548 331 567 q 163 491 221 529 l 104 639 q 245 704 167 681 q 402 726 322 726 q 624 658 550 726 q 697 452 697 589 l 697 0 l 509 0 l 509 54 q 426 1 475 19 q 317 -17 377 -17 m 365 143 q 443 158 406 143 q 509 200 480 172 l 509 271 q 448 290 481 283 q 380 296 415 296 q 285 275 319 296 q 251 215 251 253 q 281 162 251 181 q 365 143 310 143 m 406 794 q 327 827 360 794 q 294 905 294 860 q 327 982 294 951 q 406 1014 360 1014 q 484 982 453 1014 q 516 905 516 951 q 484 827 516 860 q 406 794 453 794 z "},"ạ":{"ha":788,"x_min":65,"x_max":697,"o":"m 317 -17 q 133 46 201 -17 q 65 215 65 108 q 100 336 65 284 q 200 417 136 388 q 349 446 264 446 q 436 438 394 446 q 509 417 479 431 l 509 459 q 477 539 509 512 q 383 567 444 567 q 276 548 331 567 q 163 491 221 529 l 104 639 q 245 704 167 681 q 402 726 322 726 q 624 658 550 726 q 697 452 697 589 l 697 0 l 509 0 l 509 54 q 426 1 475 19 q 317 -17 377 -17 m 365 143 q 443 158 406 143 q 509 200 480 172 l 509 271 q 448 290 481 283 q 380 296 415 296 q 285 275 319 296 q 251 215 251 253 q 281 162 251 181 q 365 143 310 143 m 330 -304 q 255 -274 285 -304 q 225 -199 225 -243 q 255 -124 225 -153 q 330 -94 285 -94 q 404 -124 374 -94 q 434 -199 434 -153 q 404 -274 434 -243 q 330 -304 374 -304 z "},"ǡ":{"ha":788,"x_min":65,"x_max":697,"o":"m 317 -17 q 133 46 201 -17 q 65 215 65 108 q 100 336 65 284 q 200 417 136 388 q 349 446 264 446 q 436 438 394 446 q 509 417 479 431 l 509 459 q 477 539 509 512 q 383 567 444 567 q 276 548 331 567 q 163 491 221 529 l 104 639 q 245 704 167 681 q 402 726 322 726 q 624 658 550 726 q 697 452 697 589 l 697 0 l 509 0 l 509 54 q 426 1 475 19 q 317 -17 377 -17 m 365 143 q 443 158 406 143 q 509 200 480 172 l 509 271 q 448 290 481 283 q 380 296 415 296 q 285 275 319 296 q 251 215 251 253 q 281 162 251 181 q 365 143 310 143 m 406 794 q 327 827 360 794 q 294 905 294 860 q 327 982 294 951 q 406 1014 360 1014 q 484 982 453 1014 q 516 905 516 951 q 484 827 516 860 q 406 794 453 794 m 176 1116 l 176 1271 l 635 1271 l 635 1116 l 176 1116 z "},"à":{"ha":788,"x_min":65,"x_max":697,"o":"m 317 -17 q 133 46 201 -17 q 65 215 65 108 q 100 336 65 284 q 200 417 136 388 q 349 446 264 446 q 436 438 394 446 q 509 417 479 431 l 509 459 q 477 539 509 512 q 383 567 444 567 q 276 548 331 567 q 163 491 221 529 l 104 639 q 245 704 167 681 q 402 726 322 726 q 624 658 550 726 q 697 452 697 589 l 697 0 l 509 0 l 509 54 q 426 1 475 19 q 317 -17 377 -17 m 365 143 q 443 158 406 143 q 509 200 480 172 l 509 271 q 448 290 481 283 q 380 296 415 296 q 285 275 319 296 q 251 215 251 253 q 281 162 251 181 q 365 143 310 143 m 346 800 l 99 1017 l 330 1017 l 527 800 l 346 800 z "},"ả":{"ha":788,"x_min":65,"x_max":697,"o":"m 317 -17 q 133 46 201 -17 q 65 215 65 108 q 100 336 65 284 q 200 417 136 388 q 349 446 264 446 q 436 438 394 446 q 509 417 479 431 l 509 459 q 477 539 509 512 q 383 567 444 567 q 276 548 331 567 q 163 491 221 529 l 104 639 q 245 704 167 681 q 402 726 322 726 q 624 658 550 726 q 697 452 697 589 l 697 0 l 509 0 l 509 54 q 426 1 475 19 q 317 -17 377 -17 m 365 143 q 443 158 406 143 q 509 200 480 172 l 509 271 q 448 290 481 283 q 380 296 415 296 q 285 275 319 296 q 251 215 251 253 q 281 162 251 181 q 365 143 310 143 m 342 764 q 353 826 342 799 q 393 875 364 852 q 414 892 408 885 q 420 907 420 899 q 401 924 420 924 q 353 886 376 924 l 270 938 q 322 1009 284 983 q 408 1036 360 1036 q 502 1002 465 1036 q 539 915 539 968 q 523 851 539 874 q 491 813 508 829 q 471 789 477 800 q 465 764 465 777 l 342 764 z "},"ȃ":{"ha":788,"x_min":65,"x_max":697,"o":"m 317 -17 q 133 46 201 -17 q 65 215 65 108 q 100 336 65 284 q 200 417 136 388 q 349 446 264 446 q 436 438 394 446 q 509 417 479 431 l 509 459 q 477 539 509 512 q 383 567 444 567 q 276 548 331 567 q 163 491 221 529 l 104 639 q 245 704 167 681 q 402 726 322 726 q 624 658 550 726 q 697 452 697 589 l 697 0 l 509 0 l 509 54 q 426 1 475 19 q 317 -17 377 -17 m 365 143 q 443 158 406 143 q 509 200 480 172 l 509 271 q 448 290 481 283 q 380 296 415 296 q 285 275 319 296 q 251 215 251 253 q 281 162 251 181 q 365 143 310 143 m 151 793 q 180 910 151 856 q 264 998 208 965 q 406 1031 321 1031 q 537 1001 485 1031 q 618 924 589 972 q 656 819 647 876 q 658 806 658 813 q 658 793 658 799 l 515 793 q 514 806 515 799 q 512 819 514 813 q 480 873 503 849 q 406 897 456 897 q 340 881 364 897 q 305 841 315 865 q 294 793 294 817 l 151 793 z "},"ɑ":{"ha":808,"x_min":70,"x_max":702,"o":"m 363 -17 q 147 82 224 -17 q 70 356 70 180 q 107 549 70 465 q 211 680 144 633 q 365 726 277 726 q 511 656 456 726 l 511 710 l 702 710 l 702 0 l 511 0 l 511 59 q 363 -17 467 -17 m 394 167 q 465 179 438 167 q 511 218 492 192 l 511 490 q 461 529 492 515 q 394 543 429 543 q 296 495 331 543 q 261 356 261 447 q 276 252 261 294 q 322 189 292 210 q 394 167 351 167 z "},"ɒ":{"ha":808,"x_min":106,"x_max":738,"o":"m 444 -17 q 297 53 352 -17 l 297 0 l 106 0 l 106 710 l 297 710 l 297 651 q 446 726 342 726 q 661 628 584 726 q 738 354 738 531 q 701 161 738 244 q 598 30 664 77 q 444 -17 531 -17 m 414 167 q 513 215 478 167 q 547 354 547 264 q 532 458 547 416 q 487 521 517 499 q 414 543 457 543 q 344 531 372 543 q 297 492 317 518 l 297 220 q 348 181 317 195 q 414 167 379 167 z "},"ā":{"ha":788,"x_min":65,"x_max":697,"o":"m 317 -17 q 133 46 201 -17 q 65 215 65 108 q 100 336 65 284 q 200 417 136 388 q 349 446 264 446 q 436 438 394 446 q 509 417 479 431 l 509 459 q 477 539 509 512 q 383 567 444 567 q 276 548 331 567 q 163 491 221 529 l 104 639 q 245 704 167 681 q 402 726 322 726 q 624 658 550 726 q 697 452 697 589 l 697 0 l 509 0 l 509 54 q 426 1 475 19 q 317 -17 377 -17 m 365 143 q 443 158 406 143 q 509 200 480 172 l 509 271 q 448 290 481 283 q 380 296 415 296 q 285 275 319 296 q 251 215 251 253 q 281 162 251 181 q 365 143 310 143 m 176 812 l 176 967 l 634 967 l 634 812 l 176 812 z "},"ą":{"ha":788,"x_min":65,"x_max":697,"o":"m 506 -342 q 382 -299 429 -342 q 334 -189 334 -257 q 379 -77 334 -125 q 509 2 424 -28 l 509 54 q 426 1 475 19 q 317 -17 377 -17 q 133 46 201 -17 q 65 215 65 108 q 100 336 65 284 q 200 417 136 388 q 349 446 264 446 q 436 438 394 446 q 509 417 479 431 l 509 459 q 477 539 509 512 q 383 567 444 567 q 276 548 331 567 q 163 491 221 529 l 104 639 q 245 704 167 681 q 402 726 322 726 q 624 658 550 726 q 697 452 697 589 l 697 0 q 544 -70 600 -24 q 489 -173 489 -117 q 501 -215 489 -200 q 535 -231 513 -231 q 590 -203 569 -231 l 676 -265 q 506 -342 608 -342 m 365 144 q 443 158 406 144 q 509 200 480 173 l 509 271 q 448 290 481 283 q 380 296 415 296 q 285 275 319 296 q 251 215 251 253 q 281 163 251 182 q 365 144 310 144 z "},"å":{"ha":788,"x_min":65,"x_max":697,"o":"m 317 -17 q 133 46 201 -17 q 65 215 65 108 q 100 336 65 284 q 200 417 136 388 q 349 446 264 446 q 436 438 394 446 q 509 417 479 431 l 509 459 q 477 539 509 512 q 383 567 444 567 q 276 548 331 567 q 163 491 221 529 l 104 639 q 245 704 167 681 q 402 726 322 726 q 624 658 550 726 q 697 452 697 589 l 697 0 l 509 0 l 509 54 q 426 1 475 19 q 317 -17 377 -17 m 365 143 q 443 158 406 143 q 509 200 480 172 l 509 271 q 448 290 481 283 q 380 296 415 296 q 285 275 319 296 q 251 215 251 253 q 281 162 251 181 q 365 143 310 143 m 404 765 q 311 790 353 765 q 245 856 270 815 q 221 947 221 897 q 245 1039 221 999 q 311 1103 270 1080 q 404 1127 353 1127 q 497 1103 456 1127 q 563 1039 538 1080 q 588 947 588 999 q 563 856 588 897 q 497 790 538 815 q 404 765 456 765 m 404 893 q 440 909 424 893 q 456 947 456 924 q 440 986 456 971 q 404 1001 424 1001 q 366 986 380 1001 q 351 947 351 971 q 366 909 351 924 q 404 893 380 893 z "},"ǻ":{"ha":788,"x_min":65,"x_max":724,"o":"m 317 -17 q 133 46 201 -17 q 65 215 65 108 q 100 336 65 284 q 200 417 136 388 q 349 446 264 446 q 436 438 394 446 q 509 417 479 431 l 509 459 q 477 539 509 512 q 383 567 444 567 q 276 548 331 567 q 163 491 221 529 l 104 639 q 245 704 167 681 q 402 726 322 726 q 624 658 550 726 q 697 452 697 589 l 697 0 l 509 0 l 509 54 q 426 1 475 19 q 317 -17 377 -17 m 365 143 q 443 158 406 143 q 509 200 480 172 l 509 271 q 448 290 481 283 q 380 296 415 296 q 285 275 319 296 q 251 215 251 253 q 281 162 251 181 q 365 143 310 143 m 404 793 q 311 818 353 793 q 245 884 270 842 q 221 975 221 925 q 245 1067 221 1026 q 311 1131 270 1108 q 404 1155 353 1155 q 497 1131 456 1155 q 563 1067 538 1108 q 588 975 588 1026 q 563 884 588 925 q 497 818 538 842 q 404 793 456 793 m 404 921 q 440 936 424 921 q 456 975 456 952 q 440 1014 456 999 q 404 1028 424 1028 q 366 1014 380 1028 q 351 975 351 999 q 366 936 351 952 q 404 921 380 921 m 295 1143 l 492 1360 l 724 1360 l 476 1143 l 295 1143 z "},"ã":{"ha":788,"x_min":65,"x_max":697,"o":"m 317 -17 q 133 46 201 -17 q 65 215 65 108 q 100 336 65 284 q 200 417 136 388 q 349 446 264 446 q 436 438 394 446 q 509 417 479 431 l 509 459 q 477 539 509 512 q 383 567 444 567 q 276 548 331 567 q 163 491 221 529 l 104 639 q 245 704 167 681 q 402 726 322 726 q 624 658 550 726 q 697 452 697 589 l 697 0 l 509 0 l 509 54 q 426 1 475 19 q 317 -17 377 -17 m 365 143 q 443 158 406 143 q 509 200 480 172 l 509 271 q 448 290 481 283 q 380 296 415 296 q 285 275 319 296 q 251 215 251 253 q 281 162 251 181 q 365 143 310 143 m 515 810 q 443 821 476 810 q 382 845 410 833 q 334 865 358 856 q 286 874 310 874 q 241 861 260 874 q 221 815 221 848 l 131 815 q 147 914 131 870 q 199 983 163 958 q 296 1008 235 1008 q 367 998 335 1008 q 427 974 399 988 q 476 955 451 963 q 525 946 500 946 q 570 958 551 946 q 590 1003 590 970 l 678 1003 q 663 906 678 949 q 611 836 647 862 q 515 810 576 810 z "},"ɐ":{"ha":788,"x_min":91,"x_max":724,"o":"m 386 -17 q 165 52 239 -17 q 91 258 91 121 l 91 710 l 279 710 l 279 656 q 363 708 314 690 q 471 726 412 726 q 656 664 588 726 q 724 495 724 602 q 688 374 724 426 q 588 293 652 322 q 440 264 524 264 q 352 272 395 264 q 279 293 309 280 l 279 251 q 311 171 279 199 q 405 143 344 143 q 513 162 458 143 q 626 219 568 181 l 684 71 q 544 6 622 28 q 386 -17 466 -17 m 408 414 q 503 435 469 414 q 538 494 538 457 q 508 548 538 528 q 424 567 478 567 q 346 552 383 567 q 279 510 308 538 l 279 439 q 341 420 308 427 q 408 414 375 414 z "},"æ":{"ha":1188,"x_min":65,"x_max":1125,"o":"m 306 -17 q 184 9 239 -17 q 97 87 130 35 q 65 215 65 139 q 104 346 65 295 q 203 422 144 397 q 321 446 262 446 q 408 438 369 446 q 470 418 447 429 l 470 459 q 440 539 470 512 q 365 567 410 567 q 260 545 311 567 q 163 491 208 524 l 104 639 q 227 700 156 673 q 383 726 297 726 q 499 710 442 726 q 594 653 557 694 q 687 707 633 688 q 810 726 742 726 q 970 690 899 726 q 1083 578 1041 653 q 1125 390 1125 503 q 1124 344 1125 371 q 1119 290 1124 317 l 663 290 q 682 214 663 246 q 733 164 701 181 q 810 147 766 147 q 899 164 862 147 q 969 219 936 181 l 1080 107 q 966 17 1033 51 q 810 -17 899 -17 q 658 15 724 -17 q 551 99 592 46 q 440 12 501 40 q 306 -17 378 -17 m 344 144 q 422 163 386 144 q 480 210 458 181 q 474 241 476 222 q 470 271 471 260 q 419 289 448 282 q 361 296 390 296 q 306 286 331 296 q 266 259 281 277 q 251 215 251 241 q 275 164 251 184 q 344 144 299 144 m 665 435 l 942 435 q 920 505 938 476 q 874 549 903 534 q 806 564 846 564 q 710 531 749 564 q 665 435 672 498 z "},"ǽ":{"ha":1188,"x_min":65,"x_max":1125,"o":"m 306 -17 q 184 9 239 -17 q 97 87 130 35 q 65 215 65 139 q 104 346 65 295 q 203 422 144 397 q 321 446 262 446 q 408 438 369 446 q 470 418 447 429 l 470 459 q 440 539 470 512 q 365 567 410 567 q 260 545 311 567 q 163 491 208 524 l 104 639 q 227 700 156 673 q 383 726 297 726 q 499 710 442 726 q 594 653 557 694 q 687 707 633 688 q 810 726 742 726 q 970 690 899 726 q 1083 578 1041 653 q 1125 390 1125 503 q 1124 344 1125 371 q 1119 290 1124 317 l 663 290 q 682 214 663 246 q 733 164 701 181 q 810 147 766 147 q 899 164 862 147 q 969 219 936 181 l 1080 107 q 966 17 1033 51 q 810 -17 899 -17 q 658 15 724 -17 q 551 99 592 46 q 440 12 501 40 q 306 -17 378 -17 m 344 144 q 422 163 386 144 q 480 210 458 181 q 474 241 476 222 q 470 271 471 260 q 419 289 448 282 q 361 296 390 296 q 306 286 331 296 q 266 259 281 277 q 251 215 251 241 q 275 164 251 184 q 344 144 299 144 m 665 435 l 942 435 q 920 505 938 476 q 874 549 903 534 q 806 564 846 564 q 710 531 749 564 q 665 435 672 498 m 441 800 l 638 1017 l 869 1017 l 622 800 l 441 800 z "},"ǣ":{"ha":1188,"x_min":65,"x_max":1125,"o":"m 306 -17 q 184 9 239 -17 q 97 87 130 35 q 65 215 65 139 q 104 346 65 295 q 203 422 144 397 q 321 446 262 446 q 408 438 369 446 q 470 418 447 429 l 470 459 q 440 539 470 512 q 365 567 410 567 q 260 545 311 567 q 163 491 208 524 l 104 639 q 227 700 156 673 q 383 726 297 726 q 499 710 442 726 q 594 653 557 694 q 687 707 633 688 q 810 726 742 726 q 970 690 899 726 q 1083 578 1041 653 q 1125 390 1125 503 q 1124 344 1125 371 q 1119 290 1124 317 l 663 290 q 682 214 663 246 q 733 164 701 181 q 810 147 766 147 q 899 164 862 147 q 969 219 936 181 l 1080 107 q 966 17 1033 51 q 810 -17 899 -17 q 658 15 724 -17 q 551 99 592 46 q 440 12 501 40 q 306 -17 378 -17 m 344 144 q 422 163 386 144 q 480 210 458 181 q 474 241 476 222 q 470 271 471 260 q 419 289 448 282 q 361 296 390 296 q 306 286 331 296 q 266 259 281 277 q 251 215 251 241 q 275 164 251 184 q 344 144 299 144 m 665 435 l 942 435 q 920 505 938 476 q 874 549 903 534 q 806 564 846 564 q 710 531 749 564 q 665 435 672 498 m 366 812 l 366 967 l 824 967 l 824 812 l 366 812 z "},"b":{"ha":808,"x_min":106,"x_max":738,"o":"m 435 -17 q 355 0 388 -17 q 297 56 322 17 l 297 0 l 106 0 l 106 917 l 297 1003 l 297 656 q 360 708 322 690 q 444 726 397 726 q 597 679 531 726 q 701 549 663 632 q 738 356 738 465 q 658 82 738 180 q 435 -17 577 -17 m 413 167 q 512 216 477 167 q 547 356 547 265 q 512 494 547 446 q 413 543 477 543 q 345 529 376 543 q 297 491 315 515 l 297 218 q 344 180 317 192 q 413 167 371 167 z "},"ḅ":{"ha":808,"x_min":106,"x_max":738,"o":"m 435 -17 q 355 0 388 -17 q 297 56 322 17 l 297 0 l 106 0 l 106 917 l 297 1003 l 297 656 q 360 708 322 690 q 444 726 397 726 q 597 679 531 726 q 701 549 663 632 q 738 356 738 465 q 658 82 738 180 q 435 -17 577 -17 m 413 167 q 512 216 477 167 q 547 356 547 265 q 512 494 547 446 q 413 543 477 543 q 345 529 376 543 q 297 491 315 515 l 297 218 q 344 180 317 192 q 413 167 371 167 m 423 -304 q 348 -274 378 -304 q 318 -199 318 -243 q 348 -124 318 -153 q 423 -94 378 -94 q 497 -124 467 -94 q 527 -199 527 -153 q 497 -274 527 -243 q 423 -304 467 -304 z "},"ɓ":{"ha":808,"x_min":106,"x_max":738,"o":"m 435 -17 q 355 0 388 -17 q 297 56 322 17 l 297 0 l 106 0 l 106 708 q 182 936 106 858 q 398 1042 257 1014 l 496 888 q 379 852 422 872 q 316 801 335 833 q 297 716 297 769 l 297 656 q 360 708 322 690 q 444 726 397 726 q 597 679 531 726 q 701 549 663 632 q 738 356 738 465 q 658 82 738 180 q 435 -17 577 -17 m 413 167 q 512 216 477 167 q 547 356 547 265 q 512 494 547 446 q 413 543 477 543 q 345 529 376 543 q 297 491 315 515 l 297 218 q 344 180 317 192 q 413 167 371 167 z "},"ʬ":{"ha":816,"x_min":94,"x_max":722,"o":"m 221 524 l 94 972 l 242 972 l 285 800 q 292 767 289 787 q 295 785 294 776 q 299 799 297 793 l 344 972 l 471 972 l 515 801 q 518 785 516 793 q 522 767 520 776 q 528 800 525 788 l 573 972 l 722 972 l 594 524 l 460 524 l 416 710 q 412 731 414 720 q 408 752 410 741 q 404 731 406 741 q 400 711 402 721 l 355 524 l 221 524 m 221 0 l 94 449 l 242 449 l 285 276 q 292 244 289 263 q 295 261 294 253 q 299 276 297 269 l 344 449 l 471 449 l 515 276 q 518 261 516 269 q 522 244 520 253 q 528 276 525 264 l 573 449 l 722 449 l 594 0 l 460 0 l 416 187 q 412 207 414 197 q 408 228 410 217 q 404 207 406 217 q 400 188 402 197 l 355 0 l 221 0 z "},"c":{"ha":771,"x_min":70,"x_max":702,"o":"m 397 -17 q 223 28 297 -17 q 110 157 150 74 q 70 354 70 240 q 110 552 70 468 q 224 681 151 635 q 398 726 298 726 q 590 672 514 726 q 701 513 667 618 l 519 451 q 472 520 503 496 q 401 544 441 544 q 302 492 340 544 q 264 354 264 440 q 301 218 264 269 q 397 166 338 166 q 473 192 442 166 q 521 268 504 218 l 702 215 q 592 41 669 99 q 397 -17 515 -17 z "},"ć":{"ha":771,"x_min":70,"x_max":702,"o":"m 397 -17 q 223 28 297 -17 q 110 157 150 74 q 70 354 70 240 q 110 552 70 468 q 224 681 151 635 q 398 726 298 726 q 590 672 514 726 q 701 513 667 618 l 519 451 q 472 520 503 496 q 401 544 441 544 q 302 492 340 544 q 264 354 264 440 q 301 218 264 269 q 397 166 338 166 q 473 192 442 166 q 521 268 504 218 l 702 215 q 592 41 669 99 q 397 -17 515 -17 m 247 800 l 444 1017 l 675 1017 l 428 800 l 247 800 z "},"č":{"ha":771,"x_min":70,"x_max":702,"o":"m 397 -17 q 223 28 297 -17 q 110 157 150 74 q 70 354 70 240 q 110 552 70 468 q 224 681 151 635 q 398 726 298 726 q 590 672 514 726 q 701 513 667 618 l 519 451 q 472 520 503 496 q 401 544 441 544 q 302 492 340 544 q 264 354 264 440 q 301 218 264 269 q 397 166 338 166 q 473 192 442 166 q 521 268 504 218 l 702 215 q 592 41 669 99 q 397 -17 515 -17 m 310 800 l 113 1017 l 286 1017 l 401 924 l 515 1017 l 687 1017 l 489 800 l 310 800 z "},"ç":{"ha":771,"x_min":70,"x_max":702,"o":"m 397 -17 q 223 28 297 -17 q 110 157 150 74 q 70 354 70 240 q 110 552 70 468 q 224 681 151 635 q 398 726 298 726 q 590 672 514 726 q 701 513 667 618 l 519 451 q 472 520 503 496 q 401 544 441 544 q 302 492 340 544 q 264 354 264 440 q 301 218 264 269 q 397 166 338 166 q 473 192 442 166 q 521 268 504 218 l 702 215 q 592 41 669 99 q 397 -17 515 -17 m 375 -342 q 277 -322 315 -342 q 218 -272 239 -301 l 298 -212 q 322 -232 306 -224 q 356 -240 337 -240 q 405 -226 388 -240 q 422 -187 422 -212 q 405 -149 422 -162 q 356 -135 388 -135 q 324 -141 339 -135 q 295 -156 309 -147 l 254 -107 l 338 0 l 444 0 l 410 -62 q 529 -98 491 -62 q 567 -189 567 -134 q 518 -298 567 -255 q 375 -342 468 -342 z "},"ĉ":{"ha":771,"x_min":70,"x_max":702,"o":"m 397 -17 q 223 28 297 -17 q 110 157 150 74 q 70 354 70 240 q 110 552 70 468 q 224 681 151 635 q 398 726 298 726 q 590 672 514 726 q 701 513 667 618 l 519 451 q 472 520 503 496 q 401 544 441 544 q 302 492 340 544 q 264 354 264 440 q 301 218 264 269 q 397 166 338 166 q 473 192 442 166 q 521 268 504 218 l 702 215 q 592 41 669 99 q 397 -17 515 -17 m 114 800 l 313 1017 l 491 1017 l 688 800 l 515 800 l 402 894 l 287 800 l 114 800 z "},"ċ":{"ha":771,"x_min":70,"x_max":702,"o":"m 397 -17 q 223 28 297 -17 q 110 157 150 74 q 70 354 70 240 q 110 552 70 468 q 224 681 151 635 q 398 726 298 726 q 590 672 514 726 q 701 513 667 618 l 519 451 q 472 520 503 496 q 401 544 441 544 q 302 492 340 544 q 264 354 264 440 q 301 218 264 269 q 397 166 338 166 q 473 192 442 166 q 521 268 504 218 l 702 215 q 592 41 669 99 q 397 -17 515 -17 m 401 794 q 323 827 356 794 q 290 905 290 860 q 323 982 290 951 q 401 1014 356 1014 q 480 982 449 1014 q 512 905 512 951 q 480 827 512 860 q 401 794 449 794 z "},"ƈ":{"ha":897,"x_min":70,"x_max":900,"o":"m 397 -17 q 223 28 297 -17 q 110 157 150 74 q 70 354 70 240 q 110 552 70 468 q 224 681 151 635 q 398 726 298 726 q 510 710 460 726 l 510 723 q 588 939 510 863 q 801 1042 665 1015 l 900 888 q 783 852 826 872 q 720 801 739 833 q 701 716 701 769 l 701 513 l 519 451 q 472 520 503 496 q 401 544 441 544 q 302 492 340 544 q 264 354 264 440 q 301 218 264 269 q 397 166 338 166 q 473 192 442 166 q 521 268 504 218 l 702 215 q 592 41 669 99 q 397 -17 515 -17 z "},"d":{"ha":808,"x_min":70,"x_max":702,"o":"m 363 -17 q 147 82 224 -17 q 70 356 70 180 q 107 549 70 465 q 211 680 144 633 q 365 726 277 726 q 511 656 456 726 l 511 917 l 702 1003 l 702 0 l 511 0 l 511 59 q 363 -17 467 -17 m 394 167 q 465 179 438 167 q 511 218 492 192 l 511 490 q 461 529 492 515 q 394 543 429 543 q 296 495 331 543 q 261 356 261 447 q 276 252 261 294 q 322 189 292 210 q 394 167 351 167 z "},"ð":{"ha":790,"x_min":70,"x_max":720,"o":"m 397 -17 q 227 25 301 -17 q 112 140 153 67 q 70 307 70 213 q 107 468 70 394 q 211 584 143 541 q 373 628 278 628 q 456 614 421 628 q 511 578 492 600 q 478 672 500 628 q 419 747 457 715 l 344 668 l 246 758 l 291 806 q 235 817 265 813 q 171 823 205 822 l 171 989 q 305 974 244 987 q 419 940 367 962 l 499 1024 l 596 932 l 537 869 q 678 661 636 788 q 720 383 720 534 q 683 175 720 265 q 574 34 647 85 q 397 -17 502 -17 m 397 167 q 465 185 435 167 q 513 234 496 203 q 531 306 531 266 q 513 382 531 349 q 464 432 494 415 q 395 450 433 450 q 327 433 358 450 q 279 383 297 415 q 261 307 261 351 q 280 235 261 267 q 328 185 298 203 q 397 167 359 167 z "},"ď":{"ha":1042,"x_min":70,"x_max":1018,"o":"m 363 -17 q 147 82 224 -17 q 70 356 70 180 q 107 549 70 465 q 211 680 144 633 q 365 726 277 726 q 511 656 456 726 l 511 917 l 702 1003 l 702 0 l 511 0 l 511 59 q 363 -17 467 -17 m 394 167 q 465 179 438 167 q 511 218 492 192 l 511 490 q 461 529 492 515 q 394 543 429 543 q 296 495 331 543 q 261 356 261 447 q 276 252 261 294 q 322 189 292 210 q 394 167 351 167 m 862 624 l 800 672 q 823 745 813 697 q 838 858 833 794 q 844 989 844 921 l 1019 989 l 1019 978 q 975 774 1019 858 q 862 624 931 690 z "},"ḓ":{"ha":808,"x_min":70,"x_max":702,"o":"m 363 -17 q 147 82 224 -17 q 70 356 70 180 q 107 549 70 465 q 211 680 144 633 q 365 726 277 726 q 511 656 456 726 l 511 917 l 702 1003 l 702 0 l 511 0 l 511 59 q 363 -17 467 -17 m 394 167 q 465 179 438 167 q 511 218 492 192 l 511 490 q 461 529 492 515 q 394 543 429 543 q 296 495 331 543 q 261 356 261 447 q 276 252 261 294 q 322 189 292 210 q 394 167 351 167 m 115 -318 l 313 -101 l 492 -101 l 689 -318 l 516 -318 l 403 -224 l 288 -318 l 115 -318 z "},"đ":{"ha":808,"x_min":70,"x_max":795,"o":"m 363 -17 q 208 25 274 -17 q 106 144 142 66 q 70 333 70 222 q 109 515 70 437 q 214 637 147 593 q 365 681 280 681 q 452 662 417 681 q 511 612 488 643 l 511 744 l 354 744 l 354 886 l 511 886 l 511 917 l 702 1003 l 702 886 l 795 886 l 795 744 l 702 744 l 702 0 l 511 0 l 511 53 q 454 2 492 20 q 363 -17 416 -17 m 394 167 q 466 180 439 167 q 511 218 492 192 l 511 444 q 486 470 503 458 q 447 490 470 482 q 394 497 424 497 q 296 451 331 497 q 261 333 261 405 q 276 248 261 285 q 320 189 290 210 q 394 167 349 167 z "},"ḍ":{"ha":808,"x_min":70,"x_max":702,"o":"m 363 -17 q 147 82 224 -17 q 70 356 70 180 q 107 549 70 465 q 211 680 144 633 q 365 726 277 726 q 511 656 456 726 l 511 917 l 702 1003 l 702 0 l 511 0 l 511 59 q 363 -17 467 -17 m 394 167 q 465 179 438 167 q 511 218 492 192 l 511 490 q 461 529 492 515 q 394 543 429 543 q 296 495 331 543 q 261 356 261 447 q 276 252 261 294 q 322 189 292 210 q 394 167 351 167 m 403 -304 q 328 -274 358 -304 q 299 -199 299 -243 q 328 -124 299 -153 q 403 -94 358 -94 q 478 -124 448 -94 q 508 -199 508 -153 q 478 -274 508 -243 q 403 -304 448 -304 z "},"ʤ":{"ha":1427,"x_min":70,"x_max":1344,"o":"m 1032 -296 q 822 -232 909 -296 q 703 -53 735 -167 l 875 16 q 937 -80 899 -47 q 1026 -113 975 -113 q 1119 -80 1084 -113 q 1153 10 1153 -46 q 1106 113 1153 74 q 973 158 1058 152 l 872 261 l 1088 539 l 702 539 l 702 0 l 511 0 l 511 59 q 363 -17 467 -17 q 147 82 224 -17 q 70 356 70 180 q 107 549 70 465 q 211 680 144 633 q 365 726 277 726 q 511 656 456 726 l 511 917 l 702 1003 l 702 710 l 1313 710 l 1313 568 l 1093 285 q 1279 192 1213 265 q 1344 8 1344 119 q 1305 -149 1344 -81 q 1194 -257 1265 -218 q 1032 -296 1124 -296 m 394 167 q 465 179 438 167 q 511 218 492 192 l 511 490 q 461 529 492 515 q 394 543 429 543 q 296 495 331 543 q 261 356 261 447 q 276 252 261 294 q 322 189 292 210 q 394 167 351 167 z "},"ɗ":{"ha":897,"x_min":70,"x_max":901,"o":"m 363 -17 q 147 82 224 -17 q 70 356 70 180 q 107 549 70 465 q 211 680 144 633 q 365 726 277 726 q 511 656 456 726 l 511 708 q 586 936 511 858 q 803 1042 662 1014 l 901 888 q 784 852 827 872 q 721 801 740 833 q 702 716 702 769 l 702 0 l 511 0 l 511 59 q 363 -17 467 -17 m 394 167 q 465 179 438 167 q 511 218 492 192 l 511 490 q 461 529 492 515 q 394 543 429 543 q 296 495 331 543 q 261 356 261 447 q 276 252 261 294 q 322 189 292 210 q 394 167 351 167 z "},"ḏ":{"ha":808,"x_min":70,"x_max":702,"o":"m 363 -17 q 147 82 224 -17 q 70 356 70 180 q 107 549 70 465 q 211 680 144 633 q 365 726 277 726 q 511 656 456 726 l 511 917 l 702 1003 l 702 0 l 511 0 l 511 59 q 363 -17 467 -17 m 394 167 q 465 179 438 167 q 511 218 492 192 l 511 490 q 461 529 492 515 q 394 543 429 543 q 296 495 331 543 q 261 356 261 447 q 276 252 261 294 q 322 189 292 210 q 394 167 351 167 m 174 -252 l 174 -97 l 632 -97 l 632 -252 l 174 -252 z "},"ɖ":{"ha":881,"x_min":70,"x_max":901,"o":"m 803 -342 q 586 -235 662 -313 q 511 -8 511 -158 l 511 59 q 363 -17 467 -17 q 147 82 224 -17 q 70 356 70 180 q 107 549 70 465 q 211 680 144 633 q 365 726 277 726 q 511 656 456 726 l 511 917 l 702 1003 l 702 -16 q 721 -101 702 -69 q 784 -152 740 -133 q 901 -187 827 -172 l 803 -342 m 394 167 q 465 179 438 167 q 511 218 492 192 l 511 490 q 461 529 492 515 q 394 543 429 543 q 296 495 331 543 q 261 356 261 447 q 276 252 261 294 q 322 189 292 210 q 394 167 351 167 z "},"ǳ":{"ha":1581,"x_min":70,"x_max":1496,"o":"m 363 -17 q 147 82 224 -17 q 70 356 70 180 q 107 549 70 465 q 211 680 144 633 q 365 726 277 726 q 511 656 456 726 l 511 917 l 702 1003 l 702 0 l 511 0 l 511 59 q 363 -17 467 -17 m 394 167 q 465 179 438 167 q 511 218 492 192 l 511 490 q 461 529 492 515 q 394 543 429 543 q 296 495 331 543 q 261 356 261 447 q 276 252 261 294 q 322 189 292 210 q 394 167 351 167 m 887 0 l 887 146 l 1249 540 l 913 540 l 913 710 l 1496 710 l 1496 568 l 1136 171 l 1494 171 l 1494 0 l 887 0 z "},"ʣ":{"ha":1457,"x_min":70,"x_max":1372,"o":"m 363 -17 q 147 82 224 -17 q 70 356 70 180 q 107 549 70 465 q 211 680 144 633 q 365 726 277 726 q 511 656 456 726 l 511 917 l 702 1003 l 702 710 l 1372 710 l 1372 568 l 1043 171 l 1371 171 l 1371 0 l 794 0 l 794 146 l 1125 540 l 702 540 l 702 0 l 511 0 l 511 59 q 363 -17 467 -17 m 394 167 q 465 179 438 167 q 511 218 492 192 l 511 490 q 461 529 492 515 q 394 543 429 543 q 296 495 331 543 q 261 356 261 447 q 276 252 261 294 q 322 189 292 210 q 394 167 351 167 z "},"ǆ":{"ha":1581,"x_min":70,"x_max":1499,"o":"m 363 -17 q 147 82 224 -17 q 70 356 70 180 q 107 549 70 465 q 211 680 144 633 q 365 726 277 726 q 511 656 456 726 l 511 917 l 702 1003 l 702 0 l 511 0 l 511 59 q 363 -17 467 -17 m 394 167 q 465 179 438 167 q 511 218 492 192 l 511 490 q 461 529 492 515 q 394 543 429 543 q 296 495 331 543 q 261 356 261 447 q 276 252 261 294 q 322 189 292 210 q 394 167 351 167 m 887 0 l 887 146 l 1249 540 l 913 540 l 913 710 l 1496 710 l 1496 568 l 1136 171 l 1494 171 l 1494 0 l 887 0 m 1122 800 l 925 1017 l 1098 1017 l 1213 924 l 1326 1017 l 1499 1017 l 1301 800 l 1122 800 z "},"e":{"ha":783,"x_min":70,"x_max":719,"o":"m 404 -17 q 226 28 301 -17 q 110 157 151 74 q 70 356 70 240 q 111 553 70 469 q 227 681 152 636 q 404 726 302 726 q 564 690 492 726 q 677 579 635 653 q 719 390 719 504 q 719 343 719 371 q 715 289 718 316 l 257 289 q 277 213 258 245 q 328 164 295 181 q 405 146 360 146 q 494 163 458 146 q 565 219 531 180 l 675 107 q 560 17 627 51 q 404 -17 493 -17 m 259 435 l 536 435 q 515 505 532 476 q 470 549 499 534 q 400 564 441 564 q 305 531 344 564 q 259 435 267 497 z "},"é":{"ha":783,"x_min":70,"x_max":719,"o":"m 404 -17 q 226 28 301 -17 q 110 157 151 74 q 70 356 70 240 q 111 553 70 469 q 227 681 152 636 q 404 726 302 726 q 564 690 492 726 q 677 579 635 653 q 719 390 719 504 q 719 343 719 371 q 715 289 718 316 l 257 289 q 277 213 258 245 q 328 164 295 181 q 405 146 360 146 q 494 163 458 146 q 565 219 531 180 l 675 107 q 560 17 627 51 q 404 -17 493 -17 m 259 435 l 536 435 q 515 505 532 476 q 470 549 499 534 q 400 564 441 564 q 305 531 344 564 q 259 435 267 497 m 251 800 l 448 1017 l 679 1017 l 432 800 l 251 800 z "},"ĕ":{"ha":783,"x_min":70,"x_max":719,"o":"m 404 -17 q 226 28 301 -17 q 110 157 151 74 q 70 356 70 240 q 111 553 70 469 q 227 681 152 636 q 404 726 302 726 q 564 690 492 726 q 677 579 635 653 q 719 390 719 504 q 719 343 719 371 q 715 289 718 316 l 257 289 q 277 213 258 245 q 328 164 295 181 q 405 146 360 146 q 494 163 458 146 q 565 219 531 180 l 675 107 q 560 17 627 51 q 404 -17 493 -17 m 259 435 l 536 435 q 515 505 532 476 q 470 549 499 534 q 400 564 441 564 q 305 531 344 564 q 259 435 267 497 m 404 793 q 264 826 319 793 q 180 913 208 859 q 151 1031 151 967 l 294 1031 q 303 982 294 1006 q 336 942 313 958 q 404 926 360 926 q 472 942 448 926 q 505 982 496 958 q 515 1031 515 1006 l 658 1031 q 629 913 658 967 q 544 826 601 859 q 404 793 488 793 z "},"ě":{"ha":783,"x_min":70,"x_max":719,"o":"m 404 -17 q 226 28 301 -17 q 110 157 151 74 q 70 356 70 240 q 111 553 70 469 q 227 681 152 636 q 404 726 302 726 q 564 690 492 726 q 677 579 635 653 q 719 390 719 504 q 719 343 719 371 q 715 289 718 316 l 257 289 q 277 213 258 245 q 328 164 295 181 q 405 146 360 146 q 494 163 458 146 q 565 219 531 180 l 675 107 q 560 17 627 51 q 404 -17 493 -17 m 259 435 l 536 435 q 515 505 532 476 q 470 549 499 534 q 400 564 441 564 q 305 531 344 564 q 259 435 267 497 m 315 800 l 117 1017 l 290 1017 l 405 924 l 519 1017 l 691 1017 l 493 800 l 315 800 z "},"ȩ":{"ha":783,"x_min":70,"x_max":719,"o":"m 404 -17 q 226 28 301 -17 q 110 157 151 74 q 70 356 70 240 q 111 553 70 469 q 227 681 152 636 q 404 726 302 726 q 564 690 492 726 q 677 579 635 653 q 719 390 719 504 q 719 343 719 371 q 715 289 718 316 l 257 289 q 277 213 258 245 q 328 164 295 181 q 405 146 360 146 q 494 163 458 146 q 565 219 531 180 l 675 107 q 560 17 627 51 q 404 -17 493 -17 m 259 435 l 536 435 q 515 505 532 476 q 470 549 499 534 q 400 564 441 564 q 305 531 344 564 q 259 435 267 497 m 387 -342 q 289 -322 326 -342 q 230 -272 251 -301 l 310 -212 q 333 -232 318 -224 q 368 -240 349 -240 q 417 -226 400 -240 q 433 -187 433 -212 q 417 -149 433 -162 q 367 -135 400 -135 q 336 -141 351 -135 q 307 -156 321 -147 l 266 -107 l 350 0 l 456 0 l 422 -62 q 541 -98 503 -62 q 579 -189 579 -134 q 530 -298 579 -255 q 387 -342 480 -342 z "},"ê":{"ha":783,"x_min":70,"x_max":719,"o":"m 404 -17 q 226 28 301 -17 q 110 157 151 74 q 70 356 70 240 q 111 553 70 469 q 227 681 152 636 q 404 726 302 726 q 564 690 492 726 q 677 579 635 653 q 719 390 719 504 q 719 343 719 371 q 715 289 718 316 l 257 289 q 277 213 258 245 q 328 164 295 181 q 405 146 360 146 q 494 163 458 146 q 565 219 531 180 l 675 107 q 560 17 627 51 q 404 -17 493 -17 m 259 435 l 536 435 q 515 505 532 476 q 470 549 499 534 q 400 564 441 564 q 305 531 344 564 q 259 435 267 497 m 118 800 l 317 1017 l 495 1017 l 692 800 l 519 800 l 406 894 l 291 800 l 118 800 z "},"ế":{"ha":783,"x_min":70,"x_max":998,"o":"m 404 -17 q 226 28 301 -17 q 110 157 151 74 q 70 356 70 240 q 111 553 70 469 q 227 681 152 636 q 404 726 302 726 q 564 690 492 726 q 677 579 635 653 q 719 390 719 504 q 719 343 719 371 q 715 289 718 316 l 257 289 q 277 213 258 245 q 328 164 295 181 q 405 146 360 146 q 494 163 458 146 q 565 219 531 180 l 675 107 q 560 17 627 51 q 404 -17 493 -17 m 259 435 l 536 435 q 515 505 532 476 q 470 549 499 534 q 400 564 441 564 q 305 531 344 564 q 259 435 267 497 m 118 800 l 317 1017 l 495 1017 l 692 800 l 519 800 l 406 894 l 291 800 l 118 800 m 569 994 l 767 1211 l 998 1211 l 751 994 l 569 994 z "},"ệ":{"ha":783,"x_min":70,"x_max":719,"o":"m 404 -17 q 226 28 301 -17 q 110 157 151 74 q 70 356 70 240 q 111 553 70 469 q 227 681 152 636 q 404 726 302 726 q 564 690 492 726 q 677 579 635 653 q 719 390 719 504 q 719 343 719 371 q 715 289 718 316 l 257 289 q 277 213 258 245 q 328 164 295 181 q 405 146 360 146 q 494 163 458 146 q 565 219 531 180 l 675 107 q 560 17 627 51 q 404 -17 493 -17 m 259 435 l 536 435 q 515 505 532 476 q 470 549 499 534 q 400 564 441 564 q 305 531 344 564 q 259 435 267 497 m 405 -304 q 330 -274 360 -304 q 300 -199 300 -243 q 330 -124 300 -153 q 405 -94 360 -94 q 479 -124 449 -94 q 509 -199 509 -153 q 479 -274 509 -243 q 405 -304 449 -304 m 118 800 l 317 1017 l 495 1017 l 692 800 l 519 800 l 406 894 l 291 800 l 118 800 z "},"ề":{"ha":783,"x_min":70,"x_max":809,"o":"m 404 -17 q 226 28 301 -17 q 110 157 151 74 q 70 356 70 240 q 111 553 70 469 q 227 681 152 636 q 404 726 302 726 q 564 690 492 726 q 677 579 635 653 q 719 390 719 504 q 719 343 719 371 q 715 289 718 316 l 257 289 q 277 213 258 245 q 328 164 295 181 q 405 146 360 146 q 494 163 458 146 q 565 219 531 180 l 675 107 q 560 17 627 51 q 404 -17 493 -17 m 259 435 l 536 435 q 515 505 532 476 q 470 549 499 534 q 400 564 441 564 q 305 531 344 564 q 259 435 267 497 m 118 800 l 317 1017 l 495 1017 l 692 800 l 519 800 l 406 894 l 291 800 l 118 800 m 628 994 l 381 1211 l 612 1211 l 809 994 l 628 994 z "},"ể":{"ha":783,"x_min":70,"x_max":719,"o":"m 404 -17 q 226 28 301 -17 q 110 157 151 74 q 70 356 70 240 q 111 553 70 469 q 227 681 152 636 q 404 726 302 726 q 564 690 492 726 q 677 579 635 653 q 719 390 719 504 q 719 343 719 371 q 715 289 718 316 l 257 289 q 277 213 258 245 q 328 164 295 181 q 405 146 360 146 q 494 163 458 146 q 565 219 531 180 l 675 107 q 560 17 627 51 q 404 -17 493 -17 m 259 435 l 536 435 q 515 505 532 476 q 470 549 499 534 q 400 564 441 564 q 305 531 344 564 q 259 435 267 497 m 118 800 l 317 1017 l 495 1017 l 692 800 l 519 800 l 406 894 l 291 800 l 118 800 m 342 1071 q 353 1133 342 1106 q 393 1182 364 1159 q 414 1199 408 1192 q 420 1214 420 1206 q 401 1231 420 1231 q 353 1193 376 1231 l 270 1245 q 322 1316 284 1290 q 408 1343 360 1343 q 502 1309 465 1343 q 539 1222 539 1275 q 523 1158 539 1181 q 491 1120 508 1136 q 471 1095 477 1107 q 465 1071 465 1084 l 342 1071 z "},"ễ":{"ha":783,"x_min":70,"x_max":719,"o":"m 404 -17 q 226 28 301 -17 q 110 157 151 74 q 70 356 70 240 q 111 553 70 469 q 227 681 152 636 q 404 726 302 726 q 564 690 492 726 q 677 579 635 653 q 719 390 719 504 q 719 343 719 371 q 715 289 718 316 l 257 289 q 277 213 258 245 q 328 164 295 181 q 405 146 360 146 q 494 163 458 146 q 565 219 531 180 l 675 107 q 560 17 627 51 q 404 -17 493 -17 m 259 435 l 536 435 q 515 505 532 476 q 470 549 499 534 q 400 564 441 564 q 305 531 344 564 q 259 435 267 497 m 118 800 l 317 1017 l 495 1017 l 692 800 l 519 800 l 406 894 l 291 800 l 118 800 m 515 1089 q 443 1100 476 1089 q 382 1124 410 1112 q 334 1144 358 1135 q 286 1153 310 1153 q 241 1140 260 1153 q 221 1094 221 1127 l 131 1094 q 147 1193 131 1149 q 199 1262 163 1237 q 296 1288 235 1288 q 367 1277 335 1288 q 427 1253 399 1267 q 476 1234 451 1242 q 525 1225 500 1225 q 570 1237 551 1225 q 590 1282 590 1249 l 678 1282 q 663 1185 678 1228 q 611 1115 647 1141 q 515 1089 576 1089 z "},"ȅ":{"ha":783,"x_min":-85,"x_max":719,"o":"m 404 -17 q 226 28 301 -17 q 110 157 151 74 q 70 356 70 240 q 111 553 70 469 q 227 681 152 636 q 404 726 302 726 q 564 690 492 726 q 677 579 635 653 q 719 390 719 504 q 719 343 719 371 q 715 289 718 316 l 257 289 q 277 213 258 245 q 328 164 295 181 q 405 146 360 146 q 494 163 458 146 q 565 219 531 180 l 675 107 q 560 17 627 51 q 404 -17 493 -17 m 259 435 l 536 435 q 515 505 532 476 q 470 549 499 534 q 400 564 441 564 q 305 531 344 564 q 259 435 267 497 m 163 800 l -85 1017 l 147 1017 l 344 800 l 163 800 m 472 800 l 225 1017 l 456 1017 l 653 800 l 472 800 z "},"ë":{"ha":783,"x_min":70,"x_max":719,"o":"m 404 -17 q 226 28 301 -17 q 110 157 151 74 q 70 356 70 240 q 111 553 70 469 q 227 681 152 636 q 404 726 302 726 q 564 690 492 726 q 677 579 635 653 q 719 390 719 504 q 719 343 719 371 q 715 289 718 316 l 257 289 q 277 213 258 245 q 328 164 295 181 q 405 146 360 146 q 494 163 458 146 q 565 219 531 180 l 675 107 q 560 17 627 51 q 404 -17 493 -17 m 259 435 l 536 435 q 515 505 532 476 q 470 549 499 534 q 400 564 441 564 q 305 531 344 564 q 259 435 267 497 m 538 791 q 462 820 492 791 q 433 895 433 850 q 462 970 433 940 q 538 1001 492 1001 q 613 970 583 1001 q 642 895 642 940 q 613 820 642 850 q 538 791 583 791 m 270 791 q 195 820 225 791 q 166 895 166 850 q 195 970 166 940 q 270 1001 225 1001 q 345 970 315 1001 q 375 895 375 940 q 345 820 375 850 q 270 791 315 791 z "},"ė":{"ha":783,"x_min":70,"x_max":719,"o":"m 404 -17 q 226 28 301 -17 q 110 157 151 74 q 70 356 70 240 q 111 553 70 469 q 227 681 152 636 q 404 726 302 726 q 564 690 492 726 q 677 579 635 653 q 719 390 719 504 q 719 343 719 371 q 715 289 718 316 l 257 289 q 277 213 258 245 q 328 164 295 181 q 405 146 360 146 q 494 163 458 146 q 565 219 531 180 l 675 107 q 560 17 627 51 q 404 -17 493 -17 m 259 435 l 536 435 q 515 505 532 476 q 470 549 499 534 q 400 564 441 564 q 305 531 344 564 q 259 435 267 497 m 406 794 q 327 827 360 794 q 294 905 294 860 q 327 982 294 951 q 406 1014 360 1014 q 484 982 453 1014 q 516 905 516 951 q 484 827 516 860 q 406 794 453 794 z "},"ẹ":{"ha":783,"x_min":70,"x_max":719,"o":"m 404 -17 q 226 28 301 -17 q 110 157 151 74 q 70 356 70 240 q 111 553 70 469 q 227 681 152 636 q 404 726 302 726 q 564 690 492 726 q 677 579 635 653 q 719 390 719 504 q 719 343 719 371 q 715 289 718 316 l 257 289 q 277 213 258 245 q 328 164 295 181 q 405 146 360 146 q 494 163 458 146 q 565 219 531 180 l 675 107 q 560 17 627 51 q 404 -17 493 -17 m 259 435 l 536 435 q 515 505 532 476 q 470 549 499 534 q 400 564 441 564 q 305 531 344 564 q 259 435 267 497 m 405 -304 q 330 -274 360 -304 q 300 -199 300 -243 q 330 -124 300 -153 q 405 -94 360 -94 q 479 -124 449 -94 q 509 -199 509 -153 q 479 -274 509 -243 q 405 -304 449 -304 z "},"è":{"ha":783,"x_min":70,"x_max":719,"o":"m 404 -17 q 226 28 301 -17 q 110 157 151 74 q 70 356 70 240 q 111 553 70 469 q 227 681 152 636 q 404 726 302 726 q 564 690 492 726 q 677 579 635 653 q 719 390 719 504 q 719 343 719 371 q 715 289 718 316 l 257 289 q 277 213 258 245 q 328 164 295 181 q 405 146 360 146 q 494 163 458 146 q 565 219 531 180 l 675 107 q 560 17 627 51 q 404 -17 493 -17 m 259 435 l 536 435 q 515 505 532 476 q 470 549 499 534 q 400 564 441 564 q 305 531 344 564 q 259 435 267 497 m 346 800 l 99 1017 l 330 1017 l 527 800 l 346 800 z "},"ẻ":{"ha":783,"x_min":70,"x_max":719,"o":"m 404 -17 q 226 28 301 -17 q 110 157 151 74 q 70 356 70 240 q 111 553 70 469 q 227 681 152 636 q 404 726 302 726 q 564 690 492 726 q 677 579 635 653 q 719 390 719 504 q 719 343 719 371 q 715 289 718 316 l 257 289 q 277 213 258 245 q 328 164 295 181 q 405 146 360 146 q 494 163 458 146 q 565 219 531 180 l 675 107 q 560 17 627 51 q 404 -17 493 -17 m 259 435 l 536 435 q 515 505 532 476 q 470 549 499 534 q 400 564 441 564 q 305 531 344 564 q 259 435 267 497 m 342 764 q 353 826 342 799 q 393 875 364 852 q 414 892 408 885 q 420 907 420 899 q 401 924 420 924 q 353 886 376 924 l 270 938 q 322 1009 284 983 q 408 1036 360 1036 q 502 1002 465 1036 q 539 915 539 968 q 523 851 539 874 q 491 813 508 829 q 471 789 477 800 q 465 764 465 777 l 342 764 z "},"ȇ":{"ha":783,"x_min":70,"x_max":719,"o":"m 404 -17 q 226 28 301 -17 q 110 157 151 74 q 70 356 70 240 q 111 553 70 469 q 227 681 152 636 q 404 726 302 726 q 564 690 492 726 q 677 579 635 653 q 719 390 719 504 q 719 343 719 371 q 715 289 718 316 l 257 289 q 277 213 258 245 q 328 164 295 181 q 405 146 360 146 q 494 163 458 146 q 565 219 531 180 l 675 107 q 560 17 627 51 q 404 -17 493 -17 m 259 435 l 536 435 q 515 505 532 476 q 470 549 499 534 q 400 564 441 564 q 305 531 344 564 q 259 435 267 497 m 151 793 q 180 910 151 856 q 264 998 208 965 q 406 1031 321 1031 q 537 1001 485 1031 q 618 924 589 972 q 656 819 647 876 q 658 806 658 813 q 658 793 658 799 l 515 793 q 514 806 515 799 q 512 819 514 813 q 480 873 503 849 q 406 897 456 897 q 340 881 364 897 q 305 841 315 865 q 294 793 294 817 l 151 793 z "},"ē":{"ha":783,"x_min":70,"x_max":719,"o":"m 404 -17 q 226 28 301 -17 q 110 157 151 74 q 70 356 70 240 q 111 553 70 469 q 227 681 152 636 q 404 726 302 726 q 564 690 492 726 q 677 579 635 653 q 719 390 719 504 q 719 343 719 371 q 715 289 718 316 l 257 289 q 277 213 258 245 q 328 164 295 181 q 405 146 360 146 q 494 163 458 146 q 565 219 531 180 l 675 107 q 560 17 627 51 q 404 -17 493 -17 m 259 435 l 536 435 q 515 505 532 476 q 470 549 499 534 q 400 564 441 564 q 305 531 344 564 q 259 435 267 497 m 176 812 l 176 967 l 634 967 l 634 812 l 176 812 z "}}}
